# Blender v3.0.0 OBJ File: ''
# www.blender.org
mtllib drill_shaft.mtl
o /ambf/env/drill_shaft_drill_shaft
v 0.000000 0.001500 -0.027357
v 0.000000 0.001500 0.027357
v 0.000293 0.001471 0.027357
v 0.000293 0.001471 -0.027357
v 0.000574 0.001386 0.027357
v 0.000574 0.001386 -0.027357
v 0.000833 0.001247 0.027357
v 0.000833 0.001247 -0.027357
v 0.001061 0.001061 0.027357
v 0.001061 0.001061 -0.027357
v 0.001247 0.000833 0.027357
v 0.001247 0.000833 -0.027357
v 0.001386 0.000574 0.027357
v 0.001386 0.000574 -0.027357
v 0.001471 0.000293 0.027357
v 0.001471 0.000293 -0.027357
v 0.001500 0.000000 0.027357
v 0.001500 0.000000 -0.027357
v 0.001471 -0.000293 0.027357
v 0.001471 -0.000293 -0.027357
v 0.001386 -0.000574 0.027357
v 0.001386 -0.000574 -0.027357
v 0.001247 -0.000833 0.027357
v 0.001247 -0.000833 -0.027357
v 0.001061 -0.001061 0.027357
v 0.001061 -0.001061 -0.027357
v 0.000833 -0.001247 0.027357
v 0.000833 -0.001247 -0.027357
v 0.000574 -0.001386 0.027357
v 0.000574 -0.001386 -0.027357
v 0.000293 -0.001471 0.027357
v 0.000293 -0.001471 -0.027357
v -0.000000 -0.001500 0.027357
v -0.000000 -0.001500 -0.027357
v -0.000293 -0.001471 0.027357
v -0.000293 -0.001471 -0.027357
v -0.000574 -0.001386 0.027357
v -0.000574 -0.001386 -0.027357
v -0.000833 -0.001247 0.027357
v -0.000833 -0.001247 -0.027357
v -0.001061 -0.001061 0.027357
v -0.001061 -0.001061 -0.027357
v -0.001247 -0.000833 0.027357
v -0.001247 -0.000833 -0.027357
v -0.001386 -0.000574 0.027357
v -0.001386 -0.000574 -0.027357
v -0.001471 -0.000293 0.027357
v -0.001471 -0.000293 -0.027357
v -0.001500 0.000000 0.027357
v -0.001500 0.000000 -0.027357
v -0.001471 0.000293 0.027357
v -0.001471 0.000293 -0.027357
v -0.001386 0.000574 0.027357
v -0.001386 0.000574 -0.027357
v -0.001247 0.000833 0.027357
v -0.001247 0.000833 -0.027357
v -0.001061 0.001061 0.027357
v -0.001061 0.001061 -0.027357
v -0.000833 0.001247 0.027357
v -0.000833 0.001247 -0.027357
v -0.000574 0.001386 0.027357
v -0.000574 0.001386 -0.027357
v -0.000293 0.001471 0.027357
v -0.000293 0.001471 -0.027357
vn 0.0980 0.9952 0.0000
vn 0.2903 0.9569 0.0000
vn 0.4714 0.8819 0.0000
vn 0.6344 0.7730 0.0000
vn 0.7730 0.6344 0.0000
vn 0.8819 0.4714 0.0000
vn 0.9569 0.2903 0.0000
vn 0.9952 0.0980 0.0000
vn 0.9952 -0.0980 0.0000
vn 0.9569 -0.2903 0.0000
vn 0.8819 -0.4714 0.0000
vn 0.7730 -0.6344 0.0000
vn 0.6344 -0.7730 0.0000
vn 0.4714 -0.8819 0.0000
vn 0.2903 -0.9569 0.0000
vn 0.0980 -0.9952 0.0000
vn -0.0980 -0.9952 0.0000
vn -0.2903 -0.9569 0.0000
vn -0.4714 -0.8819 0.0000
vn -0.6344 -0.7730 0.0000
vn -0.7730 -0.6344 0.0000
vn -0.8819 -0.4714 0.0000
vn -0.9569 -0.2903 0.0000
vn -0.9952 -0.0980 0.0000
vn -0.9952 0.0980 0.0000
vn -0.9569 0.2903 0.0000
vn -0.8819 0.4714 0.0000
vn -0.7730 0.6344 0.0000
vn -0.6344 0.7730 0.0000
vn -0.4714 0.8819 0.0000
vn -0.0000 0.0000 1.0000
vn 0.0001 0.0000 1.0000
vn -0.0001 0.0000 1.0000
vn -0.2903 0.9569 0.0000
vn -0.0980 0.9952 0.0000
vn -0.0000 0.0000 -1.0000
vn -0.0001 0.0000 -1.0000
vn 0.0001 0.0000 -1.0000
usemtl drill_shaftmat
s off
f 1//1 2//1 3//1
f 1//1 3//1 4//1
f 4//2 3//2 5//2
f 4//2 5//2 6//2
f 6//3 5//3 7//3
f 6//3 7//3 8//3
f 8//4 7//4 9//4
f 8//4 9//4 10//4
f 10//5 9//5 11//5
f 10//5 11//5 12//5
f 12//6 11//6 13//6
f 12//6 13//6 14//6
f 14//7 13//7 15//7
f 14//7 15//7 16//7
f 16//8 15//8 17//8
f 16//8 17//8 18//8
f 18//9 17//9 19//9
f 18//9 19//9 20//9
f 20//10 19//10 21//10
f 20//10 21//10 22//10
f 22//11 21//11 23//11
f 22//11 23//11 24//11
f 24//12 23//12 25//12
f 24//12 25//12 26//12
f 26//13 25//13 27//13
f 26//13 27//13 28//13
f 28//14 27//14 29//14
f 28//14 29//14 30//14
f 30//15 29//15 31//15
f 30//15 31//15 32//15
f 32//16 31//16 33//16
f 32//16 33//16 34//16
f 34//17 33//17 35//17
f 34//17 35//17 36//17
f 36//18 35//18 37//18
f 36//18 37//18 38//18
f 38//19 37//19 39//19
f 38//19 39//19 40//19
f 40//20 39//20 41//20
f 40//20 41//20 42//20
f 42//21 41//21 43//21
f 42//21 43//21 44//21
f 44//22 43//22 45//22
f 44//22 45//22 46//22
f 46//23 45//23 47//23
f 46//23 47//23 48//23
f 48//24 47//24 49//24
f 48//24 49//24 50//24
f 50//25 49//25 51//25
f 50//25 51//25 52//25
f 52//26 51//26 53//26
f 52//26 53//26 54//26
f 54//27 53//27 55//27
f 54//27 55//27 56//27
f 56//28 55//28 57//28
f 56//28 57//28 58//28
f 58//29 57//29 59//29
f 58//29 59//29 60//29
f 60//30 59//30 61//30
f 60//30 61//30 62//30
f 5//31 3//31 2//31
f 2//31 63//31 61//31
f 61//32 59//32 57//32
f 57//31 55//31 53//31
f 53//32 51//32 49//32
f 49//31 47//31 45//31
f 45//31 43//31 41//31
f 41//32 39//32 37//32
f 37//31 35//31 33//31
f 33//31 31//31 29//31
f 29//31 27//31 25//31
f 25//32 23//32 21//32
f 21//31 19//31 17//31
f 17//31 15//31 13//31
f 13//32 11//32 9//32
f 9//33 7//33 5//33
f 5//31 2//31 61//31
f 61//31 57//31 53//31
f 53//31 49//31 45//31
f 45//31 41//31 37//31
f 37//31 33//31 29//31
f 29//31 25//31 21//31
f 21//31 17//31 13//31
f 13//31 9//31 5//31
f 5//31 61//31 53//31
f 53//31 45//31 37//31
f 37//31 29//31 21//31
f 21//31 13//31 5//31
f 5//31 53//31 37//31
f 37//31 21//31 5//31
f 62//34 61//34 63//34
f 62//34 63//34 64//34
f 64//35 63//35 2//35
f 64//35 2//35 1//35
f 64//36 1//36 4//36
f 4//36 6//36 8//36
f 8//36 10//36 12//36
f 12//37 14//37 16//37
f 16//38 18//38 20//38
f 20//36 22//36 24//36
f 24//37 26//37 28//37
f 28//36 30//36 32//36
f 32//36 34//36 36//36
f 36//36 38//36 40//36
f 40//38 42//38 44//38
f 44//37 46//37 48//37
f 48//36 50//36 52//36
f 52//37 54//37 56//37
f 56//37 58//37 60//37
f 60//36 62//36 64//36
f 64//36 4//36 8//36
f 8//36 12//36 16//36
f 16//36 20//36 24//36
f 24//36 28//36 32//36
f 32//36 36//36 40//36
f 40//36 44//36 48//36
f 48//36 52//36 56//36
f 56//36 60//36 64//36
f 64//36 8//36 16//36
f 16//36 24//36 32//36
f 32//36 40//36 48//36
f 48//36 56//36 64//36
f 64//36 16//36 32//36
f 32//36 48//36 64//36
