# Blender v3.0.0 OBJ File: ''
# www.blender.org
mtllib dovetail_male.mtl
o /ambf/env/dovetail_male_dovetail_male
v -0.000062 0.006200 0.014650
v 0.004700 0.008950 0.014650
v 0.004700 0.008950 -0.015350
v -0.000062 0.006200 -0.015350
v -0.000062 0.012950 -0.015350
v -0.000062 0.012950 0.014650
v -0.004062 0.012950 -0.015350
v -0.004062 0.012950 0.014650
v -0.004062 -0.013050 -0.015350
v -0.004062 -0.013050 0.014650
v -0.000062 -0.013050 -0.015350
v -0.000062 -0.013050 0.014650
v 0.004700 -0.009050 0.014650
v -0.000062 -0.006300 0.014650
v -0.000062 -0.006300 -0.015350
v 0.004700 -0.009050 -0.015350
vn -0.5000 0.8660 0.0000
vn 1.0000 0.0000 0.0000
vn 0.0000 1.0000 0.0000
vn -1.0000 0.0000 0.0000
vn 0.0000 -1.0000 0.0000
vn 0.0000 0.0000 1.0000
vn -0.0000 0.0000 -1.0000
vn -0.5000 -0.8660 0.0000
usemtl dovetail_malemat
s off
f 1//1 2//1 3//1
f 3//1 4//1 1//1
f 5//2 6//2 1//2
f 1//2 4//2 5//2
f 6//3 5//3 7//3
f 7//3 8//3 6//3
f 8//4 7//4 9//4
f 9//4 10//4 8//4
f 10//5 9//5 11//5
f 11//5 12//5 10//5
f 13//6 2//6 1//6
f 10//6 12//6 14//6
f 8//6 10//6 1//6
f 14//6 1//6 10//6
f 1//6 14//6 13//6
f 1//6 6//6 8//6
f 9//7 4//7 15//7
f 16//7 15//7 4//7
f 4//7 3//7 16//7
f 7//7 5//7 4//7
f 4//7 9//7 7//7
f 15//7 11//7 9//7
f 12//2 11//2 15//2
f 15//2 14//2 12//2
f 13//8 14//8 15//8
f 15//8 16//8 13//8
f 2//2 13//2 16//2
f 16//2 3//2 2//2
