# Blender v3.0.0 OBJ File: ''
# www.blender.org
mtllib Origin.mtl
o /ambf/env/Origin_Origin
v 0.000000 0.001000 -0.000000
v 0.000000 0.000981 0.000195
v 0.000191 0.000962 0.000195
v 0.000195 0.000981 -0.000000
v 0.000000 0.000195 0.000981
v -0.000000 -0.000000 0.001000
v 0.000038 0.000191 0.000981
v 0.000000 -0.000000 -0.001000
v 0.000000 0.000195 -0.000981
v 0.000038 0.000191 -0.000981
v 0.000000 0.000981 -0.000195
v 0.000191 0.000962 -0.000195
v 0.000000 0.000383 0.000924
v 0.000075 0.000375 0.000924
v 0.000000 0.000924 -0.000383
v 0.000180 0.000906 -0.000383
v 0.000000 0.000556 0.000831
v 0.000108 0.000545 0.000831
v 0.000000 0.000831 -0.000556
v 0.000162 0.000815 -0.000556
v 0.000000 0.000707 0.000707
v 0.000138 0.000694 0.000707
v 0.000000 0.000707 -0.000707
v 0.000138 0.000694 -0.000707
v 0.000000 0.000831 0.000556
v 0.000162 0.000815 0.000556
v 0.000000 0.000556 -0.000831
v 0.000108 0.000545 -0.000831
v 0.000000 0.000924 0.000383
v 0.000180 0.000906 0.000383
v 0.000000 0.000383 -0.000924
v 0.000075 0.000375 -0.000924
v 0.000213 0.000513 -0.000831
v 0.000146 0.000354 -0.000924
v 0.000354 0.000854 0.000383
v 0.000375 0.000906 0.000195
v 0.000075 0.000180 -0.000981
v 0.000383 0.000924 -0.000000
v 0.000075 0.000180 0.000981
v 0.000375 0.000906 -0.000195
v 0.000146 0.000354 0.000924
v 0.000354 0.000854 -0.000383
v 0.000213 0.000513 0.000831
v 0.000318 0.000768 -0.000556
v 0.000271 0.000653 0.000707
v 0.000271 0.000653 -0.000707
v 0.000318 0.000768 0.000556
v 0.000513 0.000768 -0.000383
v 0.000462 0.000691 -0.000556
v 0.000309 0.000462 0.000831
v 0.000393 0.000588 0.000707
v 0.000393 0.000588 -0.000707
v 0.000462 0.000691 0.000556
v 0.000309 0.000462 -0.000831
v 0.000513 0.000768 0.000383
v 0.000213 0.000318 -0.000924
v 0.000545 0.000815 0.000195
v 0.000108 0.000162 -0.000981
v 0.000556 0.000831 -0.000000
v 0.000108 0.000162 0.000981
v 0.000545 0.000815 -0.000195
v 0.000213 0.000318 0.000924
v 0.000271 0.000271 -0.000924
v 0.000138 0.000138 -0.000981
v 0.000694 0.000694 0.000195
v 0.000707 0.000707 -0.000000
v 0.000138 0.000138 0.000981
v 0.000694 0.000694 -0.000195
v 0.000271 0.000271 0.000924
v 0.000653 0.000653 -0.000383
v 0.000393 0.000393 0.000831
v 0.000588 0.000588 -0.000556
v 0.000500 0.000500 0.000707
v 0.000500 0.000500 -0.000707
v 0.000588 0.000588 0.000556
v 0.000393 0.000393 -0.000831
v 0.000653 0.000653 0.000383
v 0.000462 0.000309 0.000831
v 0.000588 0.000393 0.000707
v 0.000691 0.000462 -0.000556
v 0.000588 0.000393 -0.000707
v 0.000691 0.000462 0.000556
v 0.000462 0.000309 -0.000831
v 0.000768 0.000513 0.000383
v 0.000318 0.000213 -0.000924
v 0.000815 0.000545 0.000195
v 0.000162 0.000108 -0.000981
v 0.000831 0.000556 -0.000000
v 0.000162 0.000108 0.000981
v 0.000815 0.000545 -0.000195
v 0.000318 0.000213 0.000924
v 0.000768 0.000513 -0.000383
v 0.000906 0.000375 0.000195
v 0.000924 0.000383 -0.000000
v 0.000180 0.000075 0.000981
v 0.000180 0.000075 -0.000981
v 0.000906 0.000375 -0.000195
v 0.000354 0.000146 0.000924
v 0.000854 0.000354 -0.000383
v 0.000513 0.000213 0.000831
v 0.000768 0.000318 -0.000556
v 0.000653 0.000271 0.000707
v 0.000653 0.000271 -0.000707
v 0.000768 0.000318 0.000556
v 0.000513 0.000213 -0.000831
v 0.000854 0.000354 0.000383
v 0.000354 0.000146 -0.000924
v 0.000815 0.000162 -0.000556
v 0.000694 0.000138 -0.000707
v 0.000694 0.000138 0.000707
v 0.000815 0.000162 0.000556
v 0.000545 0.000108 -0.000831
v 0.000906 0.000180 0.000383
v 0.000375 0.000075 -0.000924
v 0.000962 0.000191 0.000195
v 0.000191 0.000038 -0.000981
v 0.000981 0.000195 -0.000000
v 0.000191 0.000038 0.000981
v 0.000962 0.000191 -0.000195
v 0.000375 0.000075 0.000924
v 0.000906 0.000180 -0.000383
v 0.000545 0.000108 0.000831
v 0.000195 -0.000000 0.000981
v 0.000195 -0.000000 -0.000981
v 0.001000 -0.000000 -0.000000
v 0.000981 -0.000000 -0.000195
v 0.000383 -0.000000 0.000924
v 0.000924 -0.000000 -0.000383
v 0.000556 -0.000000 0.000831
v 0.000831 -0.000000 -0.000556
v 0.000707 -0.000000 0.000707
v 0.000707 -0.000000 -0.000707
v 0.000831 -0.000000 0.000556
v 0.000556 -0.000000 -0.000831
v 0.000924 -0.000000 0.000383
v 0.000383 -0.000000 -0.000924
v 0.000981 -0.000000 0.000195
v 0.000694 -0.000138 0.000707
v 0.000815 -0.000162 0.000556
v 0.000694 -0.000138 -0.000707
v 0.000545 -0.000108 -0.000831
v 0.000906 -0.000180 0.000383
v 0.000375 -0.000075 -0.000924
v 0.000962 -0.000191 0.000195
v 0.000191 -0.000038 -0.000981
v 0.000981 -0.000195 -0.000000
v 0.000191 -0.000038 0.000981
v 0.000962 -0.000191 -0.000195
v 0.000375 -0.000075 0.000924
v 0.000906 -0.000180 -0.000383
v 0.000545 -0.000108 0.000831
v 0.000815 -0.000162 -0.000556
v 0.000924 -0.000383 -0.000000
v 0.000906 -0.000375 -0.000195
v 0.000180 -0.000075 0.000981
v 0.000354 -0.000146 0.000924
v 0.000854 -0.000354 -0.000383
v 0.000513 -0.000213 0.000831
v 0.000768 -0.000318 -0.000556
v 0.000653 -0.000271 0.000707
v 0.000653 -0.000271 -0.000707
v 0.000768 -0.000318 0.000556
v 0.000513 -0.000213 -0.000831
v 0.000854 -0.000354 0.000383
v 0.000354 -0.000146 -0.000924
v 0.000906 -0.000375 0.000195
v 0.000180 -0.000075 -0.000981
v 0.000588 -0.000393 -0.000707
v 0.000462 -0.000309 -0.000831
v 0.000691 -0.000462 0.000556
v 0.000768 -0.000513 0.000383
v 0.000318 -0.000213 -0.000924
v 0.000815 -0.000545 0.000195
v 0.000162 -0.000108 -0.000981
v 0.000831 -0.000556 -0.000000
v 0.000162 -0.000108 0.000981
v 0.000815 -0.000545 -0.000195
v 0.000318 -0.000213 0.000924
v 0.000768 -0.000513 -0.000383
v 0.000462 -0.000309 0.000831
v 0.000691 -0.000462 -0.000556
v 0.000588 -0.000393 0.000707
v 0.000694 -0.000694 -0.000195
v 0.000653 -0.000653 -0.000383
v 0.000271 -0.000271 0.000924
v 0.000393 -0.000393 0.000831
v 0.000588 -0.000588 -0.000556
v 0.000500 -0.000500 0.000707
v 0.000500 -0.000500 -0.000707
v 0.000588 -0.000588 0.000556
v 0.000393 -0.000393 -0.000831
v 0.000653 -0.000653 0.000383
v 0.000271 -0.000271 -0.000924
v 0.000694 -0.000694 0.000195
v 0.000138 -0.000138 -0.000981
v 0.000707 -0.000707 -0.000000
v 0.000138 -0.000138 0.000981
v 0.000309 -0.000462 -0.000831
v 0.000213 -0.000318 -0.000924
v 0.000513 -0.000768 0.000383
v 0.000545 -0.000815 0.000195
v 0.000108 -0.000162 -0.000981
v 0.000556 -0.000831 -0.000000
v 0.000108 -0.000162 0.000981
v 0.000545 -0.000815 -0.000195
v 0.000213 -0.000318 0.000924
v 0.000513 -0.000768 -0.000383
v 0.000309 -0.000462 0.000831
v 0.000462 -0.000691 -0.000556
v 0.000393 -0.000588 0.000707
v 0.000393 -0.000588 -0.000707
v 0.000462 -0.000691 0.000556
v 0.000146 -0.000354 0.000924
v 0.000213 -0.000513 0.000831
v 0.000354 -0.000854 -0.000383
v 0.000318 -0.000768 -0.000556
v 0.000271 -0.000653 0.000707
v 0.000271 -0.000653 -0.000707
v 0.000318 -0.000768 0.000556
v 0.000213 -0.000513 -0.000831
v 0.000354 -0.000854 0.000383
v 0.000146 -0.000354 -0.000924
v 0.000375 -0.000906 0.000195
v 0.000075 -0.000180 -0.000981
v 0.000383 -0.000924 -0.000000
v 0.000075 -0.000180 0.000981
v 0.000375 -0.000906 -0.000195
v 0.000180 -0.000906 0.000383
v 0.000191 -0.000962 0.000195
v 0.000075 -0.000375 -0.000924
v 0.000038 -0.000191 -0.000981
v 0.000195 -0.000981 -0.000000
v 0.000038 -0.000191 0.000981
v 0.000191 -0.000962 -0.000195
v 0.000075 -0.000375 0.000924
v 0.000180 -0.000906 -0.000383
v 0.000108 -0.000545 0.000831
v 0.000162 -0.000815 -0.000556
v 0.000138 -0.000694 0.000707
v 0.000138 -0.000694 -0.000707
v 0.000162 -0.000815 0.000556
v 0.000108 -0.000545 -0.000831
v -0.000000 -0.000924 -0.000383
v -0.000000 -0.000831 -0.000556
v -0.000000 -0.000556 0.000831
v 0.000000 -0.000707 0.000707
v 0.000000 -0.000707 -0.000707
v -0.000000 -0.000831 0.000556
v -0.000000 -0.000556 -0.000831
v 0.000000 -0.000924 0.000383
v 0.000000 -0.000383 -0.000924
v -0.000000 -0.000981 0.000195
v -0.000000 -0.000195 -0.000981
v -0.000000 -0.001000 -0.000000
v 0.000000 -0.000195 0.000981
v -0.000000 -0.000981 -0.000195
v -0.000000 -0.000383 0.000924
v -0.000075 -0.000375 -0.000924
v -0.000038 -0.000191 -0.000981
v -0.000191 -0.000962 0.000195
v -0.000195 -0.000981 -0.000000
v -0.000038 -0.000191 0.000981
v -0.000191 -0.000962 -0.000195
v -0.000075 -0.000375 0.000924
v -0.000180 -0.000906 -0.000383
v -0.000108 -0.000545 0.000831
v -0.000162 -0.000815 -0.000556
v -0.000138 -0.000694 0.000707
v -0.000138 -0.000694 -0.000707
v -0.000162 -0.000815 0.000556
v -0.000108 -0.000545 -0.000831
v -0.000180 -0.000906 0.000383
v -0.000213 -0.000513 0.000831
v -0.000271 -0.000653 0.000707
v -0.000318 -0.000768 -0.000556
v -0.000271 -0.000653 -0.000707
v -0.000318 -0.000768 0.000556
v -0.000213 -0.000513 -0.000831
v -0.000354 -0.000854 0.000383
v -0.000146 -0.000354 -0.000924
v -0.000375 -0.000906 0.000195
v -0.000075 -0.000180 -0.000981
v -0.000383 -0.000924 -0.000000
v -0.000075 -0.000180 0.000981
v -0.000375 -0.000906 -0.000195
v -0.000146 -0.000354 0.000924
v -0.000354 -0.000854 -0.000383
v -0.000545 -0.000815 0.000195
v -0.000556 -0.000831 -0.000000
v -0.000108 -0.000162 0.000981
v -0.000108 -0.000162 -0.000981
v -0.000545 -0.000815 -0.000195
v -0.000213 -0.000318 0.000924
v -0.000513 -0.000768 -0.000383
v -0.000309 -0.000462 0.000831
v -0.000462 -0.000691 -0.000556
v -0.000393 -0.000588 0.000707
v -0.000393 -0.000588 -0.000707
v -0.000462 -0.000691 0.000556
v -0.000309 -0.000462 -0.000831
v -0.000513 -0.000768 0.000383
v -0.000213 -0.000318 -0.000924
v -0.000588 -0.000588 -0.000556
v -0.000500 -0.000500 -0.000707
v -0.000500 -0.000500 0.000707
v -0.000588 -0.000588 0.000556
v -0.000393 -0.000393 -0.000831
v -0.000653 -0.000653 0.000383
v -0.000271 -0.000271 -0.000924
v -0.000694 -0.000694 0.000195
v -0.000138 -0.000138 -0.000981
v -0.000707 -0.000707 -0.000000
v -0.000138 -0.000138 0.000981
v -0.000694 -0.000694 -0.000195
v -0.000271 -0.000271 0.000924
v -0.000653 -0.000653 -0.000383
v -0.000393 -0.000393 0.000831
v -0.000162 -0.000108 -0.000981
v -0.000831 -0.000556 -0.000000
v -0.000815 -0.000545 -0.000195
v -0.000162 -0.000108 0.000981
v -0.000318 -0.000213 0.000924
v -0.000768 -0.000513 -0.000383
v -0.000462 -0.000309 0.000831
v -0.000691 -0.000462 -0.000556
v -0.000588 -0.000393 0.000707
v -0.000588 -0.000393 -0.000707
v -0.000691 -0.000462 0.000556
v -0.000462 -0.000309 -0.000831
v -0.000768 -0.000513 0.000383
v -0.000318 -0.000213 -0.000924
v -0.000815 -0.000545 0.000195
v -0.000653 -0.000271 -0.000707
v -0.000513 -0.000213 -0.000831
v -0.000768 -0.000318 0.000556
v -0.000854 -0.000354 0.000383
v -0.000354 -0.000146 -0.000924
v -0.000906 -0.000375 0.000195
v -0.000180 -0.000075 -0.000981
v -0.000924 -0.000383 -0.000000
v -0.000180 -0.000075 0.000981
v -0.000906 -0.000375 -0.000195
v -0.000354 -0.000146 0.000924
v -0.000854 -0.000354 -0.000383
v -0.000513 -0.000213 0.000831
v -0.000768 -0.000318 -0.000556
v -0.000653 -0.000271 0.000707
v -0.000191 -0.000038 0.000981
v -0.000375 -0.000075 0.000924
v -0.000962 -0.000191 -0.000195
v -0.000906 -0.000180 -0.000383
v -0.000545 -0.000108 0.000831
v -0.000815 -0.000162 -0.000556
v -0.000694 -0.000138 0.000707
v -0.000694 -0.000138 -0.000707
v -0.000815 -0.000162 0.000556
v -0.000545 -0.000108 -0.000831
v -0.000906 -0.000180 0.000383
v -0.000375 -0.000075 -0.000924
v -0.000962 -0.000191 0.000195
v -0.000191 -0.000038 -0.000981
v -0.000981 -0.000195 -0.000000
v -0.000831 -0.000000 0.000556
v -0.000924 -0.000000 0.000383
v -0.000556 0.000000 -0.000831
v -0.000383 -0.000000 -0.000924
v -0.000981 0.000000 0.000195
v -0.000195 -0.000000 -0.000981
v -0.001000 0.000000 -0.000000
v -0.000195 -0.000000 0.000981
v -0.000981 0.000000 -0.000195
v -0.000383 -0.000000 0.000924
v -0.000924 0.000000 -0.000383
v -0.000556 0.000000 0.000831
v -0.000831 -0.000000 -0.000556
v -0.000707 -0.000000 0.000707
v -0.000707 -0.000000 -0.000707
v -0.000962 0.000191 -0.000195
v -0.000906 0.000180 -0.000383
v -0.000375 0.000075 0.000924
v -0.000545 0.000108 0.000831
v -0.000815 0.000162 -0.000556
v -0.000694 0.000138 0.000707
v -0.000694 0.000138 -0.000707
v -0.000815 0.000162 0.000556
v -0.000545 0.000108 -0.000831
v -0.000906 0.000180 0.000383
v -0.000375 0.000075 -0.000924
v -0.000962 0.000191 0.000195
v -0.000191 0.000038 -0.000981
v -0.000981 0.000195 -0.000000
v -0.000191 0.000038 0.000981
v -0.000513 0.000213 -0.000831
v -0.000354 0.000146 -0.000924
v -0.000854 0.000354 0.000383
v -0.000906 0.000375 0.000195
v -0.000180 0.000075 -0.000981
v -0.000924 0.000383 -0.000000
v -0.000180 0.000075 0.000981
v -0.000906 0.000375 -0.000195
v -0.000354 0.000146 0.000924
v -0.000854 0.000354 -0.000383
v -0.000513 0.000213 0.000831
v -0.000768 0.000318 -0.000556
v -0.000653 0.000271 0.000707
v -0.000653 0.000271 -0.000707
v -0.000768 0.000318 0.000556
v -0.000318 0.000213 0.000924
v -0.000462 0.000309 0.000831
v -0.000768 0.000513 -0.000383
v -0.000691 0.000462 -0.000556
v -0.000588 0.000393 0.000707
v -0.000588 0.000393 -0.000707
v -0.000691 0.000462 0.000556
v -0.000462 0.000309 -0.000831
v -0.000768 0.000513 0.000383
v -0.000318 0.000213 -0.000924
v -0.000815 0.000545 0.000195
v -0.000162 0.000108 -0.000981
v -0.000831 0.000556 -0.000000
v -0.000162 0.000108 0.000981
v -0.000815 0.000545 -0.000195
v -0.000653 0.000653 0.000383
v -0.000694 0.000694 0.000195
v -0.000271 0.000271 -0.000924
v -0.000138 0.000138 -0.000981
v -0.000707 0.000707 -0.000000
v -0.000138 0.000138 0.000981
v -0.000694 0.000694 -0.000195
v -0.000271 0.000271 0.000924
v -0.000653 0.000653 -0.000383
v -0.000393 0.000393 0.000831
v -0.000588 0.000588 -0.000556
v -0.000500 0.000500 0.000707
v -0.000500 0.000500 -0.000707
v -0.000588 0.000588 0.000556
v -0.000393 0.000393 -0.000831
v -0.000513 0.000768 -0.000383
v -0.000462 0.000691 -0.000556
v -0.000309 0.000462 0.000831
v -0.000393 0.000588 0.000707
v -0.000393 0.000588 -0.000707
v -0.000462 0.000691 0.000556
v -0.000309 0.000462 -0.000831
v -0.000513 0.000768 0.000383
v -0.000213 0.000318 -0.000924
v -0.000545 0.000815 0.000195
v -0.000108 0.000162 -0.000981
v -0.000556 0.000831 -0.000000
v -0.000108 0.000162 0.000981
v -0.000545 0.000815 -0.000195
v -0.000213 0.000318 0.000924
v -0.000146 0.000354 -0.000924
v -0.000075 0.000180 -0.000981
v -0.000375 0.000906 0.000195
v -0.000383 0.000924 -0.000000
v -0.000075 0.000180 0.000981
v -0.000375 0.000906 -0.000195
v -0.000146 0.000354 0.000924
v -0.000354 0.000854 -0.000383
v -0.000213 0.000513 0.000831
v -0.000318 0.000768 -0.000556
v -0.000271 0.000653 0.000707
v -0.000271 0.000653 -0.000707
v -0.000318 0.000768 0.000556
v -0.000213 0.000513 -0.000831
v -0.000354 0.000854 0.000383
v -0.000162 0.000815 -0.000556
v -0.000138 0.000694 -0.000707
v -0.000138 0.000694 0.000707
v -0.000162 0.000815 0.000556
v -0.000108 0.000545 -0.000831
v -0.000180 0.000906 0.000383
v -0.000075 0.000375 -0.000924
v -0.000191 0.000962 0.000195
v -0.000038 0.000191 -0.000981
v -0.000195 0.000981 -0.000000
v -0.000038 0.000191 0.000981
v -0.000191 0.000962 -0.000195
v -0.000075 0.000375 0.000924
v -0.000180 0.000906 -0.000383
v -0.000108 0.000545 0.000831
vn 0.0975 0.9904 0.0975
vn 0.0975 0.9904 0.0976
vn 0.0096 0.0980 0.9951
vn 0.0097 0.0980 -0.9951
vn 0.0975 0.9904 -0.0975
vn 0.0286 0.2902 0.9565
vn 0.0938 0.9527 -0.2890
vn 0.0464 0.4709 0.8810
vn 0.0865 0.8786 -0.4696
vn 0.0624 0.6332 0.7715
vn 0.0759 0.7708 -0.6326
vn 0.0759 0.7708 0.6326
vn 0.0624 0.6332 -0.7715
vn 0.0865 0.8786 0.4696
vn 0.0464 0.4709 -0.8810
vn 0.0938 0.9527 0.2890
vn 0.0286 0.2902 -0.9565
vn 0.1374 0.4528 -0.8810
vn 0.2779 0.9161 0.2890
vn 0.0846 0.2790 -0.9565
vn 0.2889 0.9524 0.0975
vn 0.2889 0.9524 0.0976
vn 0.0286 0.0942 0.9951
vn 0.0286 0.0942 -0.9951
vn 0.2889 0.9524 -0.0976
vn 0.2889 0.9524 -0.0975
vn 0.0846 0.2790 0.9565
vn 0.2779 0.9161 -0.2890
vn 0.1374 0.4528 0.8810
vn 0.2563 0.8448 -0.4696
vn 0.1847 0.6088 0.7715
vn 0.2248 0.7412 -0.6326
vn 0.2248 0.7412 0.6326
vn 0.1847 0.6088 -0.7715
vn 0.2563 0.8448 0.4696
vn 0.4162 0.7786 -0.4696
vn 0.2999 0.5611 0.7715
vn 0.3651 0.6831 -0.6326
vn 0.3651 0.6831 0.6326
vn 0.2999 0.5611 -0.7715
vn 0.4162 0.7786 0.4696
vn 0.2231 0.4173 -0.8810
vn 0.2230 0.4173 -0.8810
vn 0.4513 0.8443 0.2890
vn 0.1374 0.2571 -0.9565
vn 0.4691 0.8777 0.0975
vn 0.0464 0.0869 0.9951
vn 0.0464 0.0869 -0.9951
vn 0.4691 0.8777 -0.0975
vn 0.1374 0.2571 0.9565
vn 0.4513 0.8443 -0.2890
vn 0.2230 0.4173 0.8810
vn 0.2231 0.4173 0.8810
vn 0.1850 0.2254 -0.9565
vn 0.1850 0.2254 -0.9566
vn 0.6314 0.7693 0.0975
vn 0.0625 0.0761 0.9951
vn 0.0625 0.0761 -0.9951
vn 0.6314 0.7693 -0.0975
vn 0.1850 0.2254 0.9565
vn 0.6073 0.7400 -0.2890
vn 0.3002 0.3658 0.8810
vn 0.5601 0.6825 -0.4696
vn 0.4036 0.4918 0.7715
vn 0.4913 0.5987 -0.6326
vn 0.4913 0.5987 0.6326
vn 0.4036 0.4918 -0.7715
vn 0.5601 0.6825 0.4696
vn 0.3002 0.3658 -0.8810
vn 0.6073 0.7400 0.2890
vn 0.4918 0.4036 0.7715
vn 0.5987 0.4913 -0.6326
vn 0.5987 0.4913 0.6326
vn 0.4918 0.4036 -0.7715
vn 0.6825 0.5601 0.4696
vn 0.3658 0.3002 -0.8810
vn 0.7400 0.6073 0.2890
vn 0.2254 0.1850 -0.9565
vn 0.7693 0.6314 0.0975
vn 0.0761 0.0625 0.9951
vn 0.0761 0.0625 -0.9951
vn 0.7693 0.6314 -0.0975
vn 0.2254 0.1850 0.9565
vn 0.7400 0.6073 -0.2890
vn 0.3658 0.3002 0.8810
vn 0.6825 0.5601 -0.4696
vn 0.8777 0.4691 0.0975
vn 0.0869 0.0464 0.9951
vn 0.0869 0.0464 -0.9951
vn 0.8777 0.4691 -0.0975
vn 0.2571 0.1374 0.9565
vn 0.2571 0.1374 0.9566
vn 0.8443 0.4513 -0.2890
vn 0.4173 0.2230 0.8810
vn 0.7786 0.4162 -0.4696
vn 0.5611 0.2999 0.7715
vn 0.6831 0.3651 -0.6326
vn 0.6831 0.3651 0.6326
vn 0.5611 0.2999 -0.7715
vn 0.7786 0.4162 0.4696
vn 0.4173 0.2230 -0.8810
vn 0.4173 0.2231 -0.8810
vn 0.8443 0.4513 0.2890
vn 0.2571 0.1374 -0.9565
vn 0.7412 0.2248 -0.6326
vn 0.7412 0.2248 0.6326
vn 0.6088 0.1847 -0.7715
vn 0.8448 0.2563 0.4696
vn 0.4528 0.1374 -0.8810
vn 0.9161 0.2779 0.2890
vn 0.2790 0.0846 -0.9565
vn 0.9524 0.2889 0.0975
vn 0.0942 0.0286 0.9951
vn 0.0942 0.0286 -0.9951
vn 0.9524 0.2889 -0.0975
vn 0.2790 0.0846 0.9565
vn 0.9161 0.2779 -0.2890
vn 0.4528 0.1374 0.8810
vn 0.8448 0.2563 -0.4696
vn 0.6088 0.1847 0.7715
vn 0.0980 0.0097 0.9951
vn 0.0980 0.0097 -0.9951
vn 0.9904 0.0975 -0.0975
vn 0.2902 0.0286 0.9565
vn 0.2902 0.0286 0.9566
vn 0.9527 0.0938 -0.2890
vn 0.4709 0.0464 0.8810
vn 0.8786 0.0865 -0.4696
vn 0.6332 0.0624 0.7715
vn 0.7708 0.0759 -0.6326
vn 0.7708 0.0759 0.6326
vn 0.6332 0.0624 -0.7715
vn 0.8786 0.0865 0.4696
vn 0.4709 0.0464 -0.8810
vn 0.9527 0.0938 0.2890
vn 0.2902 0.0286 -0.9566
vn 0.2902 0.0286 -0.9565
vn 0.9904 0.0975 0.0975
vn 0.7708 -0.0759 0.6326
vn 0.6332 -0.0624 -0.7715
vn 0.8786 -0.0865 0.4696
vn 0.4709 -0.0464 -0.8810
vn 0.9527 -0.0938 0.2890
vn 0.2902 -0.0286 -0.9565
vn 0.2902 -0.0286 -0.9566
vn 0.9904 -0.0975 0.0975
vn 0.9904 -0.0976 0.0975
vn 0.0980 -0.0097 0.9951
vn 0.0980 -0.0097 -0.9951
vn 0.9904 -0.0975 -0.0975
vn 0.2902 -0.0286 0.9565
vn 0.9527 -0.0938 -0.2890
vn 0.4709 -0.0464 0.8810
vn 0.8786 -0.0865 -0.4696
vn 0.6332 -0.0624 0.7715
vn 0.7708 -0.0759 -0.6326
vn 0.9524 -0.2889 -0.0975
vn 0.2790 -0.0846 0.9565
vn 0.9161 -0.2779 -0.2890
vn 0.4528 -0.1374 0.8810
vn 0.8448 -0.2563 -0.4696
vn 0.6088 -0.1847 0.7715
vn 0.7412 -0.2248 -0.6326
vn 0.7412 -0.2248 0.6326
vn 0.6088 -0.1847 -0.7715
vn 0.8448 -0.2563 0.4696
vn 0.4528 -0.1374 -0.8810
vn 0.9161 -0.2779 0.2890
vn 0.2790 -0.0846 -0.9565
vn 0.9524 -0.2889 0.0975
vn 0.0942 -0.0286 0.9951
vn 0.0942 -0.0286 -0.9951
vn 0.5611 -0.2999 -0.7715
vn 0.7786 -0.4162 0.4696
vn 0.4173 -0.2231 -0.8810
vn 0.4173 -0.2230 -0.8810
vn 0.8443 -0.4513 0.2890
vn 0.2571 -0.1374 -0.9565
vn 0.8777 -0.4691 0.0975
vn 0.0869 -0.0464 0.9951
vn 0.0869 -0.0464 -0.9951
vn 0.8777 -0.4691 -0.0975
vn 0.2571 -0.1374 0.9565
vn 0.8443 -0.4513 -0.2890
vn 0.4173 -0.2231 0.8810
vn 0.4173 -0.2230 0.8810
vn 0.7786 -0.4162 -0.4696
vn 0.5611 -0.2999 0.7715
vn 0.6831 -0.3651 -0.6326
vn 0.6831 -0.3651 0.6326
vn 0.7400 -0.6073 -0.2890
vn 0.3658 -0.3002 0.8810
vn 0.6825 -0.5601 -0.4696
vn 0.4918 -0.4036 0.7715
vn 0.5987 -0.4913 -0.6326
vn 0.5987 -0.4913 0.6326
vn 0.4918 -0.4036 -0.7715
vn 0.6825 -0.5601 0.4696
vn 0.3658 -0.3002 -0.8810
vn 0.7400 -0.6073 0.2890
vn 0.2254 -0.1850 -0.9565
vn 0.2254 -0.1850 -0.9566
vn 0.7693 -0.6314 0.0975
vn 0.0761 -0.0625 0.9951
vn 0.0761 -0.0625 -0.9951
vn 0.7693 -0.6314 -0.0975
vn 0.2254 -0.1850 0.9565
vn 0.3002 -0.3658 -0.8810
vn 0.6073 -0.7400 0.2890
vn 0.1850 -0.2254 -0.9565
vn 0.6314 -0.7693 0.0975
vn 0.0625 -0.0761 0.9951
vn 0.0625 -0.0761 -0.9951
vn 0.6314 -0.7693 -0.0975
vn 0.1850 -0.2254 0.9565
vn 0.6073 -0.7400 -0.2890
vn 0.3002 -0.3658 0.8810
vn 0.5601 -0.6825 -0.4696
vn 0.4036 -0.4918 0.7715
vn 0.4913 -0.5987 -0.6326
vn 0.4913 -0.5987 0.6326
vn 0.4036 -0.4918 -0.7715
vn 0.5601 -0.6825 0.4696
vn 0.2231 -0.4173 0.8810
vn 0.2230 -0.4173 0.8810
vn 0.4162 -0.7786 -0.4696
vn 0.2999 -0.5611 0.7715
vn 0.3651 -0.6831 -0.6326
vn 0.3651 -0.6831 0.6326
vn 0.2999 -0.5611 -0.7715
vn 0.4162 -0.7786 0.4696
vn 0.2230 -0.4173 -0.8810
vn 0.4513 -0.8443 0.2890
vn 0.1374 -0.2571 -0.9565
vn 0.4691 -0.8777 0.0975
vn 0.0464 -0.0869 0.9951
vn 0.0464 -0.0869 -0.9951
vn 0.4691 -0.8777 -0.0975
vn 0.1374 -0.2571 0.9565
vn 0.4513 -0.8443 -0.2890
vn 0.2779 -0.9161 0.2890
vn 0.0846 -0.2790 -0.9565
vn 0.2889 -0.9524 0.0975
vn 0.0286 -0.0942 0.9951
vn 0.0286 -0.0942 -0.9951
vn 0.2889 -0.9524 -0.0975
vn 0.0846 -0.2790 0.9565
vn 0.2779 -0.9161 -0.2890
vn 0.1374 -0.4528 0.8810
vn 0.2563 -0.8448 -0.4696
vn 0.1847 -0.6088 0.7715
vn 0.2248 -0.7412 -0.6326
vn 0.2248 -0.7412 0.6326
vn 0.1847 -0.6088 -0.7715
vn 0.2563 -0.8448 0.4696
vn 0.1374 -0.4528 -0.8810
vn 0.0865 -0.8786 -0.4696
vn 0.0624 -0.6332 0.7715
vn 0.0759 -0.7708 -0.6326
vn 0.0759 -0.7708 0.6326
vn 0.0624 -0.6332 -0.7715
vn 0.0865 -0.8786 0.4696
vn 0.0464 -0.4709 -0.8810
vn 0.0938 -0.9527 0.2890
vn 0.0286 -0.2902 -0.9565
vn 0.0975 -0.9904 0.0975
vn 0.0096 -0.0980 0.9951
vn 0.0097 -0.0980 -0.9951
vn 0.0975 -0.9904 -0.0975
vn 0.0286 -0.2902 0.9565
vn 0.0938 -0.9527 -0.2890
vn 0.0464 -0.4709 0.8810
vn -0.0286 -0.2902 -0.9565
vn -0.0975 -0.9904 0.0975
vn -0.0976 -0.9904 0.0975
vn -0.0096 -0.0980 0.9951
vn -0.0097 -0.0980 -0.9951
vn -0.0976 -0.9904 -0.0975
vn -0.0975 -0.9904 -0.0975
vn -0.0286 -0.2902 0.9565
vn -0.0938 -0.9527 -0.2890
vn -0.0464 -0.4709 0.8810
vn -0.0865 -0.8786 -0.4696
vn -0.0624 -0.6332 0.7715
vn -0.0759 -0.7708 -0.6326
vn -0.0759 -0.7708 0.6326
vn -0.0624 -0.6332 -0.7715
vn -0.0865 -0.8786 0.4696
vn -0.0464 -0.4709 -0.8810
vn -0.0938 -0.9527 0.2890
vn -0.1847 -0.6088 0.7715
vn -0.2248 -0.7412 -0.6326
vn -0.2248 -0.7412 0.6326
vn -0.1847 -0.6088 -0.7715
vn -0.2563 -0.8448 0.4696
vn -0.1374 -0.4528 -0.8810
vn -0.2779 -0.9161 0.2890
vn -0.0846 -0.2790 -0.9565
vn -0.2889 -0.9524 0.0975
vn -0.0286 -0.0942 0.9951
vn -0.0286 -0.0942 -0.9951
vn -0.2889 -0.9524 -0.0975
vn -0.0846 -0.2790 0.9565
vn -0.2779 -0.9161 -0.2890
vn -0.1374 -0.4528 0.8810
vn -0.2563 -0.8448 -0.4696
vn -0.4691 -0.8777 0.0975
vn -0.0464 -0.0869 0.9951
vn -0.0464 -0.0869 -0.9951
vn -0.4691 -0.8777 -0.0975
vn -0.1374 -0.2571 0.9565
vn -0.4513 -0.8443 -0.2890
vn -0.2231 -0.4173 0.8810
vn -0.2230 -0.4173 0.8810
vn -0.4162 -0.7786 -0.4696
vn -0.2999 -0.5611 0.7715
vn -0.3651 -0.6831 -0.6326
vn -0.3651 -0.6831 0.6326
vn -0.2999 -0.5611 -0.7715
vn -0.4162 -0.7786 0.4696
vn -0.2231 -0.4173 -0.8810
vn -0.2230 -0.4173 -0.8810
vn -0.4513 -0.8443 0.2890
vn -0.1374 -0.2571 -0.9565
vn -0.4913 -0.5987 -0.6326
vn -0.4913 -0.5987 0.6326
vn -0.4036 -0.4918 -0.7715
vn -0.5601 -0.6825 0.4696
vn -0.3002 -0.3658 -0.8810
vn -0.6073 -0.7400 0.2890
vn -0.1850 -0.2254 -0.9565
vn -0.6314 -0.7693 0.0975
vn -0.0625 -0.0761 0.9951
vn -0.0625 -0.0761 -0.9951
vn -0.6314 -0.7693 -0.0975
vn -0.1850 -0.2254 0.9565
vn -0.6073 -0.7400 -0.2890
vn -0.3002 -0.3658 0.8810
vn -0.5601 -0.6825 -0.4696
vn -0.4036 -0.4918 0.7715
vn -0.0761 -0.0625 -0.9951
vn -0.7693 -0.6314 -0.0975
vn -0.2254 -0.1850 0.9565
vn -0.7400 -0.6073 -0.2890
vn -0.3658 -0.3002 0.8810
vn -0.6825 -0.5601 -0.4696
vn -0.4918 -0.4036 0.7715
vn -0.5987 -0.4913 -0.6326
vn -0.5987 -0.4913 0.6326
vn -0.4918 -0.4036 -0.7715
vn -0.6825 -0.5601 0.4696
vn -0.3658 -0.3002 -0.8810
vn -0.7400 -0.6073 0.2890
vn -0.2254 -0.1850 -0.9565
vn -0.7693 -0.6314 0.0975
vn -0.0761 -0.0625 0.9951
vn -0.5611 -0.2999 -0.7715
vn -0.7786 -0.4162 0.4696
vn -0.4173 -0.2230 -0.8810
vn -0.8443 -0.4513 0.2890
vn -0.2571 -0.1374 -0.9565
vn -0.8777 -0.4691 0.0975
vn -0.0869 -0.0464 0.9951
vn -0.0869 -0.0464 -0.9951
vn -0.8777 -0.4691 -0.0975
vn -0.2571 -0.1374 0.9565
vn -0.8443 -0.4513 -0.2890
vn -0.4173 -0.2231 0.8810
vn -0.4173 -0.2230 0.8810
vn -0.7786 -0.4162 -0.4696
vn -0.5611 -0.2999 0.7715
vn -0.6831 -0.3651 -0.6326
vn -0.6831 -0.3651 0.6326
vn -0.2790 -0.0846 0.9565
vn -0.9161 -0.2779 -0.2890
vn -0.4528 -0.1374 0.8810
vn -0.8448 -0.2563 -0.4696
vn -0.6088 -0.1847 0.7715
vn -0.7412 -0.2248 -0.6326
vn -0.7412 -0.2248 0.6326
vn -0.6088 -0.1847 -0.7715
vn -0.8448 -0.2563 0.4696
vn -0.4528 -0.1374 -0.8810
vn -0.9161 -0.2779 0.2890
vn -0.2790 -0.0846 -0.9565
vn -0.9524 -0.2889 0.0975
vn -0.0942 -0.0286 0.9951
vn -0.0942 -0.0286 -0.9951
vn -0.9524 -0.2889 -0.0975
vn -0.8786 -0.0865 0.4696
vn -0.4709 -0.0464 -0.8810
vn -0.9527 -0.0938 0.2890
vn -0.2902 -0.0286 -0.9565
vn -0.9904 -0.0975 0.0975
vn -0.0980 -0.0097 0.9951
vn -0.0980 -0.0097 -0.9951
vn -0.9904 -0.0975 -0.0975
vn -0.2902 -0.0286 0.9565
vn -0.9527 -0.0938 -0.2890
vn -0.4709 -0.0464 0.8810
vn -0.8786 -0.0865 -0.4696
vn -0.6332 -0.0624 0.7715
vn -0.7708 -0.0759 -0.6326
vn -0.7708 -0.0759 0.6326
vn -0.6332 -0.0624 -0.7715
vn -0.9527 0.0938 -0.2890
vn -0.4709 0.0464 0.8810
vn -0.8786 0.0865 -0.4696
vn -0.6332 0.0624 0.7715
vn -0.7708 0.0759 -0.6326
vn -0.7708 0.0759 0.6326
vn -0.6332 0.0624 -0.7715
vn -0.8786 0.0865 0.4696
vn -0.4709 0.0464 -0.8810
vn -0.9527 0.0938 0.2890
vn -0.2902 0.0286 -0.9565
vn -0.9904 0.0975 0.0975
vn -0.0980 0.0097 0.9951
vn -0.0980 0.0097 -0.9951
vn -0.9904 0.0976 -0.0975
vn -0.9904 0.0975 -0.0975
vn -0.2902 0.0286 0.9565
vn -0.4528 0.1374 -0.8810
vn -0.9161 0.2779 0.2890
vn -0.2790 0.0846 -0.9565
vn -0.9524 0.2889 0.0975
vn -0.0942 0.0286 0.9951
vn -0.0942 0.0286 -0.9951
vn -0.9524 0.2889 -0.0975
vn -0.2790 0.0846 0.9565
vn -0.9161 0.2779 -0.2890
vn -0.4528 0.1374 0.8810
vn -0.8448 0.2563 -0.4696
vn -0.6088 0.1847 0.7715
vn -0.7412 0.2248 -0.6326
vn -0.7412 0.2248 0.6326
vn -0.6088 0.1847 -0.7715
vn -0.8448 0.2563 0.4696
vn -0.4173 0.2231 0.8810
vn -0.4173 0.2230 0.8810
vn -0.7786 0.4162 -0.4696
vn -0.5611 0.2999 0.7715
vn -0.6831 0.3651 -0.6326
vn -0.6831 0.3651 0.6326
vn -0.5611 0.2999 -0.7715
vn -0.7786 0.4162 0.4696
vn -0.4173 0.2230 -0.8810
vn -0.4173 0.2231 -0.8810
vn -0.8443 0.4513 0.2890
vn -0.2571 0.1374 -0.9566
vn -0.2571 0.1374 -0.9565
vn -0.8777 0.4691 0.0975
vn -0.0869 0.0464 0.9951
vn -0.0869 0.0464 -0.9951
vn -0.8777 0.4691 -0.0975
vn -0.2571 0.1374 0.9565
vn -0.8443 0.4513 -0.2890
vn -0.7400 0.6073 0.2890
vn -0.2254 0.1850 -0.9565
vn -0.2254 0.1850 -0.9566
vn -0.7693 0.6314 0.0975
vn -0.0761 0.0625 0.9951
vn -0.0761 0.0625 -0.9951
vn -0.7693 0.6314 -0.0975
vn -0.2254 0.1850 0.9565
vn -0.7400 0.6073 -0.2890
vn -0.3658 0.3002 0.8810
vn -0.6825 0.5601 -0.4696
vn -0.4918 0.4036 0.7715
vn -0.5987 0.4913 -0.6326
vn -0.5987 0.4913 0.6326
vn -0.4918 0.4036 -0.7715
vn -0.6825 0.5601 0.4696
vn -0.3658 0.3002 -0.8810
vn -0.5601 0.6825 -0.4696
vn -0.4036 0.4918 0.7715
vn -0.4913 0.5987 -0.6326
vn -0.4913 0.5987 0.6326
vn -0.4036 0.4918 -0.7715
vn -0.5601 0.6825 0.4696
vn -0.3002 0.3658 -0.8810
vn -0.6073 0.7400 0.2890
vn -0.1850 0.2254 -0.9565
vn -0.6314 0.7693 0.0975
vn -0.0625 0.0761 0.9951
vn -0.0625 0.0761 -0.9951
vn -0.6314 0.7693 -0.0975
vn -0.1850 0.2254 0.9565
vn -0.6073 0.7400 -0.2890
vn -0.3002 0.3658 0.8810
vn -0.1374 0.2571 -0.9565
vn -0.4691 0.8777 0.0975
vn -0.0464 0.0869 0.9951
vn -0.0464 0.0869 -0.9951
vn -0.4691 0.8777 -0.0975
vn -0.1374 0.2571 0.9565
vn -0.4513 0.8443 -0.2890
vn -0.2231 0.4173 0.8810
vn -0.2230 0.4173 0.8810
vn -0.4162 0.7786 -0.4696
vn -0.2999 0.5611 0.7715
vn -0.3651 0.6831 -0.6326
vn -0.3651 0.6831 0.6326
vn -0.2999 0.5611 -0.7715
vn -0.4162 0.7786 0.4696
vn -0.2231 0.4173 -0.8810
vn -0.2230 0.4173 -0.8810
vn -0.4513 0.8443 0.2890
vn -0.2248 0.7412 -0.6326
vn -0.2248 0.7412 0.6326
vn -0.1847 0.6088 -0.7715
vn -0.2563 0.8448 0.4696
vn -0.1374 0.4528 -0.8810
vn -0.2779 0.9161 0.2890
vn -0.0846 0.2790 -0.9565
vn -0.2889 0.9524 0.0975
vn -0.0286 0.0942 0.9951
vn -0.0286 0.0942 -0.9951
vn -0.2889 0.9524 -0.0975
vn -0.0846 0.2790 0.9565
vn -0.2779 0.9161 -0.2890
vn -0.1374 0.4528 0.8810
vn -0.2563 0.8448 -0.4696
vn -0.1847 0.6088 0.7715
vn -0.0096 0.0980 0.9951
vn -0.0097 0.0980 -0.9951
vn -0.0975 0.9904 -0.0975
vn -0.0286 0.2902 0.9565
vn -0.0938 0.9527 -0.2890
vn -0.0464 0.4709 0.8810
vn -0.0865 0.8786 -0.4696
vn -0.0624 0.6332 0.7715
vn -0.0759 0.7708 -0.6326
vn -0.0759 0.7708 0.6326
vn -0.0624 0.6332 -0.7715
vn -0.0865 0.8786 0.4696
vn -0.0464 0.4709 -0.8810
vn -0.0938 0.9527 0.2890
vn -0.0286 0.2902 -0.9565
vn -0.0976 0.9904 0.0975
vn -0.0975 0.9904 0.0975
usemtl None
s off
f 1//1 2//1 3//1
f 1//2 3//2 4//2
f 5//3 6//3 7//3
f 8//4 9//4 10//4
f 11//5 1//5 4//5
f 11//5 4//5 12//5
f 13//6 5//6 7//6
f 13//6 7//6 14//6
f 15//7 11//7 12//7
f 15//7 12//7 16//7
f 17//8 13//8 14//8
f 17//8 14//8 18//8
f 19//9 15//9 16//9
f 19//9 16//9 20//9
f 21//10 17//10 18//10
f 21//10 18//10 22//10
f 23//11 19//11 20//11
f 23//11 20//11 24//11
f 25//12 21//12 22//12
f 25//12 22//12 26//12
f 27//13 23//13 24//13
f 27//13 24//13 28//13
f 29//14 25//14 26//14
f 29//14 26//14 30//14
f 31//15 27//15 28//15
f 31//15 28//15 32//15
f 2//16 29//16 30//16
f 2//16 30//16 3//16
f 9//17 31//17 32//17
f 9//17 32//17 10//17
f 32//18 28//18 33//18
f 32//18 33//18 34//18
f 3//19 30//19 35//19
f 3//19 35//19 36//19
f 10//20 32//20 34//20
f 10//20 34//20 37//20
f 4//21 3//21 36//21
f 4//22 36//22 38//22
f 7//23 6//23 39//23
f 8//24 10//24 37//24
f 12//25 4//25 38//25
f 12//26 38//26 40//26
f 14//27 7//27 39//27
f 14//27 39//27 41//27
f 16//28 12//28 40//28
f 16//28 40//28 42//28
f 18//29 14//29 41//29
f 18//29 41//29 43//29
f 20//30 16//30 42//30
f 20//30 42//30 44//30
f 22//31 18//31 43//31
f 22//31 43//31 45//31
f 24//32 20//32 44//32
f 24//32 44//32 46//32
f 26//33 22//33 45//33
f 26//33 45//33 47//33
f 28//34 24//34 46//34
f 28//34 46//34 33//34
f 30//35 26//35 47//35
f 30//35 47//35 35//35
f 44//36 42//36 48//36
f 44//36 48//36 49//36
f 45//37 43//37 50//37
f 45//37 50//37 51//37
f 46//38 44//38 49//38
f 46//38 49//38 52//38
f 47//39 45//39 51//39
f 47//39 51//39 53//39
f 33//40 46//40 52//40
f 33//40 52//40 54//40
f 35//41 47//41 53//41
f 35//41 53//41 55//41
f 34//42 33//42 54//42
f 34//43 54//43 56//43
f 36//44 35//44 55//44
f 36//44 55//44 57//44
f 37//45 34//45 56//45
f 37//45 56//45 58//45
f 38//46 36//46 57//46
f 38//46 57//46 59//46
f 39//47 6//47 60//47
f 8//48 37//48 58//48
f 40//49 38//49 59//49
f 40//49 59//49 61//49
f 41//50 39//50 60//50
f 41//50 60//50 62//50
f 42//51 40//51 61//51
f 42//51 61//51 48//51
f 43//52 41//52 62//52
f 43//53 62//53 50//53
f 58//54 56//54 63//54
f 58//55 63//55 64//55
f 59//56 57//56 65//56
f 59//56 65//56 66//56
f 60//57 6//57 67//57
f 8//58 58//58 64//58
f 61//59 59//59 66//59
f 61//59 66//59 68//59
f 62//60 60//60 67//60
f 62//60 67//60 69//60
f 48//61 61//61 68//61
f 48//61 68//61 70//61
f 50//62 62//62 69//62
f 50//62 69//62 71//62
f 49//63 48//63 70//63
f 49//63 70//63 72//63
f 51//64 50//64 71//64
f 51//64 71//64 73//64
f 52//65 49//65 72//65
f 52//65 72//65 74//65
f 53//66 51//66 73//66
f 53//66 73//66 75//66
f 54//67 52//67 74//67
f 54//67 74//67 76//67
f 55//68 53//68 75//68
f 55//68 75//68 77//68
f 56//69 54//69 76//69
f 56//69 76//69 63//69
f 57//70 55//70 77//70
f 57//70 77//70 65//70
f 73//71 71//71 78//71
f 73//71 78//71 79//71
f 74//72 72//72 80//72
f 74//72 80//72 81//72
f 75//73 73//73 79//73
f 75//73 79//73 82//73
f 76//74 74//74 81//74
f 76//74 81//74 83//74
f 77//75 75//75 82//75
f 77//75 82//75 84//75
f 63//76 76//76 83//76
f 63//76 83//76 85//76
f 65//77 77//77 84//77
f 65//77 84//77 86//77
f 64//78 63//78 85//78
f 64//78 85//78 87//78
f 66//79 65//79 86//79
f 66//79 86//79 88//79
f 67//80 6//80 89//80
f 8//81 64//81 87//81
f 68//82 66//82 88//82
f 68//82 88//82 90//82
f 69//83 67//83 89//83
f 69//83 89//83 91//83
f 70//84 68//84 90//84
f 70//84 90//84 92//84
f 71//85 69//85 91//85
f 71//85 91//85 78//85
f 72//86 70//86 92//86
f 72//86 92//86 80//86
f 88//87 86//87 93//87
f 88//87 93//87 94//87
f 89//88 6//88 95//88
f 8//89 87//89 96//89
f 90//90 88//90 94//90
f 90//90 94//90 97//90
f 91//91 89//91 95//91
f 91//92 95//92 98//92
f 92//93 90//93 97//93
f 92//93 97//93 99//93
f 78//94 91//94 98//94
f 78//94 98//94 100//94
f 80//95 92//95 99//95
f 80//95 99//95 101//95
f 79//96 78//96 100//96
f 79//96 100//96 102//96
f 81//97 80//97 101//97
f 81//97 101//97 103//97
f 82//98 79//98 102//98
f 82//98 102//98 104//98
f 83//99 81//99 103//99
f 83//99 103//99 105//99
f 84//100 82//100 104//100
f 84//100 104//100 106//100
f 85//101 83//101 105//101
f 85//102 105//102 107//102
f 86//103 84//103 106//103
f 86//103 106//103 93//103
f 87//104 85//104 107//104
f 87//104 107//104 96//104
f 103//105 101//105 108//105
f 103//105 108//105 109//105
f 104//106 102//106 110//106
f 104//106 110//106 111//106
f 105//107 103//107 109//107
f 105//107 109//107 112//107
f 106//108 104//108 111//108
f 106//108 111//108 113//108
f 107//109 105//109 112//109
f 107//109 112//109 114//109
f 93//110 106//110 113//110
f 93//110 113//110 115//110
f 96//111 107//111 114//111
f 96//111 114//111 116//111
f 94//112 93//112 115//112
f 94//112 115//112 117//112
f 95//113 6//113 118//113
f 8//114 96//114 116//114
f 97//115 94//115 117//115
f 97//115 117//115 119//115
f 98//116 95//116 118//116
f 98//116 118//116 120//116
f 99//117 97//117 119//117
f 99//117 119//117 121//117
f 100//118 98//118 120//118
f 100//118 120//118 122//118
f 101//119 99//119 121//119
f 101//119 121//119 108//119
f 102//120 100//120 122//120
f 102//120 122//120 110//120
f 118//121 6//121 123//121
f 8//122 116//122 124//122
f 119//123 117//123 125//123
f 119//123 125//123 126//123
f 120//124 118//124 123//124
f 120//125 123//125 127//125
f 121//126 119//126 126//126
f 121//126 126//126 128//126
f 122//127 120//127 127//127
f 122//127 127//127 129//127
f 108//128 121//128 128//128
f 108//128 128//128 130//128
f 110//129 122//129 129//129
f 110//129 129//129 131//129
f 109//130 108//130 130//130
f 109//130 130//130 132//130
f 111//131 110//131 131//131
f 111//131 131//131 133//131
f 112//132 109//132 132//132
f 112//132 132//132 134//132
f 113//133 111//133 133//133
f 113//133 133//133 135//133
f 114//134 112//134 134//134
f 114//134 134//134 136//134
f 115//135 113//135 135//135
f 115//135 135//135 137//135
f 116//136 114//136 136//136
f 116//137 136//137 124//137
f 117//138 115//138 137//138
f 117//138 137//138 125//138
f 133//139 131//139 138//139
f 133//139 138//139 139//139
f 134//140 132//140 140//140
f 134//140 140//140 141//140
f 135//141 133//141 139//141
f 135//141 139//141 142//141
f 136//142 134//142 141//142
f 136//142 141//142 143//142
f 137//143 135//143 142//143
f 137//143 142//143 144//143
f 124//144 136//144 143//144
f 124//145 143//145 145//145
f 125//146 137//146 144//146
f 125//147 144//147 146//147
f 123//148 6//148 147//148
f 8//149 124//149 145//149
f 126//150 125//150 146//150
f 126//150 146//150 148//150
f 127//151 123//151 147//151
f 127//151 147//151 149//151
f 128//152 126//152 148//152
f 128//152 148//152 150//152
f 129//153 127//153 149//153
f 129//153 149//153 151//153
f 130//154 128//154 150//154
f 130//154 150//154 152//154
f 131//155 129//155 151//155
f 131//155 151//155 138//155
f 132//156 130//156 152//156
f 132//156 152//156 140//156
f 148//157 146//157 153//157
f 148//157 153//157 154//157
f 149//158 147//158 155//158
f 149//158 155//158 156//158
f 150//159 148//159 154//159
f 150//159 154//159 157//159
f 151//160 149//160 156//160
f 151//160 156//160 158//160
f 152//161 150//161 157//161
f 152//161 157//161 159//161
f 138//162 151//162 158//162
f 138//162 158//162 160//162
f 140//163 152//163 159//163
f 140//163 159//163 161//163
f 139//164 138//164 160//164
f 139//164 160//164 162//164
f 141//165 140//165 161//165
f 141//165 161//165 163//165
f 142//166 139//166 162//166
f 142//166 162//166 164//166
f 143//167 141//167 163//167
f 143//167 163//167 165//167
f 144//168 142//168 164//168
f 144//168 164//168 166//168
f 145//169 143//169 165//169
f 145//169 165//169 167//169
f 146//170 144//170 166//170
f 146//170 166//170 153//170
f 147//171 6//171 155//171
f 8//172 145//172 167//172
f 163//173 161//173 168//173
f 163//173 168//173 169//173
f 164//174 162//174 170//174
f 164//174 170//174 171//174
f 165//175 163//175 169//175
f 165//176 169//176 172//176
f 166//177 164//177 171//177
f 166//177 171//177 173//177
f 167//178 165//178 172//178
f 167//178 172//178 174//178
f 153//179 166//179 173//179
f 153//179 173//179 175//179
f 155//180 6//180 176//180
f 8//181 167//181 174//181
f 154//182 153//182 175//182
f 154//182 175//182 177//182
f 156//183 155//183 176//183
f 156//183 176//183 178//183
f 157//184 154//184 177//184
f 157//184 177//184 179//184
f 158//185 156//185 178//185
f 158//186 178//186 180//186
f 159//187 157//187 179//187
f 159//187 179//187 181//187
f 160//188 158//188 180//188
f 160//188 180//188 182//188
f 161//189 159//189 181//189
f 161//189 181//189 168//189
f 162//190 160//190 182//190
f 162//190 182//190 170//190
f 179//191 177//191 183//191
f 179//191 183//191 184//191
f 180//192 178//192 185//192
f 180//192 185//192 186//192
f 181//193 179//193 184//193
f 181//193 184//193 187//193
f 182//194 180//194 186//194
f 182//194 186//194 188//194
f 168//195 181//195 187//195
f 168//195 187//195 189//195
f 170//196 182//196 188//196
f 170//196 188//196 190//196
f 169//197 168//197 189//197
f 169//197 189//197 191//197
f 171//198 170//198 190//198
f 171//198 190//198 192//198
f 172//199 169//199 191//199
f 172//199 191//199 193//199
f 173//200 171//200 192//200
f 173//200 192//200 194//200
f 174//201 172//201 193//201
f 174//202 193//202 195//202
f 175//203 173//203 194//203
f 175//203 194//203 196//203
f 176//204 6//204 197//204
f 8//205 174//205 195//205
f 177//206 175//206 196//206
f 177//206 196//206 183//206
f 178//207 176//207 197//207
f 178//207 197//207 185//207
f 193//208 191//208 198//208
f 193//208 198//208 199//208
f 194//209 192//209 200//209
f 194//209 200//209 201//209
f 195//210 193//210 199//210
f 195//210 199//210 202//210
f 196//211 194//211 201//211
f 196//211 201//211 203//211
f 197//212 6//212 204//212
f 8//213 195//213 202//213
f 183//214 196//214 203//214
f 183//214 203//214 205//214
f 185//215 197//215 204//215
f 185//215 204//215 206//215
f 184//216 183//216 205//216
f 184//216 205//216 207//216
f 186//217 185//217 206//217
f 186//217 206//217 208//217
f 187//218 184//218 207//218
f 187//218 207//218 209//218
f 188//219 186//219 208//219
f 188//219 208//219 210//219
f 189//220 187//220 209//220
f 189//220 209//220 211//220
f 190//221 188//221 210//221
f 190//221 210//221 212//221
f 191//222 189//222 211//222
f 191//222 211//222 198//222
f 192//223 190//223 212//223
f 192//223 212//223 200//223
f 208//224 206//224 213//224
f 208//225 213//225 214//225
f 209//226 207//226 215//226
f 209//226 215//226 216//226
f 210//227 208//227 214//227
f 210//227 214//227 217//227
f 211//228 209//228 216//228
f 211//228 216//228 218//228
f 212//229 210//229 217//229
f 212//229 217//229 219//229
f 198//230 211//230 218//230
f 198//230 218//230 220//230
f 200//231 212//231 219//231
f 200//231 219//231 221//231
f 199//232 198//232 220//232
f 199//232 220//232 222//232
f 201//233 200//233 221//233
f 201//233 221//233 223//233
f 202//234 199//234 222//234
f 202//234 222//234 224//234
f 203//235 201//235 223//235
f 203//235 223//235 225//235
f 204//236 6//236 226//236
f 8//237 202//237 224//237
f 205//238 203//238 225//238
f 205//238 225//238 227//238
f 206//239 204//239 226//239
f 206//239 226//239 213//239
f 207//240 205//240 227//240
f 207//240 227//240 215//240
f 223//241 221//241 228//241
f 223//241 228//241 229//241
f 224//242 222//242 230//242
f 224//242 230//242 231//242
f 225//243 223//243 229//243
f 225//243 229//243 232//243
f 226//244 6//244 233//244
f 8//245 224//245 231//245
f 227//246 225//246 232//246
f 227//246 232//246 234//246
f 213//247 226//247 233//247
f 213//247 233//247 235//247
f 215//248 227//248 234//248
f 215//248 234//248 236//248
f 214//249 213//249 235//249
f 214//249 235//249 237//249
f 216//250 215//250 236//250
f 216//250 236//250 238//250
f 217//251 214//251 237//251
f 217//251 237//251 239//251
f 218//252 216//252 238//252
f 218//252 238//252 240//252
f 219//253 217//253 239//253
f 219//253 239//253 241//253
f 220//254 218//254 240//254
f 220//254 240//254 242//254
f 221//255 219//255 241//255
f 221//255 241//255 228//255
f 222//256 220//256 242//256
f 222//256 242//256 230//256
f 238//257 236//257 243//257
f 238//257 243//257 244//257
f 239//258 237//258 245//258
f 239//258 245//258 246//258
f 240//259 238//259 244//259
f 240//259 244//259 247//259
f 241//260 239//260 246//260
f 241//260 246//260 248//260
f 242//261 240//261 247//261
f 242//261 247//261 249//261
f 228//262 241//262 248//262
f 228//262 248//262 250//262
f 230//263 242//263 249//263
f 230//263 249//263 251//263
f 229//264 228//264 250//264
f 229//264 250//264 252//264
f 231//265 230//265 251//265
f 231//265 251//265 253//265
f 232//266 229//266 252//266
f 232//266 252//266 254//266
f 233//267 6//267 255//267
f 8//268 231//268 253//268
f 234//269 232//269 254//269
f 234//269 254//269 256//269
f 235//270 233//270 255//270
f 235//270 255//270 257//270
f 236//271 234//271 256//271
f 236//271 256//271 243//271
f 237//272 235//272 257//272
f 237//272 257//272 245//272
f 253//273 251//273 258//273
f 253//273 258//273 259//273
f 254//274 252//274 260//274
f 254//275 260//275 261//275
f 255//276 6//276 262//276
f 8//277 253//277 259//277
f 256//278 254//278 261//278
f 256//279 261//279 263//279
f 257//280 255//280 262//280
f 257//280 262//280 264//280
f 243//281 256//281 263//281
f 243//281 263//281 265//281
f 245//282 257//282 264//282
f 245//282 264//282 266//282
f 244//283 243//283 265//283
f 244//283 265//283 267//283
f 246//284 245//284 266//284
f 246//284 266//284 268//284
f 247//285 244//285 267//285
f 247//285 267//285 269//285
f 248//286 246//286 268//286
f 248//286 268//286 270//286
f 249//287 247//287 269//287
f 249//287 269//287 271//287
f 250//288 248//288 270//288
f 250//288 270//288 272//288
f 251//289 249//289 271//289
f 251//289 271//289 258//289
f 252//290 250//290 272//290
f 252//290 272//290 260//290
f 268//291 266//291 273//291
f 268//291 273//291 274//291
f 269//292 267//292 275//292
f 269//292 275//292 276//292
f 270//293 268//293 274//293
f 270//293 274//293 277//293
f 271//294 269//294 276//294
f 271//294 276//294 278//294
f 272//295 270//295 277//295
f 272//295 277//295 279//295
f 258//296 271//296 278//296
f 258//296 278//296 280//296
f 260//297 272//297 279//297
f 260//297 279//297 281//297
f 259//298 258//298 280//298
f 259//298 280//298 282//298
f 261//299 260//299 281//299
f 261//299 281//299 283//299
f 262//300 6//300 284//300
f 8//301 259//301 282//301
f 263//302 261//302 283//302
f 263//302 283//302 285//302
f 264//303 262//303 284//303
f 264//303 284//303 286//303
f 265//304 263//304 285//304
f 265//304 285//304 287//304
f 266//305 264//305 286//305
f 266//305 286//305 273//305
f 267//306 265//306 287//306
f 267//306 287//306 275//306
f 283//307 281//307 288//307
f 283//307 288//307 289//307
f 284//308 6//308 290//308
f 8//309 282//309 291//309
f 285//310 283//310 289//310
f 285//310 289//310 292//310
f 286//311 284//311 290//311
f 286//311 290//311 293//311
f 287//312 285//312 292//312
f 287//312 292//312 294//312
f 273//313 286//313 293//313
f 273//314 293//314 295//314
f 275//315 287//315 294//315
f 275//315 294//315 296//315
f 274//316 273//316 295//316
f 274//316 295//316 297//316
f 276//317 275//317 296//317
f 276//317 296//317 298//317
f 277//318 274//318 297//318
f 277//318 297//318 299//318
f 278//319 276//319 298//319
f 278//319 298//319 300//319
f 279//320 277//320 299//320
f 279//320 299//320 301//320
f 280//321 278//321 300//321
f 280//322 300//322 302//322
f 281//323 279//323 301//323
f 281//323 301//323 288//323
f 282//324 280//324 302//324
f 282//324 302//324 291//324
f 298//325 296//325 303//325
f 298//325 303//325 304//325
f 299//326 297//326 305//326
f 299//326 305//326 306//326
f 300//327 298//327 304//327
f 300//327 304//327 307//327
f 301//328 299//328 306//328
f 301//328 306//328 308//328
f 302//329 300//329 307//329
f 302//329 307//329 309//329
f 288//330 301//330 308//330
f 288//330 308//330 310//330
f 291//331 302//331 309//331
f 291//331 309//331 311//331
f 289//332 288//332 310//332
f 289//332 310//332 312//332
f 290//333 6//333 313//333
f 8//334 291//334 311//334
f 292//335 289//335 312//335
f 292//335 312//335 314//335
f 293//336 290//336 313//336
f 293//336 313//336 315//336
f 294//337 292//337 314//337
f 294//337 314//337 316//337
f 295//338 293//338 315//338
f 295//338 315//338 317//338
f 296//339 294//339 316//339
f 296//339 316//339 303//339
f 297//340 295//340 317//340
f 297//340 317//340 305//340
f 8//341 311//341 318//341
f 314//342 312//342 319//342
f 314//342 319//342 320//342
f 315//343 313//343 321//343
f 315//343 321//343 322//343
f 316//344 314//344 320//344
f 316//344 320//344 323//344
f 317//345 315//345 322//345
f 317//345 322//345 324//345
f 303//346 316//346 323//346
f 303//346 323//346 325//346
f 305//347 317//347 324//347
f 305//347 324//347 326//347
f 304//348 303//348 325//348
f 304//348 325//348 327//348
f 306//349 305//349 326//349
f 306//349 326//349 328//349
f 307//350 304//350 327//350
f 307//350 327//350 329//350
f 308//351 306//351 328//351
f 308//351 328//351 330//351
f 309//352 307//352 329//352
f 309//352 329//352 331//352
f 310//353 308//353 330//353
f 310//353 330//353 332//353
f 311//354 309//354 331//354
f 311//354 331//354 318//354
f 312//355 310//355 332//355
f 312//355 332//355 319//355
f 313//356 6//356 321//356
f 329//357 327//357 333//357
f 329//357 333//357 334//357
f 330//358 328//358 335//358
f 330//358 335//358 336//358
f 331//359 329//359 334//359
f 331//359 334//359 337//359
f 332//360 330//360 336//360
f 332//360 336//360 338//360
f 318//361 331//361 337//361
f 318//361 337//361 339//361
f 319//362 332//362 338//362
f 319//362 338//362 340//362
f 321//363 6//363 341//363
f 8//364 318//364 339//364
f 320//365 319//365 340//365
f 320//365 340//365 342//365
f 322//366 321//366 341//366
f 322//366 341//366 343//366
f 323//367 320//367 342//367
f 323//367 342//367 344//367
f 324//368 322//368 343//368
f 324//369 343//369 345//369
f 325//370 323//370 344//370
f 325//370 344//370 346//370
f 326//371 324//371 345//371
f 326//371 345//371 347//371
f 327//372 325//372 346//372
f 327//372 346//372 333//372
f 328//373 326//373 347//373
f 328//373 347//373 335//373
f 343//374 341//374 348//374
f 343//374 348//374 349//374
f 344//375 342//375 350//375
f 344//375 350//375 351//375
f 345//376 343//376 349//376
f 345//376 349//376 352//376
f 346//377 344//377 351//377
f 346//377 351//377 353//377
f 347//378 345//378 352//378
f 347//378 352//378 354//378
f 333//379 346//379 353//379
f 333//379 353//379 355//379
f 335//380 347//380 354//380
f 335//380 354//380 356//380
f 334//381 333//381 355//381
f 334//381 355//381 357//381
f 336//382 335//382 356//382
f 336//382 356//382 358//382
f 337//383 334//383 357//383
f 337//383 357//383 359//383
f 338//384 336//384 358//384
f 338//384 358//384 360//384
f 339//385 337//385 359//385
f 339//385 359//385 361//385
f 340//386 338//386 360//386
f 340//386 360//386 362//386
f 341//387 6//387 348//387
f 8//388 339//388 361//388
f 342//389 340//389 362//389
f 342//389 362//389 350//389
f 358//390 356//390 363//390
f 358//390 363//390 364//390
f 359//391 357//391 365//391
f 359//391 365//391 366//391
f 360//392 358//392 364//392
f 360//392 364//392 367//392
f 361//393 359//393 366//393
f 361//393 366//393 368//393
f 362//394 360//394 367//394
f 362//394 367//394 369//394
f 348//395 6//395 370//395
f 8//396 361//396 368//396
f 350//397 362//397 369//397
f 350//397 369//397 371//397
f 349//398 348//398 370//398
f 349//398 370//398 372//398
f 351//399 350//399 371//399
f 351//399 371//399 373//399
f 352//400 349//400 372//400
f 352//400 372//400 374//400
f 353//401 351//401 373//401
f 353//401 373//401 375//401
f 354//402 352//402 374//402
f 354//402 374//402 376//402
f 355//403 353//403 375//403
f 355//403 375//403 377//403
f 356//404 354//404 376//404
f 356//404 376//404 363//404
f 357//405 355//405 377//405
f 357//405 377//405 365//405
f 373//406 371//406 378//406
f 373//406 378//406 379//406
f 374//407 372//407 380//407
f 374//407 380//407 381//407
f 375//408 373//408 379//408
f 375//408 379//408 382//408
f 376//409 374//409 381//409
f 376//409 381//409 383//409
f 377//410 375//410 382//410
f 377//410 382//410 384//410
f 363//411 376//411 383//411
f 363//411 383//411 385//411
f 365//412 377//412 384//412
f 365//412 384//412 386//412
f 364//413 363//413 385//413
f 364//413 385//413 387//413
f 366//414 365//414 386//414
f 366//414 386//414 388//414
f 367//415 364//415 387//415
f 367//415 387//415 389//415
f 368//416 366//416 388//416
f 368//416 388//416 390//416
f 369//417 367//417 389//417
f 369//417 389//417 391//417
f 370//418 6//418 392//418
f 8//419 368//419 390//419
f 371//420 369//420 391//420
f 371//421 391//421 378//421
f 372//422 370//422 392//422
f 372//422 392//422 380//422
f 388//423 386//423 393//423
f 388//423 393//423 394//423
f 389//424 387//424 395//424
f 389//424 395//424 396//424
f 390//425 388//425 394//425
f 390//425 394//425 397//425
f 391//426 389//426 396//426
f 391//426 396//426 398//426
f 392//427 6//427 399//427
f 8//428 390//428 397//428
f 378//429 391//429 398//429
f 378//429 398//429 400//429
f 380//430 392//430 399//430
f 380//430 399//430 401//430
f 379//431 378//431 400//431
f 379//431 400//431 402//431
f 381//432 380//432 401//432
f 381//432 401//432 403//432
f 382//433 379//433 402//433
f 382//433 402//433 404//433
f 383//434 381//434 403//434
f 383//434 403//434 405//434
f 384//435 382//435 404//435
f 384//435 404//435 406//435
f 385//436 383//436 405//436
f 385//436 405//436 407//436
f 386//437 384//437 406//437
f 386//437 406//437 393//437
f 387//438 385//438 407//438
f 387//438 407//438 395//438
f 403//439 401//439 408//439
f 403//440 408//440 409//440
f 404//441 402//441 410//441
f 404//441 410//441 411//441
f 405//442 403//442 409//442
f 405//442 409//442 412//442
f 406//443 404//443 411//443
f 406//443 411//443 413//443
f 407//444 405//444 412//444
f 407//444 412//444 414//444
f 393//445 406//445 413//445
f 393//445 413//445 415//445
f 395//446 407//446 414//446
f 395//446 414//446 416//446
f 394//447 393//447 415//447
f 394//448 415//448 417//448
f 396//449 395//449 416//449
f 396//449 416//449 418//449
f 397//450 394//450 417//450
f 397//451 417//451 419//451
f 398//452 396//452 418//452
f 398//452 418//452 420//452
f 399//453 6//453 421//453
f 8//454 397//454 419//454
f 400//455 398//455 420//455
f 400//455 420//455 422//455
f 401//456 399//456 421//456
f 401//456 421//456 408//456
f 402//457 400//457 422//457
f 402//457 422//457 410//457
f 418//458 416//458 423//458
f 418//458 423//458 424//458
f 419//459 417//459 425//459
f 419//460 425//460 426//460
f 420//461 418//461 424//461
f 420//461 424//461 427//461
f 421//462 6//462 428//462
f 8//463 419//463 426//463
f 422//464 420//464 427//464
f 422//464 427//464 429//464
f 408//465 421//465 428//465
f 408//465 428//465 430//465
f 410//466 422//466 429//466
f 410//466 429//466 431//466
f 409//467 408//467 430//467
f 409//467 430//467 432//467
f 411//468 410//468 431//468
f 411//468 431//468 433//468
f 412//469 409//469 432//469
f 412//469 432//469 434//469
f 413//470 411//470 433//470
f 413//470 433//470 435//470
f 414//471 412//471 434//471
f 414//471 434//471 436//471
f 415//472 413//472 435//472
f 415//472 435//472 437//472
f 416//473 414//473 436//473
f 416//473 436//473 423//473
f 417//474 415//474 437//474
f 417//474 437//474 425//474
f 433//475 431//475 438//475
f 433//475 438//475 439//475
f 434//476 432//476 440//476
f 434//476 440//476 441//476
f 435//477 433//477 439//477
f 435//477 439//477 442//477
f 436//478 434//478 441//478
f 436//478 441//478 443//478
f 437//479 435//479 442//479
f 437//479 442//479 444//479
f 423//480 436//480 443//480
f 423//480 443//480 445//480
f 425//481 437//481 444//481
f 425//481 444//481 446//481
f 424//482 423//482 445//482
f 424//482 445//482 447//482
f 426//483 425//483 446//483
f 426//483 446//483 448//483
f 427//484 424//484 447//484
f 427//484 447//484 449//484
f 428//485 6//485 450//485
f 8//486 426//486 448//486
f 429//487 427//487 449//487
f 429//487 449//487 451//487
f 430//488 428//488 450//488
f 430//488 450//488 452//488
f 431//489 429//489 451//489
f 431//489 451//489 438//489
f 432//490 430//490 452//490
f 432//490 452//490 440//490
f 448//491 446//491 453//491
f 448//491 453//491 454//491
f 449//492 447//492 455//492
f 449//492 455//492 456//492
f 450//493 6//493 457//493
f 8//494 448//494 454//494
f 451//495 449//495 456//495
f 451//495 456//495 458//495
f 452//496 450//496 457//496
f 452//496 457//496 459//496
f 438//497 451//497 458//497
f 438//497 458//497 460//497
f 440//498 452//498 459//498
f 440//499 459//499 461//499
f 439//500 438//500 460//500
f 439//500 460//500 462//500
f 441//501 440//501 461//501
f 441//501 461//501 463//501
f 442//502 439//502 462//502
f 442//502 462//502 464//502
f 443//503 441//503 463//503
f 443//503 463//503 465//503
f 444//504 442//504 464//504
f 444//504 464//504 466//504
f 445//505 443//505 465//505
f 445//505 465//505 467//505
f 446//506 444//506 466//506
f 446//507 466//507 453//507
f 447//508 445//508 467//508
f 447//508 467//508 455//508
f 464//509 462//509 468//509
f 464//509 468//509 469//509
f 465//510 463//510 470//510
f 465//510 470//510 471//510
f 466//511 464//511 469//511
f 466//511 469//511 472//511
f 467//512 465//512 471//512
f 467//512 471//512 473//512
f 453//513 466//513 472//513
f 453//513 472//513 474//513
f 455//514 467//514 473//514
f 455//514 473//514 475//514
f 454//515 453//515 474//515
f 454//515 474//515 476//515
f 456//516 455//516 475//516
f 456//516 475//516 477//516
f 457//517 6//517 478//517
f 8//518 454//518 476//518
f 458//519 456//519 477//519
f 458//519 477//519 479//519
f 459//520 457//520 478//520
f 459//520 478//520 480//520
f 460//521 458//521 479//521
f 460//521 479//521 481//521
f 461//522 459//522 480//522
f 461//522 480//522 482//522
f 462//523 460//523 481//523
f 462//523 481//523 468//523
f 463//524 461//524 482//524
f 463//524 482//524 470//524
f 478//525 6//525 5//525
f 8//526 476//526 9//526
f 479//527 477//527 1//527
f 479//527 1//527 11//527
f 480//528 478//528 5//528
f 480//528 5//528 13//528
f 481//529 479//529 11//529
f 481//529 11//529 15//529
f 482//530 480//530 13//530
f 482//530 13//530 17//530
f 468//531 481//531 15//531
f 468//531 15//531 19//531
f 470//532 482//532 17//532
f 470//532 17//532 21//532
f 469//533 468//533 19//533
f 469//533 19//533 23//533
f 471//534 470//534 21//534
f 471//534 21//534 25//534
f 472//535 469//535 23//535
f 472//535 23//535 27//535
f 473//536 471//536 25//536
f 473//536 25//536 29//536
f 474//537 472//537 27//537
f 474//537 27//537 31//537
f 475//538 473//538 29//538
f 475//538 29//538 2//538
f 476//539 474//539 31//539
f 476//539 31//539 9//539
f 477//540 475//540 2//540
f 477//541 2//541 1//541
