# Blender v3.0.0 OBJ File: ''
# www.blender.org
mtllib Tilt Middle Linkage.mtl
o /ambf/env/Tilt_Middle_Linkage_Tilt_Middle_Linkage
v 0.000677 -0.003841 -0.005000
v 0.001334 -0.003665 -0.005000
v 0.000000 -0.005750 -0.005000
v 0.103812 -0.005750 -0.005000
v -0.000998 -0.005663 -0.005000
v -0.000677 -0.003841 -0.005000
v 0.000000 -0.003900 -0.005000
v -0.000998 -0.005663 -0.002000
v 0.000000 -0.005750 -0.002000
v 0.024250 -0.005750 -0.002000
v 0.002507 -0.002988 -0.005000
v 0.002988 -0.002507 -0.005000
v 0.003377 -0.001950 -0.005000
v 0.003665 -0.001334 -0.005000
v 0.003841 -0.000677 -0.005000
v 0.001950 -0.003377 -0.005000
v 0.151159 0.004323 -0.005000
v 0.128835 -0.000983 -0.005000
v 0.106165 -0.005517 -0.005000
v 0.104994 -0.005692 -0.005000
v 0.109966 -0.001033 -0.005000
v 0.114869 -0.000052 -0.005000
v 0.117458 0.000675 -0.005000
v 0.035256 -0.001375 -0.005000
v 0.106510 -0.001375 -0.005000
v 0.108246 -0.001289 -0.005000
v 0.034447 -0.001349 -0.005000
v 0.103812 -0.005750 0.005000
v 0.026250 -0.005750 0.000000
v 0.026129 -0.005750 -0.000684
v 0.025782 -0.005750 -0.001286
v 0.024934 -0.005750 -0.001879
v 0.001950 -0.003377 -0.002000
v 0.001334 -0.003665 -0.002000
v 0.000000 -0.003900 -0.002000
v 0.000677 -0.003841 -0.002000
v 0.003900 0.000000 -0.002000
v 0.003841 -0.000677 -0.002000
v 0.024250 0.005750 -0.002000
v 0.003665 -0.001334 -0.002000
v 0.003377 -0.001950 -0.002000
v 0.002988 -0.002507 -0.002000
v 0.002507 -0.002988 -0.002000
v 0.024934 0.005750 -0.001879
v 0.025536 0.005750 -0.001532
v 0.025982 0.005750 -0.001000
v 0.026220 0.005750 -0.000347
v 0.026220 0.005750 0.000347
v 0.026129 -0.005750 0.000684
v 0.025782 -0.005750 0.001286
v 0.025982 0.005750 0.001000
v 0.025536 0.005750 0.001532
v 0.024934 -0.005750 0.001879
v 0.024597 0.005750 0.001970
v 0.024250 -0.005750 0.002000
v -0.000998 -0.005663 0.005000
v -0.000998 -0.005663 0.002000
v 0.000000 -0.005750 0.002000
v 0.000000 -0.005750 0.005000
v 0.000677 -0.003841 0.002000
v 0.001334 -0.003665 0.002000
v -0.000677 -0.003841 0.002000
v 0.000000 -0.003900 0.002000
v 0.003841 -0.000677 0.002000
v 0.002507 -0.002988 0.002000
v 0.002988 -0.002507 0.002000
v 0.003377 -0.001950 0.002000
v 0.003665 -0.001334 0.002000
v 0.001950 -0.003377 0.002000
v 0.001950 -0.003377 0.005000
v 0.001334 -0.003665 0.005000
v 0.000000 -0.003900 0.005000
v 0.000677 -0.003841 0.005000
v 0.002507 -0.002988 0.005000
v 0.002988 -0.002507 0.005000
v 0.003841 -0.000677 0.005000
v 0.003665 -0.001334 0.005000
v 0.003377 -0.001950 0.005000
v 0.128835 -0.000983 0.005000
v 0.151159 0.004323 0.005000
v 0.106165 -0.005517 0.005000
v 0.104994 -0.005692 0.005000
v 0.109966 -0.001033 0.005000
v 0.108246 -0.001289 0.005000
v 0.106510 -0.001375 0.005000
v 0.117458 0.000675 0.005000
v 0.114869 -0.000052 0.005000
v 0.035255 -0.001375 0.005000
v 0.034475 -0.001347 0.005000
v -0.001967 -0.005403 -0.005000
v -0.001334 -0.003665 -0.005000
v -0.001967 -0.005403 -0.002000
v -0.000677 -0.003841 -0.002000
v -0.001967 -0.005403 0.005000
v -0.001967 -0.005403 0.002000
v -0.001334 -0.003665 0.002000
v -0.000677 -0.003841 0.005000
v 0.128811 -0.000988 -0.000491
v 0.128757 -0.000999 0.000165
v -0.002875 -0.004980 -0.005000
v -0.001950 -0.003377 -0.005000
v -0.002875 -0.004980 -0.002000
v -0.001334 -0.003665 -0.002000
v -0.002875 -0.004980 0.005000
v -0.002875 -0.004980 0.002000
v -0.001950 -0.003377 0.002000
v -0.001334 -0.003665 0.005000
v -0.003696 -0.004405 -0.005000
v -0.002507 -0.002988 -0.005000
v -0.003696 -0.004405 -0.002000
v -0.001950 -0.003377 -0.002000
v -0.003696 -0.004405 0.005000
v -0.003696 -0.004405 0.002000
v -0.002507 -0.002988 0.002000
v -0.001950 -0.003377 0.005000
v -0.004405 -0.003696 -0.005000
v -0.002988 -0.002507 -0.005000
v -0.004405 -0.003696 -0.002000
v -0.002507 -0.002988 -0.002000
v -0.004405 -0.003696 0.005000
v -0.004405 -0.003696 0.002000
v -0.002988 -0.002507 0.002000
v -0.002507 -0.002988 0.005000
v -0.004980 -0.002875 -0.005000
v -0.003377 -0.001950 -0.005000
v -0.004980 -0.002875 -0.002000
v -0.002988 -0.002507 -0.002000
v -0.004980 -0.002875 0.005000
v -0.004980 -0.002875 0.002000
v -0.003377 -0.001950 0.002000
v -0.002988 -0.002507 0.005000
v -0.005403 -0.001967 -0.005000
v -0.003665 -0.001334 -0.005000
v -0.005403 -0.001967 -0.002000
v -0.003377 -0.001950 -0.002000
v -0.005403 -0.001967 0.005000
v -0.005403 -0.001967 0.002000
v -0.003665 -0.001334 0.002000
v -0.003377 -0.001950 0.005000
v -0.005663 -0.000998 -0.005000
v -0.003841 -0.000677 -0.005000
v -0.005663 -0.000998 -0.002000
v -0.003665 -0.001334 -0.002000
v -0.005663 -0.000998 0.005000
v -0.005663 -0.000998 0.002000
v -0.003841 -0.000677 0.002000
v -0.003665 -0.001334 0.005000
v 0.036414 -0.001361 -0.004408
v 0.037600 -0.001375 -0.004386
v 0.039866 -0.001375 -0.004089
v 0.041000 -0.001375 -0.004000
v 0.106510 -0.001350 -0.003718
v 0.035903 -0.001375 -0.004783
v 0.038357 -0.001375 -0.004208
v 0.108246 -0.001289 -0.004000
v 0.041000 -0.001375 0.004000
v 0.106510 -0.001350 0.003718
v 0.039135 -0.001350 0.003819
v 0.037353 -0.001375 0.004396
v 0.041000 -0.001277 0.003444
v 0.108244 -0.001265 0.003718
v 0.037233 -0.001277 0.003853
v 0.038662 -0.001310 -0.003704
v 0.039831 -0.001310 -0.003585
v 0.003900 0.000000 0.005000
v 0.106510 -0.001157 0.003187
v 0.108225 -0.001073 0.003187
v 0.039078 -0.001157 0.003292
v 0.035323 -0.001157 0.004116
v 0.033534 -0.001157 0.004827
v -0.003841 -0.000677 -0.002000
v -0.003841 -0.000677 0.005000
v 0.036247 -0.001139 -0.003802
v 0.035048 -0.001050 -0.004039
v 0.037448 -0.001211 -0.003649
v 0.041000 -0.001277 -0.003444
v 0.034013 -0.001211 -0.004724
v 0.033110 -0.001130 -0.005000
v 0.109961 -0.001009 -0.003718
v 0.109961 -0.001009 0.003718
v 0.106510 -0.001157 -0.003187
v 0.108237 -0.001192 -0.003444
v 0.109892 -0.000660 0.002955
v 0.041000 -0.000995 0.002955
v 0.037128 -0.000995 0.003376
v 0.035185 -0.000795 0.003707
v 0.032781 -0.001041 0.005000
v 0.038592 -0.001050 -0.003188
v 0.039786 -0.000943 -0.002938
v 0.109892 -0.000660 -0.002955
v 0.108209 -0.000911 -0.002955
v 0.041000 -0.000795 -0.002755
v 0.032310 -0.000837 -0.005000
v 0.032241 -0.000792 0.005000
v 0.114869 -0.000052 -0.004000
v 0.114864 -0.000028 0.003718
v 0.114850 0.000044 -0.003444
v 0.128758 0.009892 -0.000165
v -0.005750 0.000000 -0.005000
v -0.003900 0.000000 -0.005000
v -0.005750 0.000000 -0.002000
v -0.005750 0.000000 0.005000
v -0.005750 0.000000 0.002000
v -0.003900 0.000000 0.002000
v 0.106510 -0.000795 -0.002755
v 0.041000 -0.000562 0.002593
v 0.106510 -0.000795 0.002755
v 0.108189 -0.000712 0.002755
v 0.039031 -0.000795 0.002862
v 0.037051 -0.000562 0.003021
v 0.033353 -0.000795 0.004435
v 0.128644 0.010325 0.000681
v 0.130006 -0.000808 -0.005000
v 0.129521 -0.000866 -0.001578
v 0.129076 -0.000937 -0.001094
v 0.130421 -0.000775 -0.001973
v 0.128918 -0.000967 0.000803
v 0.130006 -0.000808 0.005000
v 0.129278 -0.000903 0.001355
v 0.129798 -0.000831 0.001759
v 0.128851 0.010079 -0.000705
v 0.128982 0.010266 0.001128
v 0.033811 -0.000818 -0.004254
v 0.037303 -0.000515 -0.002942
v 0.129226 0.010270 -0.001394
v 0.114795 0.000321 -0.002955
v 0.114826 0.000161 0.003187
v 0.129521 0.010165 0.001587
v 0.129769 0.010294 -0.001773
v 0.034929 -0.000675 -0.003699
v 0.036090 -0.000515 -0.003233
v 0.038543 -0.000675 -0.002831
v 0.131188 -0.000750 -0.005000
v 0.152493 0.002012 0.005000
v 0.152012 0.002493 0.005000
v 0.151622 0.003050 0.005000
v 0.153050 0.001623 0.005000
v 0.131188 -0.000750 0.005000
v 0.151335 0.003666 0.005000
v 0.130421 -0.000775 0.001973
v 0.130101 0.010182 0.001890
v 0.031799 -0.000470 0.005000
v 0.130739 0.010535 -0.002095
v 0.131188 -0.000750 -0.002000
v 0.151159 0.004323 -0.002000
v 0.131188 -0.000750 0.002000
v 0.130750 0.010242 0.002000
v 0.151100 0.005000 0.002000
v 0.151159 0.004323 0.002000
v 0.151335 0.003666 -0.005000
v 0.151622 0.003050 -0.005000
v 0.152012 0.002493 -0.005000
v 0.152493 0.002012 -0.005000
v 0.153050 0.001623 -0.005000
v 0.155000 -0.000750 -0.005000
v 0.155000 -0.000750 -0.002000
v 0.153666 0.001335 -0.005000
v 0.154323 0.001159 -0.005000
v 0.155000 0.001100 -0.005000
v 0.155998 -0.000663 -0.005000
v 0.153050 0.001623 -0.002000
v 0.152493 0.002012 -0.002000
v 0.152012 0.002493 -0.002000
v 0.151622 0.003050 -0.002000
v 0.151335 0.003666 -0.002000
v 0.153666 0.001335 -0.002000
v 0.155998 -0.000663 -0.002000
v 0.154323 0.001159 -0.002000
v 0.155677 0.001159 -0.002000
v 0.155000 0.001100 -0.002000
v 0.155000 -0.000750 0.002000
v 0.155000 -0.000750 0.005000
v 0.151622 0.003050 0.002000
v 0.152012 0.002493 0.002000
v 0.152493 0.002012 0.002000
v 0.153050 0.001623 0.002000
v 0.151335 0.003666 0.002000
v 0.155998 -0.000663 0.002000
v 0.153666 0.001335 0.002000
v 0.154323 0.001159 0.002000
v 0.155000 0.001100 0.002000
v 0.153666 0.001335 0.005000
v 0.154323 0.001159 0.005000
v 0.155998 -0.000663 0.005000
v 0.155677 0.001159 0.005000
v 0.155000 0.001100 0.005000
v 0.108166 -0.000481 -0.002593
v 0.109807 -0.000236 0.002593
v -0.003900 0.000000 -0.002000
v 0.031496 0.000048 -0.005000
v 0.031852 -0.000513 -0.005000
v 0.003900 0.000000 -0.005000
v -0.003900 0.000000 0.005000
v 0.003900 0.000000 0.002000
v 0.032560 -0.000339 -0.004522
v 0.039764 -0.000515 -0.002608
v 0.155677 0.001159 -0.005000
v 0.156966 -0.000403 -0.005000
v 0.156966 -0.000403 -0.002000
v 0.156334 0.001335 -0.002000
v 0.156966 -0.000403 0.002000
v 0.155677 0.001159 0.002000
v 0.156966 -0.000403 0.005000
v 0.156334 0.001335 0.005000
v 0.114710 0.000745 -0.002593
v 0.114755 0.000517 0.002755
v 0.106510 -0.000306 -0.002473
v 0.106510 -0.000306 0.002473
v 0.108114 0.000047 0.002400
v 0.038993 -0.000032 0.002508
v 0.035072 -0.000032 0.003370
v 0.033204 -0.000032 0.004112
v 0.033696 -0.000339 -0.003987
v 0.036043 0.000048 -0.003061
v 0.037267 0.000048 -0.002767
v 0.041000 -0.000306 -0.002473
v 0.109807 -0.000236 -0.002593
v 0.109703 0.000284 0.002400
v 0.031512 -0.000023 0.005000
v 0.156334 0.001335 -0.005000
v 0.157875 0.000020 -0.005000
v 0.157875 0.000020 -0.002000
v 0.156950 0.001623 -0.002000
v 0.157875 0.000020 0.002000
v 0.156334 0.001335 0.002000
v 0.157875 0.000020 0.005000
v 0.156950 0.001623 0.005000
v 0.034850 -0.000150 -0.003473
v 0.038511 -0.000150 -0.002594
v 0.041000 -0.000032 0.002400
v 0.037004 0.000250 0.002809
v 0.114659 0.000996 0.002473
v 0.108114 0.000047 -0.002400
v 0.039752 0.000048 -0.002430
v 0.116950 0.000498 -0.004000
v 0.116950 0.000498 0.004000
v 0.106510 0.000250 -0.002375
v 0.106510 0.000250 0.002375
v 0.116919 0.000591 0.003444
v -0.005663 0.000998 -0.005000
v -0.003841 0.000677 -0.005000
v -0.005663 0.000998 -0.002000
v -0.003841 0.000677 -0.002000
v 0.003841 0.000677 -0.005000
v 0.003841 0.000677 -0.002000
v -0.005663 0.000998 0.005000
v -0.005663 0.000998 0.002000
v -0.003841 0.000677 0.002000
v -0.003841 0.000677 0.005000
v 0.003841 0.000677 0.002000
v 0.003841 0.000677 0.005000
v 0.109703 0.000284 -0.002400
v 0.114550 0.001541 -0.002375
v 0.156950 0.001623 -0.005000
v 0.158696 0.000595 -0.005000
v 0.158696 0.000595 -0.002000
v 0.157507 0.002012 -0.002000
v 0.158696 0.000595 0.002000
v 0.156950 0.001623 0.002000
v 0.158696 0.000595 0.005000
v 0.157507 0.002012 0.005000
v 0.116919 0.000591 -0.003444
v 0.116830 0.000859 0.002955
v 0.032509 0.000250 -0.004423
v 0.033653 0.000250 -0.003886
v 0.041000 0.000250 -0.002375
v 0.033696 0.000839 -0.003987
v 0.034837 0.000452 -0.003438
v 0.038506 0.000452 -0.002557
v 0.041000 0.000532 0.002400
v 0.106510 0.000806 0.002473
v 0.108058 0.000609 0.002400
v 0.038993 0.000532 0.002508
v 0.035072 0.000532 0.003370
v 0.033204 0.000532 0.004112
v 0.031506 0.000505 0.005000
v 0.116767 0.001049 -0.002755
v 0.108032 0.000881 -0.002473
v 0.109592 0.000837 0.002400
v 0.031625 0.000754 -0.005000
v 0.034896 0.001015 -0.003606
v 0.036053 0.000650 -0.003097
v 0.037287 0.000839 -0.002863
v 0.039764 0.001015 -0.002608
v 0.117449 0.000698 -0.004000
v 0.117449 0.000698 0.004000
v 0.116614 0.001513 0.002473
v 0.118948 0.001297 -0.004000
v 0.118854 0.001494 0.003187
v 0.118937 0.001320 0.003718
v 0.106510 0.000806 -0.002473
v 0.041000 0.001013 -0.002570
v 0.037025 0.000806 0.002904
v 0.109592 0.000837 -0.002400
v 0.114550 0.001541 0.002375
v 0.118906 0.001386 -0.003444
v 0.157507 0.002012 -0.005000
v 0.159405 0.001304 -0.005000
v 0.159405 0.001304 -0.002000
v 0.157987 0.002493 -0.002000
v 0.159405 0.001304 0.002000
v 0.157507 0.002012 0.002000
v 0.159405 0.001304 0.005000
v 0.157987 0.002493 0.005000
v 0.032560 0.000839 -0.004522
v 0.119906 0.001787 -0.005000
v 0.119906 0.001787 0.005000
v -0.003665 0.001334 -0.005000
v -0.003665 0.001334 -0.002000
v 0.003665 0.001334 -0.005000
v 0.103812 0.005750 -0.005000
v 0.034013 0.001711 -0.004724
v 0.033112 0.001629 -0.005000
v 0.032053 0.001173 -0.005000
v 0.032693 0.001318 -0.004780
v -0.005403 0.001967 -0.002000
v 0.003665 0.001334 -0.002000
v -0.003665 0.001334 0.005000
v -0.003665 0.001334 0.002000
v 0.003665 0.001334 0.002000
v -0.005403 0.001967 0.005000
v 0.103812 0.005750 0.005000
v 0.003665 0.001334 0.005000
v 0.032272 0.001317 0.005000
v 0.032751 0.001530 0.005000
v 0.033437 0.001495 0.004617
v 0.034251 0.001833 0.005000
v 0.118785 0.001641 -0.002955
v 0.118699 0.001822 0.002755
v 0.041000 0.001295 0.002755
v 0.107983 0.001367 0.002755
v 0.039014 0.001063 0.002700
v 0.035134 0.001063 0.003553
v 0.033285 0.001063 0.004287
v 0.114391 0.002338 -0.002593
v 0.038530 0.001015 -0.002734
v 0.109488 0.001357 0.002593
v 0.116528 0.001773 -0.002400
v 0.116439 0.002041 0.002375
v -0.005403 0.001967 -0.005000
v -0.005403 0.001967 0.002000
v 0.036178 0.001443 -0.003552
v 0.118490 0.002264 0.002473
v 0.106510 0.001295 -0.002755
v 0.106510 0.001295 0.002755
v 0.037085 0.001295 0.003180
v 0.109488 0.001357 -0.002593
v 0.114441 0.002086 0.002473
v 0.107983 0.001367 -0.002755
v 0.033811 0.001318 -0.004254
v 0.037345 0.001318 -0.003147
v 0.118600 0.002032 -0.002593
v 0.041000 0.001440 -0.002901
v 0.039053 0.001495 0.003061
v 0.035249 0.001495 0.003896
v 0.119890 0.001816 -0.004000
v 0.119890 0.001816 0.004000
v 0.157987 0.002493 -0.005000
v 0.159979 0.002125 -0.005000
v 0.159979 0.002125 -0.002000
v 0.158377 0.003050 -0.002000
v 0.159979 0.002125 0.002000
v 0.157987 0.002493 0.002000
v 0.159979 0.002125 0.005000
v 0.158377 0.003050 0.005000
v 0.035006 0.001443 -0.003919
v 0.037448 0.001711 -0.003649
v 0.038627 0.001711 -0.003449
v 0.039786 0.001443 -0.002938
v 0.120833 0.002334 -0.004000
v 0.120717 0.002518 0.003187
v 0.120833 0.002334 0.004000
v -0.003377 0.001950 -0.005000
v -0.003377 0.001950 -0.002000
v 0.003377 0.001950 -0.005000
v -0.004980 0.002875 -0.002000
v 0.003377 0.001950 -0.002000
v -0.003377 0.001950 0.005000
v -0.003377 0.001950 0.002000
v 0.003377 0.001950 0.002000
v -0.004980 0.002875 0.005000
v 0.003377 0.001950 0.005000
v 0.114306 0.002762 -0.002955
v 0.107948 0.001728 -0.003187
v 0.109403 0.001781 0.002955
v 0.120781 0.002417 -0.003444
v 0.120523 0.002825 0.002755
v 0.106510 0.001777 -0.003444
v 0.041000 0.001657 0.003187
v 0.106510 0.001657 0.003187
v 0.107948 0.001728 0.003187
v 0.037178 0.001657 0.003602
v 0.116350 0.002309 -0.002400
v 0.116264 0.002568 0.002473
v 0.041000 0.001804 -0.003546
v 0.109372 0.001941 -0.003187
v 0.114346 0.002566 0.002755
v 0.120630 0.002656 -0.002955
v 0.039106 0.001777 0.003547
v 0.035405 0.001777 0.004360
v 0.035256 0.001875 -0.005000
v 0.036441 0.001875 -0.004624
v 0.039831 0.001810 -0.003585
v 0.107929 0.001920 -0.003718
v 0.109348 0.002058 0.003444
v 0.118373 0.002511 -0.002400
v 0.118253 0.002766 0.002375
v 0.041000 0.001850 0.003718
v 0.106510 0.001850 0.003718
v 0.107926 0.001945 0.004000
v 0.037292 0.001850 0.004120
v 0.114251 0.003039 -0.003444
v 0.122157 0.003259 -0.005000
v 0.122157 0.003259 0.005000
v 0.122142 0.003279 0.004000
v 0.037548 0.001861 -0.004136
v 0.038694 0.001861 -0.003941
v 0.120399 0.003021 -0.002593
v 0.120262 0.003238 0.002473
v 0.104994 0.005808 0.005000
v 0.034647 0.001850 -0.005000
v 0.035582 0.001875 0.004886
v 0.106510 0.001875 -0.004000
v 0.039166 0.001875 0.004099
v 0.039474 0.001875 -0.004070
v 0.106165 0.005983 -0.005000
v 0.107926 0.001945 -0.005000
v 0.106510 0.001875 -0.005000
v 0.104994 0.005808 -0.005000
v 0.106510 0.001875 0.005000
v 0.106165 0.005983 0.005000
v 0.107926 0.001945 0.005000
v 0.109329 0.002154 -0.004000
v 0.109329 0.002154 0.004000
v 0.114274 0.002921 0.003187
v 0.109329 0.002154 -0.005000
v 0.109329 0.002154 0.005000
v -0.004980 0.002875 -0.005000
v -0.002988 0.002507 -0.005000
v -0.002988 0.002507 -0.002000
v 0.002988 0.002507 -0.005000
v -0.004405 0.003696 -0.002000
v 0.002988 0.002507 -0.002000
v -0.002988 0.002507 0.005000
v -0.002988 0.002507 0.002000
v -0.004980 0.002875 0.002000
v 0.002988 0.002507 0.002000
v -0.004405 0.003696 0.005000
v 0.002988 0.002507 0.005000
v 0.118015 0.003269 0.002473
v 0.114232 0.003135 -0.004000
v 0.114237 0.003111 0.003718
v 0.116184 0.002812 -0.002593
v 0.158377 0.003050 -0.005000
v 0.160403 0.003033 -0.005000
v 0.160403 0.003033 -0.002000
v 0.158665 0.003666 -0.002000
v 0.160403 0.003033 0.002000
v 0.158377 0.003050 0.002000
v 0.160403 0.003033 0.005000
v 0.158665 0.003666 0.005000
v 0.114232 0.003135 -0.005000
v 0.114232 0.003135 0.005000
v 0.118132 0.003022 -0.002400
v 0.122142 0.003279 -0.004000
v 0.122563 0.003613 0.003718
v 0.116111 0.003032 0.002755
v 0.122578 0.003594 -0.004000
v 0.122440 0.003762 0.003187
v 0.122516 0.003669 -0.003444
v -0.004405 0.003696 -0.005000
v -0.002507 0.002988 -0.005000
v -0.002507 0.002988 -0.002000
v 0.002507 0.002988 -0.005000
v -0.003696 0.004405 -0.002000
v 0.002507 0.002988 -0.002000
v -0.002507 0.002988 0.005000
v -0.002507 0.002988 0.002000
v -0.004405 0.003696 0.002000
v 0.002507 0.002988 0.002000
v -0.003696 0.004405 0.005000
v 0.002507 0.002988 0.005000
v 0.120115 0.003469 -0.002400
v 0.119814 0.003946 0.002400
v 0.122337 0.003888 -0.002955
v 0.122211 0.004043 0.002755
v 0.116048 0.003222 -0.002955
v 0.115997 0.003377 0.003187
v 0.119814 0.003946 -0.002400
v 0.117905 0.003501 -0.002593
v 0.117721 0.003892 0.002955
v 0.122064 0.004222 -0.002593
v 0.121901 0.004421 0.002473
v -0.003696 0.004405 -0.005000
v -0.001950 0.003378 -0.005000
v -0.001950 0.003378 -0.002000
v 0.001950 0.003378 -0.005000
v -0.002875 0.004980 -0.002000
v 0.001950 0.003378 -0.002000
v -0.001950 0.003378 0.005000
v -0.001950 0.003378 0.002000
v -0.003696 0.004405 0.002000
v 0.001950 0.003378 0.002000
v -0.002875 0.004980 0.005000
v 0.001950 0.003378 0.005000
v 0.117721 0.003892 -0.002955
v 0.158665 0.003666 -0.005000
v 0.160662 0.004002 -0.005000
v 0.160662 0.004002 -0.002000
v 0.158841 0.004323 -0.002000
v 0.160662 0.004002 0.002000
v 0.158665 0.003666 0.002000
v 0.160662 0.004002 0.005000
v 0.158841 0.004323 0.005000
v 0.115936 0.003560 -0.003718
v 0.115936 0.003560 0.003718
v 0.116324 0.003721 -0.005000
v 0.116317 0.003739 -0.004000
v 0.116324 0.003721 0.005000
v 0.121549 0.004851 0.002375
v 0.124157 0.005056 -0.005000
v 0.151100 0.005000 -0.005000
v 0.124157 0.005056 0.005000
v 0.119406 0.004591 0.002755
v 0.117600 0.004147 0.003444
v -0.002875 0.004980 -0.005000
v -0.001334 0.003665 -0.005000
v -0.001334 0.003665 -0.002000
v 0.000000 0.005750 -0.005000
v 0.001334 0.003665 -0.005000
v -0.001967 0.005403 -0.002000
v 0.001334 0.003665 -0.002000
v -0.001334 0.003665 0.005000
v -0.001334 0.003665 0.002000
v -0.002875 0.004980 0.002000
v 0.001334 0.003665 0.002000
v 0.000000 0.005750 0.002000
v -0.001967 0.005403 0.005000
v 0.001334 0.003665 0.005000
v 0.121728 0.004633 -0.002400
v 0.117600 0.004147 -0.003444
v 0.119530 0.004395 -0.002593
v 0.117558 0.004235 -0.004000
v 0.117558 0.004235 0.004000
v 0.116317 0.003739 0.004000
v 0.124157 0.005056 -0.004000
v 0.124157 0.005056 0.004000
v 0.124000 0.005206 -0.003190
v 0.124086 0.005124 0.003444
v -0.001967 0.005403 -0.005000
v -0.000677 0.003841 -0.005000
v -0.000677 0.003841 -0.002000
v 0.000677 0.003841 -0.005000
v -0.000998 0.005663 -0.002000
v 0.000677 0.003841 -0.002000
v 0.000000 0.005750 -0.002000
v -0.000677 0.003841 0.005000
v -0.000677 0.003841 0.002000
v -0.001967 0.005403 0.002000
v 0.000677 0.003841 0.002000
v -0.000998 0.005663 0.005000
v 0.000000 0.005750 0.005000
v 0.000677 0.003841 0.005000
v 0.158841 0.004323 -0.005000
v 0.158841 0.004323 0.002000
v 0.123882 0.005319 0.002955
v 0.121370 0.005069 -0.002400
v 0.121197 0.005281 0.002473
v 0.119299 0.004760 -0.002955
v 0.118304 0.004615 -0.005000
v 0.118304 0.004615 0.005000
v 0.123740 0.005455 -0.002759
v -0.000998 0.005663 -0.005000
v 0.000000 0.003900 -0.005000
v 0.000000 0.003900 -0.002000
v 0.000000 0.003900 0.005000
v 0.000000 0.003900 0.002000
v -0.000998 0.005663 0.002000
v 0.123569 0.005617 0.002593
v 0.119148 0.004998 0.003444
v 0.160750 0.005000 -0.005000
v 0.160750 0.005000 -0.002000
v 0.158900 0.005000 -0.002000
v 0.160750 0.005000 0.002000
v 0.160750 0.005000 0.005000
v 0.158900 0.005000 0.005000
v 0.119148 0.004998 -0.003444
v 0.121034 0.005480 -0.002593
v 0.120887 0.005659 0.002755
v 0.119096 0.005081 -0.004000
v 0.118291 0.004638 -0.004000
v 0.118291 0.004638 0.004000
v 0.119096 0.005081 0.004000
v 0.123384 0.005795 -0.002473
v 0.123191 0.005978 0.002402
v 0.151100 0.005000 -0.002000
v 0.158900 0.005000 -0.005000
v 0.151100 0.005000 0.005000
v 0.158900 0.005000 0.002000
v 0.122982 0.006178 -0.002375
v 0.120760 0.005814 -0.002955
v 0.120126 0.005798 -0.005000
v 0.120114 0.005815 -0.004000
v 0.120835 0.008917 0.005000
v 0.120126 0.005798 0.005000
v 0.120581 0.006032 0.003444
v 0.122580 0.006562 0.002473
v 0.120581 0.006032 -0.003444
v 0.151159 0.005677 -0.002000
v 0.151159 0.005677 -0.005000
v 0.151159 0.005677 0.005000
v 0.151159 0.005677 0.002000
v 0.158841 0.005677 -0.002000
v 0.160662 0.005998 -0.002000
v 0.160662 0.005998 0.002000
v 0.129235 0.010372 0.005000
v 0.158841 0.005677 -0.005000
v 0.158841 0.005677 0.005000
v 0.158841 0.005677 0.002000
v 0.160662 0.005998 -0.005000
v 0.160662 0.005998 0.005000
v 0.129235 0.010372 -0.005000
v 0.129183 0.010354 -0.003719
v 0.129215 0.010365 0.003820
v 0.128915 0.010256 0.003314
v 0.120519 0.006108 -0.004000
v 0.120114 0.005815 0.004000
v 0.122580 0.006562 -0.002473
v 0.128872 0.010241 -0.003273
v 0.128403 0.010051 -0.002961
v 0.128450 0.010113 0.002942
v 0.122234 0.006893 -0.002748
v 0.122234 0.006893 0.002748
v 0.127944 0.009857 -0.002757
v 0.127902 0.009839 0.002742
v 0.127184 0.009536 -0.002543
v 0.127399 0.009627 0.002605
v 0.126811 0.009379 0.002489
v 0.131188 0.010750 -0.005000
v 0.151335 0.006334 -0.005000
v 0.151335 0.006334 -0.002000
v 0.160403 0.006967 -0.005000
v 0.158665 0.006334 -0.005000
v 0.158665 0.006334 -0.002000
v 0.151335 0.006334 0.005000
v 0.151335 0.006334 0.002000
v 0.158665 0.006334 0.002000
v 0.160403 0.006967 0.002000
v 0.158665 0.006334 0.005000
v 0.126175 0.009111 -0.002400
v 0.120835 0.008917 -0.005000
v 0.121750 0.007241 -0.005000
v 0.121750 0.007241 0.005000
v 0.120519 0.006108 0.004000
v 0.121959 0.007332 -0.003471
v 0.121964 0.007151 0.003187
v 0.126068 0.009264 0.002352
v 0.121176 0.008985 -0.002997
v 0.121082 0.008952 -0.003529
v 0.120926 0.008935 0.003473
v 0.120835 0.008917 -0.004000
v 0.121161 0.008982 0.003018
v 0.120835 0.008917 0.004000
v 0.125538 0.008842 -0.002393
v 0.160403 0.006967 -0.002000
v 0.160403 0.006967 0.005000
v 0.121750 0.007241 -0.004000
v 0.121790 0.007260 0.003769
v 0.124892 0.008569 -0.002406
v 0.125539 0.008842 0.002394
v 0.124921 0.008821 0.002394
v 0.151622 0.006950 -0.005000
v 0.151622 0.006950 -0.002000
v 0.159979 0.007875 -0.005000
v 0.158377 0.006950 -0.005000
v 0.158377 0.006950 -0.002000
v 0.151622 0.006950 0.005000
v 0.151622 0.006950 0.002000
v 0.158377 0.006950 0.002000
v 0.159979 0.007875 0.002000
v 0.131188 0.010750 0.005000
v 0.158377 0.006950 0.005000
v 0.124263 0.008304 -0.002482
v 0.123674 0.008056 -0.002597
v 0.124264 0.008305 0.002483
v 0.123673 0.008055 0.002596
v 0.123127 0.007825 -0.002750
v 0.123152 0.007836 0.002736
v 0.122642 0.007620 -0.002952
v 0.152012 0.007507 -0.005000
v 0.152012 0.007507 -0.002000
v 0.159405 0.008696 -0.005000
v 0.157987 0.007507 -0.005000
v 0.157987 0.007507 -0.002000
v 0.159979 0.007875 -0.002000
v 0.152012 0.007507 0.005000
v 0.152012 0.007507 0.002000
v 0.157987 0.007507 0.002000
v 0.159405 0.008696 0.002000
v 0.159979 0.007875 0.005000
v 0.157987 0.007507 0.005000
v 0.122304 0.007589 0.003261
v 0.121760 0.008621 0.005000
v 0.121336 0.008889 0.005000
v 0.121997 0.007678 0.005000
v 0.122000 0.008180 0.005000
v 0.122184 0.007796 -0.003541
v 0.152493 0.007988 -0.005000
v 0.152493 0.007988 -0.002000
v 0.158696 0.009405 -0.005000
v 0.157507 0.007988 -0.005000
v 0.157507 0.007988 -0.002000
v 0.159405 0.008696 -0.002000
v 0.152493 0.007988 0.005000
v 0.152493 0.007988 0.002000
v 0.157507 0.007988 0.002000
v 0.158696 0.009405 0.002000
v 0.159405 0.008696 0.005000
v 0.157507 0.007988 0.005000
v 0.121997 0.007678 -0.005000
v 0.121997 0.007678 -0.004000
v 0.121999 0.007680 0.003950
v 0.122629 0.008171 0.003149
v 0.122654 0.008182 -0.003132
v 0.122228 0.008489 0.003364
v 0.153050 0.008377 -0.005000
v 0.153050 0.008377 -0.002000
v 0.157875 0.009980 -0.005000
v 0.156950 0.008377 -0.005000
v 0.156950 0.008377 -0.002000
v 0.158696 0.009405 -0.002000
v 0.153050 0.008377 0.005000
v 0.153050 0.008377 0.002000
v 0.156950 0.008377 0.002000
v 0.157875 0.009980 0.002000
v 0.158696 0.009405 0.005000
v 0.156950 0.008377 0.005000
v 0.122000 0.008180 -0.005000
v 0.121865 0.008488 -0.004000
v 0.122030 0.008207 0.003808
v 0.123146 0.008391 -0.002846
v 0.122242 0.008495 -0.003348
v 0.123879 0.008806 -0.002525
v 0.123106 0.008374 0.002865
v 0.121760 0.008621 -0.005000
v 0.121760 0.008621 0.004000
v 0.123819 0.008785 0.002544
v 0.121336 0.008889 -0.005000
v 0.153666 0.008665 -0.005000
v 0.153666 0.008665 -0.002000
v 0.156966 0.010403 -0.005000
v 0.156334 0.008665 -0.005000
v 0.156334 0.008665 -0.002000
v 0.157875 0.009980 -0.002000
v 0.153666 0.008665 0.005000
v 0.153666 0.008665 0.002000
v 0.156334 0.008665 0.002000
v 0.157345 0.010250 0.002000
v 0.155000 0.010750 0.005000
v 0.157875 0.009980 0.005000
v 0.156334 0.008665 0.005000
v 0.121804 0.008793 0.003435
v 0.124950 0.009063 -0.002336
v 0.122975 0.008893 -0.002692
v 0.121336 0.008889 -0.004000
v 0.121336 0.008889 0.004000
v 0.155000 0.010750 -0.005000
v 0.154323 0.008841 -0.005000
v 0.154323 0.008841 -0.002000
v 0.155998 0.010663 -0.005000
v 0.155677 0.008841 -0.005000
v 0.155677 0.008841 -0.002000
v 0.157345 0.010250 -0.002000
v 0.154323 0.008841 0.005000
v 0.154323 0.008841 0.002000
v 0.155677 0.008841 0.002000
v 0.156966 0.010403 0.005000
v 0.155677 0.008841 0.005000
v 0.121755 0.008778 -0.003522
v 0.122815 0.009071 0.002546
v 0.122372 0.008837 0.002976
v 0.122398 0.008845 -0.002954
v 0.155000 0.008900 -0.005000
v 0.155000 0.008900 -0.002000
v 0.155000 0.008900 0.005000
v 0.155000 0.008900 0.002000
v 0.155998 0.010663 0.005000
v 0.121789 0.008997 -0.002992
v 0.123731 0.009213 -0.002269
v 0.121658 0.009032 0.002909
v 0.123667 0.009197 0.002290
v 0.121977 0.009134 -0.002431
v 0.124780 0.009404 0.002111
v 0.122735 0.009208 -0.002306
v 0.121858 0.009122 0.002332
v 0.126085 0.009749 -0.002030
v 0.122502 0.009250 0.001958
v 0.124839 0.009497 -0.002016
v 0.123578 0.009433 -0.001842
v 0.123437 0.009437 0.001618
v 0.124752 0.009700 -0.001396
v 0.124663 0.009683 0.001404
v 0.125998 0.009834 0.001868
v 0.127139 0.010060 0.002076
v 0.126096 0.009965 -0.001510
v 0.127196 0.010033 -0.002157
v 0.128313 0.010413 -0.000883
v 0.128540 0.010302 0.000144
v 0.128041 0.010246 -0.002403
v 0.128135 0.010375 0.002030
v 0.128165 0.010383 -0.000258
v 0.128565 0.010463 0.001377
v 0.129647 0.010547 0.001931
v 0.128767 0.010405 -0.001119
v 0.128651 0.010416 -0.002643
v 0.156667 0.010495 -0.002075
v 0.128646 0.010435 0.002579
v 0.128835 0.010517 -0.001717
v 0.129676 0.010640 -0.005000
v 0.129676 0.010640 0.005000
v 0.155814 0.010692 -0.002266
v 0.156861 0.010441 0.002038
v 0.156145 0.010622 0.002187
v 0.129436 0.010593 -0.003332
v 0.131188 0.010571 0.002117
v 0.129227 0.010557 0.003045
v 0.129145 0.010575 0.001985
v 0.129368 0.010611 -0.002826
v 0.130363 0.010625 0.002175
v 0.129515 0.010606 0.003492
v 0.129916 0.010682 -0.002375
v 0.129615 0.010622 -0.003880
v 0.129621 0.010622 0.004000
v 0.131188 0.010750 -0.002500
v 0.155000 0.010750 -0.002500
v 0.155294 0.010735 0.002415
v 0.130731 0.010741 0.002500
vn 0.0000 0.0000 -1.0000
vn -0.0872 -0.9962 0.0000
vn 0.0000 -1.0000 0.0000
vn 0.0000 0.0001 -1.0000
vn 0.0493 -0.9988 0.0000
vn 0.0000 0.0000 1.0000
vn -0.1736 0.0000 0.9848
vn -0.5736 0.0053 0.8191
vn -0.5000 0.0000 0.8660
vn -0.7660 -0.0026 0.6428
vn -0.8660 -0.0078 0.5000
vn -0.9397 0.0078 0.3420
vn -0.9848 0.0026 0.1737
vn -1.0000 -0.0026 0.0000
vn -0.9848 0.0026 -0.1737
vn -0.8660 0.0026 -0.5000
vn -0.9397 -0.0026 -0.3420
vn -0.7660 -0.0026 -0.6428
vn -0.5736 0.0053 -0.8191
vn -0.4226 -0.0053 -0.9063
vn -0.1737 0.0026 -0.9848
vn -0.0007 -0.0026 -1.0000
vn 0.1475 -0.9891 0.0000
vn -0.2588 -0.9659 0.0000
vn 0.1961 -0.9806 -0.0000
vn -0.4226 -0.9063 0.0000
vn -0.5736 -0.8191 0.0000
vn -0.5736 -0.8192 0.0000
vn -0.7071 -0.7071 0.0000
vn -0.0872 0.9962 0.0000
vn 0.0872 0.9962 0.0000
vn 0.2588 0.9659 0.0000
vn -0.2588 0.9659 0.0000
vn -0.8192 -0.5736 0.0000
vn 0.4226 0.9063 0.0000
vn -0.4226 0.9063 0.0000
vn 0.5736 0.8192 0.0000
vn -0.5736 0.8192 0.0000
vn 0.7071 0.7071 0.0000
vn -0.7071 0.7071 0.0000
vn -0.9063 -0.4226 0.0000
vn 0.8192 0.5736 0.0000
vn -0.8192 0.5736 0.0000
vn -0.9659 -0.2588 0.0000
vn 0.9063 0.4226 0.0000
vn -0.9063 0.4226 0.0000
vn -0.0000 0.9997 -0.0243
vn 0.0036 0.9150 0.4035
vn 0.0000 1.0000 -0.0000
vn -0.0003 0.9998 -0.0193
vn -0.0493 0.9986 -0.0192
vn -0.0236 -0.9972 0.0703
vn -0.0352 0.9994 0.0000
vn -0.0003 0.9998 0.0193
vn 0.0070 0.9979 0.0642
vn -0.0038 0.9848 0.1736
vn 0.0004 0.9848 0.1736
vn -0.0493 0.9986 0.0192
vn 0.0482 0.9847 0.1672
vn 0.0410 0.9848 0.1688
vn 0.0347 0.9883 -0.1482
vn 0.0100 0.9918 -0.1270
vn 0.0138 0.9906 -0.1359
vn -0.0004 0.9397 0.3420
vn -0.0464 0.9387 0.3417
vn 0.0423 0.9397 0.3394
vn 0.0315 0.9397 0.3406
vn 0.0351 0.9697 0.2416
vn 0.0942 0.9649 0.2450
vn 0.0334 0.7585 0.6508
vn 0.1292 0.9369 0.3249
vn 0.9659 0.2588 0.0000
vn -0.9659 0.2588 0.0000
vn 0.1444 0.9413 -0.3050
vn 0.1281 0.9476 -0.2928
vn 0.0306 0.9488 -0.3144
vn 0.0158 0.9766 -0.2147
vn 0.0970 0.9429 -0.3187
vn 0.0708 0.9766 -0.2033
vn -0.0069 0.9848 -0.1736
vn 0.0004 0.9848 -0.1736
vn 0.0810 0.9362 -0.3420
vn 0.1568 0.9594 -0.2342
vn -0.1475 0.9891 0.0000
vn -0.1584 0.9872 -0.0192
vn -0.1475 0.9889 0.0192
vn -0.0004 0.9397 -0.3420
vn -0.0628 0.9828 -0.1735
vn -0.0321 0.9392 -0.3418
vn -0.1312 0.9760 -0.1735
vn -0.1386 0.9295 0.3417
vn -0.1619 0.8917 0.4226
vn 0.0142 0.8659 0.5000
vn 0.0004 0.8660 0.5000
vn 0.1211 0.8659 0.4853
vn 0.0934 0.8659 0.4914
vn 0.2377 0.7656 0.5978
vn 0.1839 0.7659 0.6162
vn -0.0320 -0.8870 0.4606
vn 0.0533 0.8945 -0.4439
vn 0.0499 0.8703 -0.4901
vn 0.0142 0.8935 -0.4488
vn 0.0345 0.8704 -0.4912
vn -0.1618 0.8918 -0.4226
vn -0.1278 0.8568 -0.4995
vn -0.0571 0.8643 -0.4998
vn -0.0140 0.8191 -0.5735
vn 0.2619 0.7132 -0.6502
vn 0.0008 0.8192 -0.5736
vn 0.2663 0.5782 0.7712
vn -0.1961 0.9804 -0.0192
vn -0.1913 0.9815 0.0000
vn -0.1961 0.9804 0.0192
vn -0.1961 0.9804 0.0193
vn -0.1980 0.9647 -0.1736
vn 0.9966 0.0024 0.0826
vn -0.9962 -0.0872 0.0000
vn 0.0000 0.7660 -0.6428
vn -0.0233 0.7658 -0.6426
vn 0.0793 0.6408 0.7636
vn -0.0011 0.6428 0.7660
vn 0.0011 0.7660 0.6428
vn -0.0378 0.7655 0.6423
vn 0.0913 0.7659 0.6365
vn -0.0019 0.7641 0.6451
vn 0.1925 0.6425 0.7417
vn 0.1361 0.6425 0.7541
vn 0.2928 0.7658 0.5726
vn 0.9914 0.0039 0.1311
vn 0.1593 -0.9872 0.0017
vn 0.1869 -0.9824 -0.0001
vn 0.1475 -0.9890 -0.0092
vn 0.1069 -0.9942 0.0125
vn 0.1942 -0.9810 0.0000
vn 0.9689 0.0208 -0.2464
vn 0.1747 -0.9846 -0.0004
vn 0.1410 -0.9900 -0.0046
vn 0.1475 -0.9891 -0.0026
vn 0.9156 0.0044 0.4020
vn 0.9854 -0.0003 0.1701
vn 0.7980 0.0128 -0.6025
vn 0.2631 0.7938 -0.5484
vn 0.2449 0.7940 -0.5564
vn 0.1298 0.7200 -0.6818
vn 0.1703 0.7196 -0.6732
vn 0.7351 0.0082 0.6779
vn 0.8781 0.0010 0.4784
vn 0.8365 0.0110 -0.5478
vn -0.1777 0.8887 -0.4226
vn -0.1554 0.8520 -0.4999
vn -0.1843 0.9214 0.3420
vn -0.1681 0.8906 0.4226
vn -0.0987 0.7598 0.6426
vn 0.6490 0.0017 -0.7608
vn 0.6139 0.0031 -0.7893
vn 0.5733 0.0016 0.8193
vn 0.4011 0.0071 0.9160
vn 0.2470 0.6936 -0.6767
vn 0.1897 0.6871 -0.7013
vn 0.1840 0.6926 -0.6975
vn 0.1696 0.6869 -0.7067
vn 0.1530 0.6927 -0.7049
vn 0.0877 0.6937 -0.7149
vn 0.0493 -0.9988 0.0044
vn 0.0895 -0.9960 0.0011
vn 0.0493 -0.9988 -0.0044
vn 0.4630 -0.0022 -0.8864
vn 0.3245 0.0023 -0.9459
vn 0.3854 0.5290 0.7561
vn 0.3149 0.0015 0.9491
vn 0.0320 -0.9995 0.0000
vn -0.0014 0.0109 0.9999
vn 0.0401 -0.1580 0.9866
vn 0.0006 0.0025 -1.0000
vn 0.0013 0.0001 -1.0000
vn 0.0401 -0.1580 -0.9866
vn 0.1676 -0.0026 -0.9859
vn 0.0872 -0.9962 0.0000
vn -0.0949 0.6362 -0.7657
vn -0.0464 0.6412 -0.7659
vn -0.1093 0.6336 0.7659
vn 0.9962 0.0872 0.0000
vn -0.9962 0.0872 0.0000
vn -0.0015 0.0001 -1.0000
vn 0.3693 0.5409 -0.7557
vn 0.0634 0.6111 -0.7890
vn 0.0443 0.6111 -0.7903
vn 0.2588 -0.9659 0.0000
vn -0.1261 0.6303 -0.7660
vn -0.1551 0.7502 0.6428
vn 0.3783 0.5357 -0.7549
vn 0.0000 0.5000 -0.8660
vn -0.0098 0.5000 -0.8660
vn -0.0004 0.5000 0.8660
vn -0.0702 0.4988 0.8639
vn -0.0209 0.4225 0.9061
vn 0.1219 0.4225 0.8981
vn 0.0736 0.4225 0.9034
vn 0.3349 0.4221 0.8424
vn 0.2657 0.4225 0.8665
vn 0.3864 0.4226 0.8198
vn 0.3643 0.5174 -0.7743
vn 0.3262 0.5176 -0.7910
vn 0.3186 0.3020 -0.8985
vn 0.2224 0.3025 -0.9268
vn 0.1240 0.3020 -0.9452
vn 0.0101 0.5000 -0.8660
vn -0.0624 0.4184 0.9061
vn -0.0077 0.3466 0.9380
vn 0.4461 0.2872 0.8476
vn 0.4806 0.3051 -0.8222
vn -0.1212 0.6313 0.7660
vn 0.4226 -0.9063 0.0000
vn 0.3129 0.4144 -0.8546
vn 0.2354 0.4134 -0.8796
vn 0.1900 0.4135 -0.8905
vn 0.1101 0.4144 -0.9034
vn 0.0508 0.3416 0.9385
vn 0.0004 0.3420 0.9397
vn 0.2343 0.2587 0.9371
vn 0.1801 0.2587 0.9490
vn -0.1029 0.4893 0.8660
vn -0.0622 0.3363 0.9397
vn -0.0505 0.3386 -0.9396
vn -0.0320 0.3405 -0.9397
vn 0.0771 0.3026 -0.9500
vn 0.0529 0.3026 -0.9517
vn -0.2702 0.9622 0.0328
vn -0.2556 0.9668 0.0000
vn -0.2469 0.9688 0.0192
vn -0.2702 0.9622 -0.0328
vn 0.0000 0.1736 -0.9848
vn 0.0068 0.1736 -0.9848
vn -0.0004 0.1736 0.9848
vn 0.0068 0.1736 0.9848
vn -0.2517 0.9521 -0.1733
vn -0.2291 0.9115 0.3417
vn -0.2628 0.9491 0.1734
vn 0.9962 -0.0872 0.0000
vn -0.0014 -0.0001 -1.0000
vn -0.0814 0.3325 -0.9396
vn -0.0508 0.2538 -0.9659
vn 0.5736 -0.8191 0.0000
vn 0.5736 -0.8192 0.0000
vn -0.2215 0.8376 -0.4993
vn -0.2326 0.8344 0.4996
vn 0.4580 0.1843 -0.8696
vn 0.4185 0.1842 -0.8894
vn 0.3746 0.1843 -0.9087
vn 0.0152 0.1736 -0.9847
vn -0.1845 0.7438 0.6424
vn 0.4185 -0.1842 -0.8894
vn 0.3435 0.0619 -0.9371
vn 0.3748 -0.1843 -0.9086
vn 0.3167 0.0619 -0.9465
vn 0.1475 0.0619 -0.9871
vn 0.1208 0.0619 -0.9907
vn 0.0540 0.0000 0.9985
vn 0.0004 0.0000 1.0000
vn -0.0004 -0.1736 0.9848
vn 0.0245 -0.1736 0.9845
vn -0.0156 -0.0015 0.9999
vn 0.1494 0.0000 0.9888
vn 0.3694 0.0000 0.9293
vn 0.2788 0.0000 0.9603
vn 0.4632 0.0000 0.8862
vn 0.4645 0.0051 0.8856
vn -0.2319 0.7858 -0.5734
vn -0.1529 0.6247 -0.7658
vn 0.0129 -0.0863 -0.9962
vn -0.0267 -0.0902 -0.9956
vn 0.5063 -0.0929 -0.8573
vn 0.3282 -0.3026 -0.8949
vn 0.2789 -0.0619 -0.9583
vn 0.3027 -0.3026 -0.9038
vn 0.2316 -0.1226 -0.9651
vn 0.1951 -0.0618 -0.9788
vn 0.2051 -0.1227 -0.9710
vn 0.0409 -0.1815 -0.9825
vn 0.0726 -0.1816 -0.9807
vn -0.3714 0.9281 -0.0246
vn -0.3714 0.9281 0.0246
vn -0.1280 0.4841 0.8656
vn -0.1694 0.5481 0.8191
vn -0.3659 0.9144 -0.1733
vn -0.3976 0.9011 0.1729
vn -0.3176 0.8849 0.3406
vn -0.3701 0.9249 0.0870
vn 0.0000 -0.1736 -0.9848
vn 0.0006 -0.2472 -0.9690
vn 0.0298 -0.2471 -0.9685
vn 0.0086 -0.1736 -0.9848
vn 0.2511 -0.1735 0.9523
vn 0.1711 -0.1735 0.9699
vn 0.0472 0.0094 -0.9988
vn 0.0048 0.0010 -1.0000
vn -0.0389 0.1693 0.9848
vn 0.0048 0.0010 1.0000
vn -0.3110 0.8085 0.4996
vn 0.7071 -0.7071 0.0000
vn 0.4612 -0.1843 -0.8680
vn -0.4135 0.9102 -0.0246
vn -0.4136 0.9103 -0.0192
vn -0.3816 0.9240 0.0246
vn 0.9659 -0.2588 0.0000
vn -0.0319 0.9819 -0.1865
vn 0.0194 -0.5955 -0.8031
vn -0.0150 0.8529 -0.5219
vn 0.0246 -0.4845 -0.8744
vn -0.0014 -0.0004 -1.0000
vn -0.0292 0.9893 -0.1431
vn 0.0296 -0.7794 0.6258
vn -0.3697 0.9240 0.0980
vn -0.3219 0.8044 -0.4993
vn -0.2826 0.7690 -0.5734
vn -0.2956 0.7071 0.6424
vn 0.0490 -0.4221 0.9052
vn 0.0008 -0.4226 0.9063
vn -0.0113 -0.4252 0.9050
vn 0.1396 -0.3418 0.9294
vn 0.0138 -0.3407 0.9401
vn 0.3472 -0.3416 0.8734
vn 0.2628 -0.3418 0.9023
vn 0.4823 -0.3403 0.8072
vn 0.4287 -0.4046 0.8078
vn 0.0411 -0.2557 -0.9659
vn 0.1409 -0.3027 -0.9426
vn 0.0964 -0.3025 -0.9483
vn 0.0950 -0.4147 0.9050
vn 0.0505 -0.3386 0.9396
vn -0.1310 0.4018 -0.9063
vn -0.0420 0.2555 -0.9659
vn -0.0445 0.1682 0.9848
vn 0.2062 -0.5113 -0.8343
vn 0.2350 -0.5115 -0.8266
vn -0.2134 0.5332 0.8186
vn -0.1542 0.4790 0.8642
vn 0.4394 -0.4484 -0.7784
vn -0.0003 -0.5000 -0.8660
vn 0.0247 -0.4998 -0.8658
vn 0.0000 -0.5000 0.8660
vn 0.0247 -0.4999 0.8658
vn 0.2193 -0.4997 0.8380
vn 0.1521 -0.4997 0.8527
vn 0.0346 -0.3417 -0.9392
vn 0.0671 -0.3354 -0.9397
vn 0.0292 -0.1712 0.9848
vn 0.0719 -0.3344 0.9397
vn 0.0902 -0.4931 -0.8653
vn 0.3817 -0.5177 -0.7657
vn 0.3643 -0.5174 -0.7743
vn 0.3643 -0.5175 -0.7742
vn 0.3267 -0.5176 -0.7908
vn 0.2307 -0.5169 -0.8244
vn 0.1608 -0.5178 -0.8403
vn -0.2499 0.5926 -0.7658
vn -0.1345 0.4006 -0.9063
vn 0.0004 -0.6127 -0.7903
vn 0.0238 -0.6125 -0.7901
vn 0.1114 -0.6425 0.7581
vn 0.0539 -0.6425 0.7644
vn 0.2832 -0.6422 0.7123
vn 0.2166 -0.6425 0.7350
vn 0.3261 -0.6428 0.6932
vn -0.4816 0.8758 -0.0329
vn -0.4691 0.8825 0.0329
vn 0.8192 -0.5736 0.0000
vn 0.8191 -0.5736 0.0000
vn 0.2722 -0.6111 -0.7433
vn 0.2362 -0.6109 -0.7557
vn 0.1216 -0.7941 -0.5955
vn 0.0573 -0.7195 -0.6921
vn 0.1019 -0.7940 -0.5994
vn 0.0800 -0.6109 -0.7877
vn 0.1343 -0.7194 -0.6815
vn 0.0228 -0.6108 -0.7914
vn -0.4746 0.8630 -0.1733
vn -0.4529 0.8236 0.3415
vn -0.4801 0.8729 0.0870
vn -0.4854 0.8351 0.2587
vn 0.9063 -0.4226 0.0000
vn -0.0013 -0.0006 -1.0000
vn 0.1261 -0.6303 -0.7660
vn 0.0644 -0.7634 -0.6427
vn 0.0378 -0.7655 -0.6423
vn 0.0784 -0.6391 0.7651
vn -0.4175 0.7592 -0.4993
vn 0.3155 -0.7097 0.6299
vn -0.3694 0.6717 0.6421
vn -0.0005 -0.8192 -0.5736
vn 0.0745 -0.8169 -0.5720
vn 0.0221 -0.7659 0.6426
vn 0.0000 -0.7660 0.6428
vn 0.0378 -0.7655 0.6423
vn 0.1595 -0.7659 0.6229
vn 0.1163 -0.7659 0.6324
vn -0.0646 0.1615 0.9848
vn -0.0120 -0.0040 -0.9999
vn 0.0445 -0.1682 0.9848
vn 0.2704 -0.7724 -0.5747
vn 0.0004 -0.8709 -0.4914
vn 0.0128 -0.8709 -0.4914
vn 0.1044 -0.6998 -0.7067
vn 0.1298 -0.7558 0.6418
vn 0.1483 -0.6914 -0.7071
vn 0.0932 -0.4913 0.8660
vn 0.1309 -0.6293 0.7660
vn 0.5736 0.8191 0.0000
vn -0.5736 0.8191 0.0000
vn 0.2425 -0.7940 -0.5575
vn 0.2396 -0.7940 -0.5587
vn 0.0681 -0.8659 0.4955
vn 0.0398 -0.8659 0.4986
vn 0.1849 -0.8657 0.4651
vn 0.1459 -0.8659 0.4784
vn 0.1815 -0.8956 0.4060
vn 0.0429 -0.9313 -0.3618
vn 0.1088 -0.9311 -0.3482
vn 0.1099 -0.9316 -0.3463
vn 0.1699 -0.9279 -0.3319
vn 0.0162 -0.8702 -0.4923
vn 0.0120 -0.8702 -0.4926
vn 0.1386 -0.9295 -0.3416
vn 0.0291 -0.9395 -0.3413
vn 0.1109 -0.8594 0.4991
vn -0.1273 0.3181 -0.9395
vn 0.0055 -0.9397 0.3420
vn 0.0000 -0.9397 0.3420
vn -0.0053 -0.9397 0.3420
vn 0.0477 -0.9648 0.2585
vn 0.0787 -0.9397 0.3329
vn 0.0680 -0.9397 0.3352
vn 0.1650 -0.8502 -0.5000
vn -0.4816 0.8757 -0.0329
vn -0.5467 0.8359 0.0492
vn -0.4816 0.8757 0.0329
vn -0.5823 0.8071 -0.0980
vn -0.5472 0.8367 0.0246
vn 0.1078 -0.9561 -0.2726
vn 0.0485 -0.9573 -0.2851
vn 0.0468 -0.9573 -0.2854
vn 0.0914 -0.2454 -0.9651
vn -0.3101 0.5638 -0.7655
vn -0.2413 0.4387 0.8656
vn -0.0527 0.9346 0.3519
vn 0.0375 -0.9237 -0.3813
vn 0.0538 -0.9584 0.2804
vn 0.0451 -0.9848 0.1680
vn 0.1764 -0.9499 0.2579
vn -0.0001 -0.9848 -0.1736
vn 0.0659 -0.9827 -0.1733
vn 0.0149 -0.9848 0.1730
vn 0.0226 -0.9848 0.1722
vn 0.0590 -0.9848 0.1634
vn -0.0033 -0.9914 -0.1305
vn -0.0002 -0.9996 -0.0291
vn -0.0009 -0.9960 -0.0896
vn 0.0011 -1.0000 0.0000
vn -0.0504 0.9537 0.2964
vn -0.0020 -0.9965 -0.0831
vn 0.0358 -0.9992 -0.0192
vn 0.0000 -0.9998 0.0193
vn -0.0000 -0.9998 0.0210
vn 0.0046 -0.9991 0.0425
vn -0.0146 0.9909 -0.1342
vn 0.0628 -0.9978 0.0192
vn -0.0016 -0.0006 1.0000
vn 0.1083 -0.9601 -0.2579
vn 0.1453 -0.9741 0.1734
vn 0.1454 -0.7521 0.6428
vn 0.1747 -0.8482 0.5000
vn 0.1475 -0.9889 -0.0192
vn 0.1647 -0.9863 0.0000
vn -0.0013 -0.0009 -1.0000
vn 0.0646 -0.1615 0.9848
vn 0.1894 -0.9472 -0.2588
vn 0.2075 -0.9627 -0.1736
vn 0.1794 -0.9224 0.3420
vn 0.0876 -0.3312 -0.9395
vn 0.1980 -0.9647 0.1736
vn 0.1923 -0.9811 0.0193
vn -0.1651 0.3002 -0.9395
vn 0.1273 -0.3181 -0.9395
vn -0.5849 0.8107 -0.0246
vn -0.5829 0.8079 0.0870
vn 0.1645 -0.6221 -0.7654
vn 0.1280 -0.4841 0.8656
vn 0.0767 0.0000 -0.9971
vn -0.5762 0.7987 -0.1733
vn -0.5222 0.7818 0.3406
vn -0.5652 0.7834 0.2584
vn 0.8191 0.5736 0.0000
vn -0.8191 0.5736 0.0000
vn -0.8192 0.5735 0.0000
vn -0.0012 -0.0012 -1.0000
vn -0.0421 0.0765 0.9962
vn -0.1183 0.1359 0.9836
vn -0.5069 0.7026 -0.4993
vn -0.5069 0.7027 -0.4993
vn -0.4486 0.6217 0.6421
vn 0.1645 -0.6221 -0.7655
vn -0.3765 0.5218 -0.7655
vn 0.2215 -0.8376 -0.4993
vn 0.1960 -0.7412 0.6421
vn 0.0955 -0.1469 0.9845
vn 0.2391 -0.5974 -0.7654
vn 0.1474 -0.4779 0.8660
vn 0.2134 -0.5332 0.8186
vn -0.2930 0.4060 0.8656
vn -0.2930 0.4061 0.8656
vn 0.2402 -0.9087 0.3414
vn -0.0012 -0.0017 -1.0000
vn 0.2391 -0.5974 -0.7655
vn 0.2049 -0.8835 -0.4212
vn 0.2653 -0.9485 -0.1732
vn 0.2403 -0.9087 0.3415
vn -0.9063 0.4227 0.0000
vn 0.2782 -0.9605 0.0000
vn 0.2696 -0.9628 0.0193
vn 0.2709 -0.9354 -0.2273
vn 0.2556 -0.9666 0.0192
vn 0.2695 -0.9622 0.0391
vn 0.2976 -0.7069 0.6416
vn -0.2004 0.2778 -0.9395
vn -0.1018 0.1411 0.9848
vn -0.6679 0.7435 0.0328
vn -0.6113 0.7910 0.0246
vn -0.6683 0.7439 -0.0064
vn 0.1651 -0.3002 -0.9395
vn 0.1817 -0.3845 0.9051
vn 0.3368 -0.8417 -0.4220
vn 0.3091 -0.8097 0.4989
vn -0.0012 -0.0010 -1.0000
vn -0.0298 0.0843 0.9960
vn 0.3601 -0.7876 -0.5000
vn 0.3621 -0.8674 0.3412
vn 0.3101 -0.5638 -0.7655
vn 0.3007 -0.4910 0.8176
vn 0.3529 -0.9195 -0.1732
vn 0.3701 -0.9249 -0.0870
vn 0.3701 -0.9249 0.0870
vn 0.3529 -0.9195 0.1732
vn 0.4370 -0.8992 -0.0194
vn -0.6796 0.7336 0.0000
vn -0.6711 0.7414 0.0000
vn -0.6939 0.6990 -0.1729
vn -0.6566 0.7088 -0.2578
vn -0.6776 0.7146 0.1735
vn -0.6302 0.6972 0.3417
vn -0.5802 0.6433 -0.4996
vn -0.5972 0.6276 0.4996
vn 0.0918 -0.1492 0.9845
vn 0.4114 -0.9106 -0.0389
vn 0.3715 -0.9282 0.0195
vn 0.4116 -0.9111 -0.0194
vn 0.3705 -0.9258 0.0752
vn -0.5303 0.5551 -0.6408
vn -0.5121 0.5701 0.6424
vn -0.4284 0.4797 -0.7658
vn -0.4457 0.4637 0.7658
vn 0.3713 -0.7315 0.5719
vn 0.4175 -0.7592 -0.4993
vn 0.4175 -0.7592 0.4993
vn -0.3310 0.3751 0.8659
vn 0.4746 -0.8630 -0.1733
vn 0.2004 -0.2778 -0.9395
vn 0.3227 -0.3820 0.8660
vn 0.2477 -0.3433 0.9060
vn 0.4746 -0.8630 0.1733
vn -0.3502 0.3599 -0.8648
vn -0.2420 0.2435 0.9392
vn 0.4817 -0.8759 0.0267
vn 0.4817 -0.8759 -0.0267
vn 0.9962 0.0871 0.0000
vn -0.0048 -0.0004 1.0000
vn -0.9962 0.0871 0.0000
vn 0.3765 -0.5218 -0.7655
vn -0.2615 0.2272 -0.9381
vn -0.0934 0.1533 -0.9837
vn -0.1089 0.1353 0.9848
vn 0.5830 -0.8080 -0.0851
vn 0.5442 -0.8387 0.0218
vn 0.5439 -0.8382 0.0401
vn 0.0098 0.0080 -0.9999
vn 0.5069 -0.7026 -0.4993
vn 0.4796 -0.6647 0.5729
vn 0.1182 -0.1276 0.9848
vn 0.0392 -0.0806 0.9960
vn 0.5762 -0.7987 -0.1733
vn 0.9962 -0.0871 0.0000
vn -0.0046 0.0004 1.0000
vn -0.9962 -0.0871 0.0000
vn -0.7229 0.6906 -0.0198
vn -0.7255 0.6882 0.0000
vn -0.7239 0.6899 0.0085
vn -0.7231 0.6908 0.0000
vn -0.6932 0.6694 0.2672
vn -0.7151 0.6771 0.1737
vn 0.5762 -0.7987 0.1733
vn 0.2429 -0.2429 -0.9391
vn 0.1093 -0.1369 -0.9845
vn -0.6824 0.6636 -0.3065
vn -0.6964 0.6696 -0.2582
vn 0.5850 -0.8108 -0.0219
vn -0.6017 0.5730 -0.5564
vn -0.6244 0.6001 0.5000
vn -0.6099 0.5826 0.5372
vn -0.5526 0.5324 -0.6412
vn 0.3299 -0.3753 -0.8662
vn 0.3407 -0.3669 0.8656
vn 0.3391 -0.3661 0.8666
vn -0.5185 0.4954 -0.6970
vn -0.4643 0.4446 0.7660
vn -0.5041 0.4922 0.7097
vn -0.3958 0.3782 -0.8368
vn 0.4470 -0.4636 -0.7650
vn -0.3849 0.3650 0.8477
vn -0.3601 0.3496 -0.8649
vn -0.2467 0.2385 0.9393
vn -0.3000 0.2837 0.9108
vn -0.0044 0.0012 1.0000
vn -0.0493 0.9988 0.0000
vn -0.2226 0.2084 -0.9524
vn -0.1216 0.1241 -0.9848
vn 0.5850 -0.8108 0.0219
vn 0.6643 -0.7469 -0.0291
vn 0.6643 -0.7469 0.0291
vn 0.5894 -0.6351 -0.4993
vn 0.5334 -0.6176 -0.5779
vn 0.5774 -0.5828 0.5718
vn 0.5173 -0.5610 0.6463
vn -0.2063 0.1950 0.9589
vn -0.1926 0.9809 -0.0267
vn -0.1961 0.9806 0.0000
vn -0.1980 0.9797 0.0305
vn -0.0124 0.0050 -0.9999
vn 0.6672 -0.7244 -0.1733
vn 0.6776 -0.7211 -0.1444
vn 0.6307 -0.7063 0.3215
vn 0.6784 -0.7140 0.1732
vn 0.6775 -0.7356 0.0000
vn 0.6725 -0.7400 0.0112
vn 0.0379 -0.0432 -0.9983
vn 0.0013 0.0018 1.0000
vn 0.2113 -0.1704 0.9625
vn 0.0750 -0.0431 0.9962
vn -0.9063 -0.4227 0.0000
vn -0.0042 0.0020 1.0000
vn 0.1838 -0.1594 -0.9699
vn 0.1225 -0.1232 -0.9848
vn 0.3036 -0.2978 -0.9050
vn 0.2975 -0.2929 0.9087
vn 0.4511 -0.4405 0.7762
vn 0.3648 -0.3395 -0.8670
vn 0.3652 -0.3390 0.8670
vn 0.3933 -0.3786 -0.8378
vn 0.3807 -0.3602 0.8517
vn 0.5023 -0.4828 -0.7174
vn -0.8191 -0.5736 0.0000
vn -0.0041 0.0029 1.0000
vn -0.8192 -0.5735 0.0000
vn 0.6454 -0.5189 -0.5605
vn 0.5526 -0.5302 0.6430
vn 0.5457 -0.5325 0.6471
vn 0.7180 -0.6128 0.3301
vn 0.6553 -0.4137 -0.6320
vn -0.0039 0.0039 1.0000
vn 0.8705 -0.4922 0.0000
vn 0.8915 -0.4525 0.0227
vn 0.8705 -0.4922 0.0011
vn 0.8425 -0.4764 -0.2516
vn 0.7405 -0.5401 0.4000
vn 0.8600 -0.4530 -0.2351
vn 0.5517 -0.1496 0.8205
vn 0.7377 -0.2198 -0.6383
vn 0.9153 0.0314 0.4015
vn -0.0038 0.0054 1.0000
vn 1.0000 -0.0074 0.0000
vn 0.9834 0.1605 0.0842
vn 0.9983 -0.0577 0.0023
vn 0.9997 -0.0073 0.0246
vn 0.5651 -0.2621 -0.7823
vn 0.4374 -0.1645 -0.8841
vn 0.4299 -0.0663 0.9004
vn 0.9021 0.1472 -0.4057
vn 0.5602 0.1770 -0.8092
vn 0.8949 0.0661 0.4414
vn 0.2598 0.0223 -0.9654
vn 0.5519 -0.1493 0.8205
vn 0.4978 0.0421 0.8663
vn 0.8773 0.4792 -0.0284
vn 0.8437 0.5358 0.0330
vn 0.8776 0.4794 0.0000
vn 0.4890 0.0402 -0.8714
vn 0.8002 0.2762 0.5324
vn 0.4827 -0.1648 0.8602
vn 0.2520 0.0188 0.9676
vn 0.4717 -0.1627 -0.8666
vn 0.8631 0.0664 -0.5007
vn 0.2459 -0.1484 0.9579
vn 0.3887 -0.9214 -0.0001
vn -0.0035 0.0076 1.0000
vn 0.1330 0.0442 0.9901
vn 0.1302 0.0600 -0.9897
vn 0.5894 0.7587 0.2773
vn 0.1440 0.1229 -0.9819
vn 0.4798 0.4024 -0.7797
vn 0.5334 0.8440 0.0559
vn 0.6037 0.7972 0.0000
vn 0.5342 0.8454 0.0000
vn 0.5117 0.8098 0.2869
vn -0.0032 0.0119 0.9999
vn 0.5596 0.7593 -0.3321
vn -0.0021 0.1004 0.9949
vn 0.4719 0.5228 0.7099
vn 0.3381 0.6355 0.6941
vn 0.2614 0.6678 -0.6969
vn 0.5707 0.7536 -0.3262
vn 0.1318 0.4585 0.8789
vn 0.2022 0.3493 -0.9149
vn 0.2510 0.9680 0.0041
vn -0.0035 0.0075 1.0000
vn 0.5017 0.5440 0.6726
vn 0.5371 0.5136 -0.6691
vn 0.2507 0.9625 -0.1033
vn -0.0144 0.9245 -0.3810
vn 0.0562 0.9984 0.0000
vn 0.0562 0.9974 0.0445
vn 0.2015 0.5732 -0.7943
vn 0.1583 0.9867 -0.0357
vn 0.1649 0.9688 0.1849
vn 0.0559 0.9930 -0.1040
vn 0.2456 0.8904 -0.3832
vn 0.0184 -0.9981 0.0583
vn -0.0575 0.1475 -0.9874
vn -0.0000 0.9109 0.4127
vn 0.1608 0.5608 0.8122
vn 0.2153 0.9106 0.3529
vn 0.2480 0.9185 -0.3081
vn 0.1051 0.4553 0.8841
vn 0.1830 0.8138 -0.5516
vn 0.2361 0.9444 0.2290
vn -0.0696 0.9890 0.1302
vn -0.0165 0.9725 -0.2323
vn -0.1813 0.9834 -0.0020
vn -0.0648 0.4935 -0.8673
vn -0.1404 0.9233 0.3575
vn 0.0356 0.9242 0.3803
vn -0.0056 0.8734 -0.4870
vn 0.0360 0.5347 0.8443
vn -0.1974 0.9803 -0.0024
vn 0.0512 0.5454 -0.8366
vn 0.0004 0.5929 -0.8053
vn -0.0952 0.9953 -0.0150
vn -0.0458 0.9481 0.3146
vn 0.0195 0.7799 -0.6256
vn 0.0125 0.8910 -0.4539
vn -0.1248 0.4092 0.9039
vn -0.0577 0.9334 0.3543
vn -0.2033 0.9789 -0.0208
vn -0.2514 0.9678 -0.0115
vn -0.1635 0.9304 -0.3281
vn -0.1105 0.9186 0.3795
vn -0.1193 0.9210 0.3709
vn -0.0253 0.8852 -0.4646
vn -0.0733 0.6409 0.7641
vn -0.1240 0.5676 -0.8139
vn -0.2185 0.9758 -0.0102
vn -0.3066 0.4447 -0.8416
vn -0.1724 -0.0529 0.9836
vn -0.2361 0.8904 0.3892
vn -0.1905 0.9246 -0.3299
vn 0.3886 -0.9214 0.0002
vn -0.2577 0.6075 0.7514
vn -0.3097 0.6558 0.6885
vn -0.2092 0.9049 -0.3707
vn -0.1244 0.9916 0.0348
vn -0.1929 0.9812 0.0001
vn -0.2406 0.5988 -0.7639
vn -0.4330 0.5817 0.6885
vn -0.2699 0.8915 -0.3638
vn -0.2000 0.9793 0.0321
vn -0.1530 0.9758 -0.1563
vn -0.2073 0.9777 0.0343
vn 0.8047 0.5655 -0.1809
vn 0.4226 0.9063 -0.0070
vn 0.4545 0.8907 0.0000
vn 0.4226 0.9063 0.0070
vn -0.4486 0.6604 -0.6022
vn -0.3589 0.5777 -0.7331
vn -0.2319 0.8126 0.5347
vn -0.4090 0.9110 -0.0536
vn -0.1790 0.9838 -0.0065
vn 0.0454 0.9866 0.1565
vn -0.3035 0.9502 -0.0712
vn -0.3643 0.9046 -0.2214
vn 0.4026 0.8415 0.3604
vn -0.5207 0.6422 -0.5625
vn -0.2597 0.9639 -0.0592
vn 0.3746 0.5484 -0.7476
vn 0.4956 0.7288 0.4725
vn -0.5215 0.7554 0.3967
vn -0.4145 0.7410 -0.5283
vn -0.0003 0.2930 0.9561
vn 0.3397 0.9405 0.0052
vn 0.6102 0.7713 0.1809
vn -0.5162 0.7594 0.3960
vn 0.6133 0.6573 -0.4379
vn 0.3002 0.7783 0.5515
vn 0.3891 0.8963 0.2126
vn -0.5590 0.7268 -0.3990
vn -0.5366 0.7536 0.3797
vn -0.1528 0.9877 0.0330
vn -0.2856 0.9572 -0.0477
vn -0.2797 0.9585 -0.0550
vn 0.2588 0.9659 0.0070
vn 0.2264 0.9740 -0.0075
vn 0.3660 0.9306 -0.0013
vn 0.2467 0.9691 0.0034
vn 0.2588 0.9659 -0.0004
vn -0.0001 0.1941 -0.9810
vn 0.3509 0.9252 -0.1441
vn -0.5173 0.7599 -0.3935
vn 0.1192 0.9733 0.1964
vn 0.6394 0.3863 -0.6648
vn 0.1558 0.8850 -0.4388
vn -0.0012 0.3357 -0.9420
vn 0.2359 0.8890 0.3926
vn -0.4627 0.8075 0.3658
vn -0.2270 0.9732 0.0377
vn 0.0845 0.9518 0.2950
vn -0.1530 0.9860 -0.0664
vn 0.0312 0.9774 -0.2093
vn -0.5360 0.8284 -0.1628
vn -0.2789 0.9577 -0.0712
vn -0.5944 0.7827 0.1846
vn 0.2540 0.4129 -0.8746
vn -0.4662 0.8604 0.2059
vn -0.1916 0.9791 -0.0687
vn -0.2302 0.9648 0.1275
vn 0.2235 0.7930 0.5668
vn 0.0005 0.6975 0.7166
vn 0.0009 0.6357 -0.7719
vn -0.5202 0.8539 -0.0139
vn -0.5293 0.8484 -0.0096
vn -0.5370 0.8436 0.0043
vn -0.5202 0.8539 0.0133
vn 0.1005 0.4958 -0.8626
vn -0.0316 0.8432 0.5366
vn -0.0906 0.9948 -0.0471
vn -0.5588 0.8172 -0.1409
vn -0.0927 0.9947 -0.0437
vn -0.5617 0.8224 0.0905
vn -0.0023 0.8844 0.4667
vn -0.0958 0.9943 -0.0478
vn 0.0727 0.9973 -0.0058
vn 0.1294 0.9916 -0.0075
vn 0.0872 0.9962 0.0041
vn -0.1717 0.9851 -0.0055
vn -0.0006 0.8954 -0.4452
vn -0.0538 0.9983 -0.0207
vn -0.2195 0.9756 0.0045
vn -0.0415 0.9990 -0.0157
vn -0.0404 0.3813 -0.9236
vn -0.0723 0.9973 -0.0094
vn -0.2485 0.9664 -0.0658
vn -0.0723 0.9973 0.0097
vn 0.0000 0.9706 0.2408
vn 0.1439 0.9850 0.0951
vn 0.0337 0.9279 -0.3714
vn -0.4310 0.9024 0.0000
vn 0.3039 0.9509 -0.0589
vn -0.0060 0.9981 -0.0618
vn 0.0000 1.0000 -0.0058
usemtl Tilt_Middle_Linkagemat
s off
f 1//1 2//1 3//1
f 2//1 4//1 3//1
f 5//1 6//1 3//1
f 6//1 7//1 3//1
f 7//1 1//1 3//1
f 8//2 5//2 3//2
f 9//2 8//2 3//2
f 10//3 9//3 3//3
f 4//3 10//3 3//3
f 11//1 12//1 4//1
f 12//1 13//1 4//1
f 13//1 14//1 4//1
f 14//1 15//1 4//1
f 2//1 16//1 4//1
f 16//1 11//1 4//1
f 17//1 18//1 4//1
f 18//1 19//1 4//1
f 19//1 20//1 4//1
f 21//1 22//1 4//1
f 22//1 23//1 4//1
f 23//1 17//1 4//1
f 24//1 25//1 4//1
f 25//1 26//1 4//1
f 26//1 21//1 4//1
f 15//1 27//1 4//1
f 27//4 24//4 4//4
f 28//3 29//3 4//3
f 29//3 30//3 4//3
f 30//3 31//3 4//3
f 31//3 32//3 4//3
f 32//3 10//3 4//3
f 20//5 28//5 4//5
f 33//6 34//6 9//6
f 10//6 33//6 9//6
f 35//6 8//6 9//6
f 36//6 35//6 9//6
f 34//6 36//6 9//6
f 37//6 38//6 10//6
f 39//6 37//6 10//6
f 38//6 40//6 10//6
f 40//6 41//6 10//6
f 41//6 42//6 10//6
f 43//6 33//6 10//6
f 42//6 43//6 10//6
f 32//7 44//7 10//7
f 44//7 39//7 10//7
f 31//8 45//8 32//8
f 45//9 44//9 32//9
f 46//10 45//10 31//10
f 30//11 47//11 31//11
f 47//12 46//12 31//12
f 29//13 47//13 30//13
f 48//14 47//14 29//14
f 28//3 49//3 29//3
f 49//15 48//15 29//15
f 28//3 50//3 49//3
f 50//16 51//16 49//16
f 51//17 48//17 49//17
f 52//18 51//18 50//18
f 28//3 53//3 50//3
f 53//19 52//19 50//19
f 54//20 52//20 53//20
f 28//3 55//3 53//3
f 55//21 54//21 53//21
f 56//2 57//2 58//2
f 59//2 56//2 58//2
f 55//3 59//3 58//3
f 60//1 61//1 58//1
f 61//1 55//1 58//1
f 57//1 62//1 58//1
f 62//1 63//1 58//1
f 63//1 60//1 58//1
f 28//3 59//3 55//3
f 64//22 54//22 55//22
f 65//1 66//1 55//1
f 66//1 67//1 55//1
f 67//1 68//1 55//1
f 68//1 64//1 55//1
f 61//1 69//1 55//1
f 69//1 65//1 55//1
f 70//6 71//6 59//6
f 28//6 70//6 59//6
f 72//6 56//6 59//6
f 73//6 72//6 59//6
f 71//6 73//6 59//6
f 74//6 70//6 28//6
f 75//6 74//6 28//6
f 76//6 77//6 28//6
f 77//6 78//6 28//6
f 78//6 75//6 28//6
f 79//6 80//6 28//6
f 81//6 79//6 28//6
f 82//6 81//6 28//6
f 83//6 84//6 28//6
f 84//6 85//6 28//6
f 80//6 86//6 28//6
f 86//6 87//6 28//6
f 87//6 83//6 28//6
f 85//6 88//6 28//6
f 88//6 89//6 28//6
f 89//6 76//6 28//6
f 20//5 82//5 28//5
f 19//23 82//23 20//23
f 19//23 81//23 82//23
f 90//1 91//1 5//1
f 91//1 6//1 5//1
f 92//24 90//24 5//24
f 8//24 92//24 5//24
f 93//6 92//6 8//6
f 35//6 93//6 8//6
f 94//24 95//24 57//24
f 56//24 94//24 57//24
f 95//1 96//1 57//1
f 96//1 62//1 57//1
f 97//6 94//6 56//6
f 72//6 97//6 56//6
f 18//25 98//25 19//25
f 98//25 81//25 19//25
f 98//25 99//25 81//25
f 99//25 79//25 81//25
f 100//1 101//1 90//1
f 101//1 91//1 90//1
f 102//26 100//26 90//26
f 92//26 102//26 90//26
f 103//6 102//6 92//6
f 93//6 103//6 92//6
f 104//26 105//26 95//26
f 94//26 104//26 95//26
f 105//1 106//1 95//1
f 106//1 96//1 95//1
f 107//6 104//6 94//6
f 97//6 107//6 94//6
f 108//1 109//1 100//1
f 109//1 101//1 100//1
f 110//27 108//27 100//27
f 102//28 110//28 100//28
f 111//6 110//6 102//6
f 103//6 111//6 102//6
f 112//28 113//28 105//28
f 104//28 112//28 105//28
f 113//1 114//1 105//1
f 114//1 106//1 105//1
f 115//6 112//6 104//6
f 107//6 115//6 104//6
f 116//1 117//1 108//1
f 117//1 109//1 108//1
f 118//29 116//29 108//29
f 110//29 118//29 108//29
f 119//6 118//6 110//6
f 111//6 119//6 110//6
f 120//29 121//29 113//29
f 112//29 120//29 113//29
f 121//1 122//1 113//1
f 122//1 114//1 113//1
f 123//6 120//6 112//6
f 115//6 123//6 112//6
f 35//30 1//30 7//30
f 93//31 35//31 7//31
f 6//31 93//31 7//31
f 36//30 1//30 35//30
f 72//30 60//30 63//30
f 97//31 72//31 63//31
f 62//31 97//31 63//31
f 73//30 60//30 72//30
f 103//32 93//32 6//32
f 91//32 103//32 6//32
f 36//33 2//33 1//33
f 34//33 2//33 36//33
f 107//32 97//32 62//32
f 96//32 107//32 62//32
f 73//33 61//33 60//33
f 71//33 61//33 73//33
f 124//1 125//1 116//1
f 125//1 117//1 116//1
f 126//34 124//34 116//34
f 118//34 126//34 116//34
f 127//6 126//6 118//6
f 119//6 127//6 118//6
f 128//34 129//34 121//34
f 120//34 128//34 121//34
f 129//1 130//1 121//1
f 130//1 122//1 121//1
f 131//6 128//6 120//6
f 123//6 131//6 120//6
f 111//35 103//35 91//35
f 101//35 111//35 91//35
f 34//36 16//36 2//36
f 33//36 16//36 34//36
f 115//35 107//35 96//35
f 106//35 115//35 96//35
f 71//36 69//36 61//36
f 70//36 69//36 71//36
f 119//37 111//37 101//37
f 109//37 119//37 101//37
f 33//38 11//38 16//38
f 43//38 11//38 33//38
f 123//37 115//37 106//37
f 114//37 123//37 106//37
f 70//38 65//38 69//38
f 74//38 65//38 70//38
f 127//39 119//39 109//39
f 117//39 127//39 109//39
f 43//40 12//40 11//40
f 42//40 12//40 43//40
f 131//39 123//39 114//39
f 122//39 131//39 114//39
f 74//40 66//40 65//40
f 75//40 66//40 74//40
f 132//1 133//1 124//1
f 133//1 125//1 124//1
f 134//41 132//41 124//41
f 126//41 134//41 124//41
f 135//6 134//6 126//6
f 127//6 135//6 126//6
f 136//41 137//41 129//41
f 128//41 136//41 129//41
f 137//1 138//1 129//1
f 138//1 130//1 129//1
f 139//6 136//6 128//6
f 131//6 139//6 128//6
f 135//42 127//42 117//42
f 125//42 135//42 117//42
f 42//43 13//43 12//43
f 41//43 13//43 42//43
f 139//42 131//42 122//42
f 130//42 139//42 122//42
f 75//43 67//43 66//43
f 78//43 67//43 75//43
f 140//1 141//1 132//1
f 141//1 133//1 132//1
f 142//44 140//44 132//44
f 134//44 142//44 132//44
f 143//6 142//6 134//6
f 135//6 143//6 134//6
f 144//44 145//44 137//44
f 136//44 144//44 137//44
f 145//1 146//1 137//1
f 146//1 138//1 137//1
f 147//6 144//6 136//6
f 139//6 147//6 136//6
f 143//45 135//45 125//45
f 133//45 143//45 125//45
f 41//46 14//46 13//46
f 40//46 14//46 41//46
f 147//45 139//45 130//45
f 138//45 147//45 130//45
f 78//46 68//46 67//46
f 77//46 68//46 78//46
f 24//47 148//47 25//47
f 148//48 149//48 25//48
f 149//49 150//49 25//49
f 150//49 151//49 25//49
f 151//50 152//50 25//50
f 152//51 26//51 25//51
f 153//52 148//52 24//52
f 154//49 150//49 149//49
f 155//53 26//53 152//53
f 88//49 85//49 156//49
f 85//54 157//54 156//54
f 158//55 159//55 156//55
f 159//49 88//49 156//49
f 160//56 158//56 156//56
f 157//57 160//57 156//57
f 85//58 161//58 157//58
f 162//59 88//59 159//59
f 158//60 162//60 159//60
f 84//58 161//58 85//58
f 163//61 154//61 149//61
f 164//62 150//62 154//62
f 163//63 164//63 154//63
f 164//62 151//62 150//62
f 165//6 76//6 89//6
f 166//64 160//64 157//64
f 167//65 166//65 157//65
f 161//65 167//65 157//65
f 168//66 162//66 158//66
f 160//67 168//67 158//67
f 169//68 89//68 88//68
f 162//69 169//69 88//69
f 170//70 165//70 89//70
f 169//71 170//71 89//71
f 171//72 143//72 133//72
f 141//72 171//72 133//72
f 40//73 15//73 14//73
f 171//6 142//6 143//6
f 38//73 15//73 40//73
f 172//72 147//72 138//72
f 146//72 172//72 138//72
f 77//73 64//73 68//73
f 172//6 144//6 147//6
f 76//73 64//73 77//73
f 173//74 148//74 24//74
f 174//75 173//75 24//75
f 27//76 174//76 24//76
f 175//77 149//77 148//77
f 173//78 175//78 148//78
f 175//79 163//79 149//79
f 176//80 151//80 164//80
f 176//81 152//81 151//81
f 177//82 174//82 27//82
f 15//1 178//1 27//1
f 178//83 177//83 27//83
f 155//84 21//84 26//84
f 179//85 21//85 155//85
f 84//86 180//86 161//86
f 83//86 180//86 84//86
f 176//87 181//87 152//87
f 182//88 155//88 152//88
f 181//89 182//89 152//89
f 182//90 179//90 155//90
f 180//91 167//91 161//91
f 180//92 183//92 167//92
f 184//93 168//93 160//93
f 166//94 184//94 160//94
f 185//95 169//95 162//95
f 168//96 185//96 162//96
f 186//97 170//97 169//97
f 185//98 186//98 169//98
f 187//99 165//99 170//99
f 188//100 163//100 175//100
f 189//101 164//101 163//101
f 188//102 189//102 163//102
f 189//103 176//103 164//103
f 190//104 179//104 182//104
f 191//105 190//105 182//105
f 181//106 191//106 182//106
f 192//107 176//107 189//107
f 193//108 177//108 178//108
f 15//1 193//1 178//1
f 192//109 181//109 176//109
f 194//6 165//6 187//6
f 170//110 194//110 187//110
f 179//111 22//111 21//111
f 195//112 22//112 179//112
f 83//113 87//113 180//113
f 87//114 196//114 180//114
f 197//115 195//115 179//115
f 198//116 99//116 98//116
f 199//1 200//1 140//1
f 200//1 141//1 140//1
f 201//117 199//117 140//117
f 142//117 201//117 140//117
f 171//6 201//6 142//6
f 202//117 203//117 145//117
f 144//117 202//117 145//117
f 203//1 204//1 145//1
f 204//1 146//1 145//1
f 172//6 202//6 144//6
f 205//118 181//118 192//118
f 205//119 191//119 181//119
f 206//120 168//120 184//120
f 166//121 206//121 184//121
f 207//122 206//122 166//122
f 208//123 207//123 166//123
f 167//123 208//123 166//123
f 209//124 185//124 168//124
f 206//125 209//125 168//125
f 210//126 186//126 185//126
f 209//127 210//127 185//127
f 211//128 194//128 170//128
f 186//97 211//97 170//97
f 198//129 212//129 99//129
f 17//1 213//1 18//1
f 214//130 215//130 18//130
f 215//131 98//131 18//131
f 213//132 216//132 18//132
f 216//133 214//133 18//133
f 217//134 79//134 99//134
f 212//135 217//135 99//135
f 218//6 80//6 79//6
f 217//136 219//136 79//136
f 219//137 220//137 79//137
f 220//138 218//138 79//138
f 215//139 221//139 98//139
f 221//140 198//140 98//140
f 212//141 222//141 217//141
f 223//142 177//142 193//142
f 223//143 174//143 177//143
f 224//144 175//144 173//144
f 224//145 188//145 175//145
f 214//146 225//146 215//146
f 225//147 221//147 215//147
f 222//148 219//148 217//148
f 190//149 226//149 179//149
f 226//150 197//150 179//150
f 196//151 227//151 180//151
f 227//152 183//152 180//152
f 183//153 208//153 167//153
f 222//154 228//154 219//154
f 228//155 220//155 219//155
f 229//156 225//156 214//156
f 216//157 229//157 214//157
f 230//158 174//158 223//158
f 231//159 173//159 174//159
f 230//160 231//160 174//160
f 231//161 224//161 173//161
f 232//162 188//162 224//162
f 232//163 189//163 188//163
f 17//1 233//1 213//1
f 233//164 216//164 213//164
f 234//6 235//6 218//6
f 235//6 236//6 218//6
f 237//6 234//6 218//6
f 238//6 237//6 218//6
f 236//6 239//6 218//6
f 239//6 80//6 218//6
f 220//165 240//165 218//165
f 240//166 238//166 218//166
f 228//167 241//167 220//167
f 241//168 240//168 220//168
f 242//169 194//169 211//169
f 242//6 165//6 194//6
f 243//170 229//170 216//170
f 233//171 244//171 216//171
f 245//172 243//172 216//172
f 244//173 245//173 216//173
f 246//171 238//171 240//171
f 247//174 248//174 240//174
f 248//175 249//175 240//175
f 249//176 246//176 240//176
f 241//177 247//177 240//177
f 17//1 250//1 233//1
f 250//1 251//1 233//1
f 251//1 252//1 233//1
f 252//1 253//1 233//1
f 253//1 254//1 233//1
f 254//1 255//1 233//1
f 256//3 244//3 233//3
f 255//3 256//3 233//3
f 254//1 257//1 255//1
f 257//1 258//1 255//1
f 258//1 259//1 255//1
f 259//1 260//1 255//1
f 260//178 256//178 255//178
f 261//6 262//6 244//6
f 262//6 263//6 244//6
f 263//6 264//6 244//6
f 265//6 245//6 244//6
f 264//6 265//6 244//6
f 266//6 261//6 244//6
f 256//6 266//6 244//6
f 260//178 267//178 256//178
f 268//6 266//6 256//6
f 267//6 269//6 256//6
f 269//6 270//6 256//6
f 270//6 268//6 256//6
f 271//3 272//3 246//3
f 272//3 238//3 246//3
f 273//1 274//1 246//1
f 274//1 275//1 246//1
f 275//1 276//1 246//1
f 276//1 271//1 246//1
f 249//1 277//1 246//1
f 277//1 273//1 246//1
f 278//178 272//178 271//178
f 276//1 279//1 271//1
f 279//1 280//1 271//1
f 280//1 281//1 271//1
f 281//1 278//1 271//1
f 282//6 237//6 238//6
f 272//6 282//6 238//6
f 283//6 282//6 272//6
f 284//6 285//6 272//6
f 285//6 286//6 272//6
f 286//6 283//6 272//6
f 278//178 284//178 272//178
f 287//179 190//179 191//179
f 205//180 287//180 191//180
f 183//181 288//181 208//181
f 289//182 171//182 141//182
f 200//182 289//182 141//182
f 290//1 291//1 15//1
f 292//1 290//1 15//1
f 291//1 193//1 15//1
f 38//183 292//183 15//183
f 289//6 201//6 171//6
f 37//183 292//183 38//183
f 293//182 172//182 146//182
f 204//182 293//182 146//182
f 76//183 294//183 64//183
f 294//184 54//184 64//184
f 293//6 202//6 172//6
f 165//183 294//183 76//183
f 295//185 223//185 193//185
f 296//186 189//186 232//186
f 296//187 192//187 189//187
f 259//1 297//1 260//1
f 297//1 298//1 260//1
f 298//188 267//188 260//188
f 298//188 299//188 267//188
f 299//6 300//6 267//6
f 300//6 269//6 267//6
f 301//188 284//188 278//188
f 281//1 302//1 278//1
f 302//1 301//1 278//1
f 303//6 304//6 284//6
f 304//6 285//6 284//6
f 301//188 303//188 284//188
f 305//189 226//189 190//189
f 227//190 306//190 183//190
f 291//191 295//191 193//191
f 307//192 205//192 192//192
f 307//193 287//193 205//193
f 308//194 206//194 207//194
f 309//195 308//195 207//195
f 208//196 309//196 207//196
f 310//197 210//197 209//197
f 206//198 310//198 209//198
f 311//199 211//199 186//199
f 210//200 311//200 186//200
f 312//201 242//201 211//201
f 311//199 312//199 211//199
f 313//202 223//202 295//202
f 313//203 230//203 223//203
f 314//204 231//204 230//204
f 315//205 224//205 231//205
f 314//205 315//205 231//205
f 315//206 232//206 224//206
f 316//207 192//207 296//207
f 316//192 307//192 192//192
f 317//179 190//179 287//179
f 318//208 309//208 208//208
f 288//209 318//209 208//209
f 319//6 165//6 242//6
f 312//210 319//210 242//210
f 290//211 295//211 291//211
f 317//189 305//189 190//189
f 306//212 288//212 183//212
f 297//1 320//1 298//1
f 320//1 321//1 298//1
f 321//213 299//213 298//213
f 321//213 322//213 299//213
f 322//6 323//6 299//6
f 323//6 300//6 299//6
f 324//213 303//213 301//213
f 302//1 325//1 301//1
f 325//1 324//1 301//1
f 326//6 327//6 303//6
f 327//6 304//6 303//6
f 324//213 326//213 303//213
f 328//214 230//214 313//214
f 328//215 314//215 230//215
f 329//216 232//216 315//216
f 329//217 296//217 232//217
f 330//218 310//218 206//218
f 308//219 330//219 206//219
f 331//220 311//220 210//220
f 310//221 331//221 210//221
f 306//222 332//222 288//222
f 332//223 318//223 288//223
f 333//224 317//224 287//224
f 307//225 333//225 287//225
f 334//226 296//226 329//226
f 334//227 316//227 296//227
f 335//228 23//228 22//228
f 195//229 335//229 22//229
f 87//230 336//230 196//230
f 86//231 336//231 87//231
f 337//232 307//232 316//232
f 337//233 333//233 307//233
f 338//234 330//234 308//234
f 309//235 338//235 308//235
f 197//236 335//236 195//236
f 339//237 227//237 196//237
f 336//238 339//238 196//238
f 340//1 341//1 199//1
f 341//1 200//1 199//1
f 342//183 340//183 199//183
f 201//183 342//183 199//183
f 343//239 289//239 200//239
f 341//239 343//239 200//239
f 344//1 290//1 292//1
f 37//117 344//117 292//117
f 289//6 342//6 201//6
f 343//6 342//6 289//6
f 345//117 344//117 37//117
f 39//6 345//6 37//6
f 346//183 347//183 203//183
f 202//183 346//183 203//183
f 347//1 348//1 203//1
f 348//1 204//1 203//1
f 349//239 293//239 204//239
f 348//239 349//239 204//239
f 165//117 350//117 294//117
f 350//240 54//240 294//240
f 293//6 346//6 202//6
f 349//6 346//6 293//6
f 319//6 351//6 165//6
f 351//117 350//117 165//117
f 333//224 352//224 317//224
f 352//241 353//241 317//241
f 353//242 305//242 317//242
f 320//1 354//1 321//1
f 354//1 355//1 321//1
f 355//243 322//243 321//243
f 355//243 356//243 322//243
f 356//6 357//6 322//6
f 357//6 323//6 322//6
f 358//244 326//244 324//244
f 325//1 359//1 324//1
f 359//1 358//1 324//1
f 360//6 361//6 326//6
f 361//6 327//6 326//6
f 358//243 360//243 326//243
f 362//236 335//236 197//236
f 226//245 362//245 197//245
f 339//246 363//246 227//246
f 290//247 364//247 295//247
f 365//248 313//248 295//248
f 364//248 365//248 295//248
f 365//249 328//249 313//249
f 366//250 316//250 334//250
f 366//232 337//232 316//232
f 363//251 306//251 227//251
f 367//252 365//252 364//252
f 368//253 328//253 365//253
f 367//254 368//254 365//254
f 368//255 314//255 328//255
f 369//256 329//256 315//256
f 369//257 334//257 329//257
f 370//258 310//258 330//258
f 338//259 370//259 330//259
f 371//260 370//260 338//260
f 372//261 371//261 338//261
f 309//262 372//262 338//262
f 373//263 331//263 310//263
f 370//258 373//258 310//258
f 374//264 312//264 311//264
f 331//265 374//265 311//265
f 375//266 376//266 312//266
f 376//267 319//267 312//267
f 374//264 375//264 312//264
f 376//6 351//6 319//6
f 377//268 362//268 226//268
f 305//269 377//269 226//269
f 378//270 352//270 333//270
f 337//271 378//271 333//271
f 379//6 372//6 309//6
f 318//6 379//6 309//6
f 290//272 380//272 364//272
f 381//273 368//273 367//273
f 382//274 314//274 368//274
f 381//275 382//275 368//275
f 383//276 315//276 314//276
f 382//277 383//277 314//277
f 383//278 369//278 315//278
f 384//279 334//279 369//279
f 384//280 366//280 334//280
f 344//1 380//1 290//1
f 385//281 23//281 335//281
f 86//282 386//282 336//282
f 387//283 332//283 306//283
f 363//284 387//284 306//284
f 388//6 385//6 335//6
f 362//285 388//285 335//285
f 389//286 339//286 336//286
f 390//287 389//287 336//287
f 386//288 390//288 336//288
f 391//289 337//289 366//289
f 392//290 391//290 366//290
f 384//291 392//291 366//291
f 391//292 378//292 337//292
f 393//293 374//293 331//293
f 373//294 393//294 331//294
f 378//295 394//295 352//295
f 394//296 353//296 352//296
f 332//297 395//297 318//297
f 395//298 379//298 318//298
f 396//285 388//285 362//285
f 389//299 363//299 339//299
f 354//1 397//1 355//1
f 397//1 398//1 355//1
f 398//300 356//300 355//300
f 398//300 399//300 356//300
f 399//6 400//6 356//6
f 400//6 357//6 356//6
f 401//300 360//300 358//300
f 359//1 402//1 358//1
f 402//1 401//1 358//1
f 403//6 404//6 360//6
f 404//6 361//6 360//6
f 401//300 403//300 360//300
f 380//301 405//301 364//301
f 405//252 367//252 364//252
f 406//1 17//1 23//1
f 385//302 406//302 23//302
f 80//6 407//6 86//6
f 407//303 390//303 86//303
f 390//304 386//304 86//304
f 340//1 408//1 341//1
f 409//305 343//305 341//305
f 408//305 409//305 341//305
f 410//1 411//1 344//1
f 412//306 413//306 344//306
f 414//1 380//1 344//1
f 413//307 415//307 344//307
f 415//308 414//308 344//308
f 411//309 412//309 344//309
f 345//44 410//44 344//44
f 409//6 416//6 343//6
f 416//6 342//6 343//6
f 417//44 410//44 345//44
f 39//6 417//6 345//6
f 418//305 349//305 348//305
f 419//305 418//305 348//305
f 347//1 419//1 348//1
f 351//44 420//44 350//44
f 420//310 54//310 350//310
f 418//6 421//6 349//6
f 421//6 346//6 349//6
f 422//6 423//6 351//6
f 376//6 424//6 351//6
f 424//6 425//6 351//6
f 425//311 426//311 351//311
f 427//6 422//6 351//6
f 426//312 427//312 351//312
f 423//44 420//44 351//44
f 388//313 406//313 385//313
f 428//314 396//314 362//314
f 377//315 428//315 362//315
f 389//316 429//316 363//316
f 430//317 373//317 370//317
f 371//318 430//318 370//318
f 372//319 431//319 371//319
f 432//320 393//320 373//320
f 430//321 432//321 373//321
f 433//322 375//322 374//322
f 393//323 433//323 374//323
f 434//324 424//324 375//324
f 424//325 376//325 375//325
f 433//322 434//322 375//322
f 435//326 353//326 394//326
f 436//327 369//327 383//327
f 436//328 384//328 369//328
f 437//329 431//329 372//329
f 379//330 437//330 372//330
f 438//331 377//331 305//331
f 353//332 438//332 305//332
f 387//333 439//333 332//333
f 440//1 408//1 340//1
f 416//73 440//73 340//73
f 342//73 416//73 340//73
f 421//73 441//73 347//73
f 346//73 421//73 347//73
f 441//1 419//1 347//1
f 442//334 382//334 381//334
f 442//335 383//335 382//335
f 443//336 387//336 363//336
f 429//337 443//337 363//337
f 414//338 405//338 380//338
f 444//339 391//339 392//339
f 444//340 378//340 391//340
f 445//341 430//341 371//341
f 431//342 445//342 371//342
f 446//343 433//343 393//343
f 432//344 446//344 393//344
f 270//30 297//30 259//30
f 268//31 270//31 259//31
f 258//31 268//31 259//31
f 269//30 297//30 270//30
f 286//30 302//30 281//30
f 283//31 286//31 281//31
f 280//31 283//31 281//31
f 285//30 302//30 286//30
f 378//345 447//345 394//345
f 447//346 435//346 394//346
f 395//347 448//347 379//347
f 448//348 437//348 379//348
f 449//349 447//349 378//349
f 444//340 449//340 378//340
f 266//32 268//32 258//32
f 257//32 266//32 258//32
f 269//33 320//33 297//33
f 300//33 320//33 269//33
f 282//32 283//32 280//32
f 279//32 282//32 280//32
f 285//33 325//33 302//33
f 304//33 325//33 285//33
f 414//350 415//350 405//350
f 450//351 367//351 405//351
f 415//352 450//352 405//352
f 450//353 381//353 367//353
f 451//354 383//354 442//354
f 451//355 436//355 383//355
f 439//333 395//333 332//333
f 452//356 428//356 377//356
f 438//357 452//357 377//357
f 453//358 444//358 392//358
f 384//359 453//359 392//359
f 454//360 446//360 432//360
f 430//361 454//361 432//361
f 455//362 434//362 433//362
f 446//363 455//363 433//363
f 426//364 424//364 434//364
f 455//362 426//362 434//362
f 456//365 406//365 388//365
f 407//366 457//366 390//366
f 397//1 458//1 398//1
f 458//1 459//1 398//1
f 459//367 399//367 398//367
f 459//367 460//367 399//367
f 460//6 461//6 399//6
f 461//6 400//6 399//6
f 462//367 403//367 401//367
f 402//1 463//1 401//1
f 463//1 462//1 401//1
f 464//6 465//6 403//6
f 465//6 404//6 403//6
f 462//368 464//368 403//368
f 466//369 381//369 450//369
f 466//370 442//370 381//370
f 467//371 451//371 442//371
f 468//372 436//372 451//372
f 467//373 468//373 451//373
f 469//374 384//374 436//374
f 468//375 469//375 436//375
f 469//376 453//376 384//376
f 470//6 456//6 388//6
f 396//377 470//377 388//377
f 471//378 389//378 390//378
f 457//379 472//379 390//379
f 472//380 471//380 390//380
f 440//1 473//1 408//1
f 474//381 409//381 408//381
f 473//381 474//381 408//381
f 475//1 411//1 410//1
f 417//41 475//41 410//41
f 474//6 476//6 409//6
f 476//6 416//6 409//6
f 477//41 475//41 417//41
f 39//6 477//6 417//6
f 478//381 418//381 419//381
f 479//381 478//381 419//381
f 441//1 479//1 419//1
f 423//41 480//41 420//41
f 480//382 54//382 420//382
f 478//6 481//6 418//6
f 481//6 421//6 418//6
f 422//6 482//6 423//6
f 482//41 480//41 423//41
f 261//35 266//35 257//35
f 254//35 261//35 257//35
f 300//36 354//36 320//36
f 323//36 354//36 300//36
f 237//35 282//35 279//35
f 276//35 237//35 279//35
f 304//36 359//36 325//36
f 327//36 359//36 304//36
f 483//383 435//383 447//383
f 484//384 447//384 449//384
f 444//385 484//385 449//385
f 437//386 485//386 431//386
f 486//377 470//377 396//377
f 428//387 486//387 396//387
f 426//388 425//388 424//388
f 471//389 487//389 389//389
f 487//389 429//389 389//389
f 488//390 444//390 453//390
f 488//391 484//391 444//391
f 489//392 454//392 430//392
f 445//393 489//393 430//393
f 490//393 489//393 445//393
f 491//394 490//394 445//394
f 431//394 491//394 445//394
f 492//395 455//395 446//395
f 454//396 492//396 446//396
f 443//397 439//397 387//397
f 493//398 438//398 353//398
f 439//399 494//399 395//399
f 413//400 450//400 415//400
f 495//401 488//401 453//401
f 469//402 495//402 453//402
f 496//403 447//403 484//403
f 485//404 491//404 431//404
f 496//405 483//405 447//405
f 448//406 497//406 437//406
f 497//407 485//407 437//407
f 262//37 261//37 254//37
f 253//408 262//408 254//408
f 323//409 397//409 354//409
f 357//38 397//38 323//38
f 234//37 237//37 276//37
f 275//408 234//408 276//408
f 327//409 402//409 359//409
f 361//409 402//409 327//409
f 413//410 412//410 450//410
f 412//411 466//411 450//411
f 498//387 486//387 428//387
f 499//412 492//412 454//412
f 489//413 499//413 454//413
f 500//414 426//414 455//414
f 492//415 500//415 455//415
f 500//416 427//416 426//416
f 501//417 466//417 412//417
f 502//418 442//418 466//418
f 501//419 502//419 466//419
f 502//420 467//420 442//420
f 503//421 469//421 468//421
f 503//422 495//422 469//422
f 504//423 496//423 484//423
f 488//424 504//424 484//424
f 485//425 505//425 491//425
f 506//426 452//426 438//426
f 493//1 506//1 438//1
f 443//397 507//397 439//397
f 508//427 499//427 489//427
f 490//428 508//428 489//428
f 509//428 508//428 490//428
f 510//429 509//429 490//429
f 491//430 510//430 490//430
f 511//431 500//431 492//431
f 499//432 511//432 492//432
f 512//433 483//433 496//433
f 513//1 17//1 406//1
f 456//434 470//434 406//434
f 470//435 513//435 406//435
f 80//6 514//6 407//6
f 472//436 457//436 407//436
f 515//437 472//437 407//437
f 514//438 515//438 407//438
f 516//439 467//439 502//439
f 517//440 468//440 467//440
f 516//440 517//440 467//440
f 517//441 503//441 468//441
f 435//442 493//442 353//442
f 494//399 448//399 395//399
f 518//443 498//443 428//443
f 452//443 518//443 428//443
f 487//444 519//444 429//444
f 519//444 443//444 429//444
f 520//6 422//6 427//6
f 411//445 521//445 412//445
f 521//446 501//446 412//446
f 522//447 520//447 427//447
f 500//448 522//448 427//448
f 505//449 510//449 491//449
f 411//1 501//1 521//1
f 523//450 488//450 495//450
f 523//451 504//451 488//451
f 524//452 511//452 499//452
f 508//453 524//453 499//453
f 511//454 522//454 500//454
f 517//455 525//455 503//455
f 526//1 527//1 528//1
f 501//1 411//1 528//1
f 411//1 529//1 528//1
f 529//1 526//1 528//1
f 516//456 502//456 528//456
f 502//3 501//3 528//3
f 495//457 516//457 528//457
f 523//458 495//458 528//458
f 527//5 523//5 528//5
f 503//459 517//459 516//459
f 495//460 503//460 516//460
f 527//461 504//461 523//461
f 509//462 530//462 508//462
f 530//463 522//463 508//463
f 522//464 511//464 508//464
f 511//465 524//465 508//465
f 510//466 530//466 509//466
f 530//467 520//467 522//467
f 531//6 520//6 530//6
f 532//6 531//6 530//6
f 510//5 532//5 530//5
f 533//468 496//468 504//468
f 505//469 534//469 510//469
f 497//470 535//470 485//470
f 535//471 505//471 485//471
f 526//1 536//1 527//1
f 536//472 504//472 527//472
f 536//473 533//473 504//473
f 534//23 532//23 510//23
f 537//6 531//6 532//6
f 534//23 537//23 532//23
f 538//1 539//1 473//1
f 440//1 538//1 473//1
f 540//367 474//367 473//367
f 539//367 540//367 473//367
f 541//1 411//1 475//1
f 477//34 541//34 475//34
f 540//6 542//6 474//6
f 542//6 476//6 474//6
f 543//34 541//34 477//34
f 39//6 543//6 477//6
f 544//367 478//367 479//367
f 545//367 544//367 479//367
f 546//1 545//1 479//1
f 441//1 546//1 479//1
f 482//34 547//34 480//34
f 547//474 54//474 480//474
f 544//6 548//6 478//6
f 548//6 481//6 478//6
f 422//6 549//6 482//6
f 549//34 547//34 482//34
f 476//46 538//46 440//46
f 416//46 476//46 440//46
f 481//46 546//46 441//46
f 421//46 481//46 441//46
f 263//39 262//39 253//39
f 252//39 263//39 253//39
f 357//40 458//40 397//40
f 400//40 458//40 357//40
f 235//39 234//39 275//39
f 274//39 235//39 275//39
f 361//40 463//40 402//40
f 404//40 463//40 361//40
f 550//475 494//475 439//475
f 507//475 550//475 439//475
f 533//476 551//476 496//476
f 551//477 512//477 496//477
f 535//478 552//478 505//478
f 553//479 493//479 435//479
f 458//1 554//1 459//1
f 554//1 555//1 459//1
f 555//381 460//381 459//381
f 555//381 556//381 460//381
f 556//6 557//6 460//6
f 557//6 461//6 460//6
f 558//381 464//381 462//381
f 463//1 559//1 462//1
f 559//1 558//1 462//1
f 560//6 561//6 464//6
f 561//6 465//6 464//6
f 558//381 560//381 464//381
f 552//480 534//480 505//480
f 526//1 562//1 536//1
f 562//25 533//25 536//25
f 562//25 551//25 533//25
f 563//25 537//25 534//25
f 552//481 563//481 534//481
f 563//6 531//6 537//6
f 506//482 518//482 452//482
f 564//1 506//1 493//1
f 553//483 564//483 493//483
f 565//484 513//484 470//484
f 515//485 566//485 472//485
f 483//486 553//486 435//486
f 567//487 497//487 448//487
f 494//487 567//487 448//487
f 568//488 565//488 470//488
f 486//489 568//489 470//489
f 566//490 569//490 472//490
f 569//491 471//491 472//491
f 570//489 568//489 486//489
f 264//492 263//492 252//492
f 251//492 264//492 252//492
f 400//43 554//43 458//43
f 461//493 554//493 400//493
f 236//492 235//492 274//492
f 273//492 236//492 274//492
f 404//494 559//494 463//494
f 465//493 559//493 404//493
f 571//1 572//1 539//1
f 538//1 571//1 539//1
f 573//300 540//300 539//300
f 572//300 573//300 539//300
f 574//1 411//1 541//1
f 543//29 574//29 541//29
f 573//6 575//6 540//6
f 575//6 542//6 540//6
f 576//29 574//29 543//29
f 39//6 576//6 543//6
f 577//300 544//300 545//300
f 578//300 577//300 545//300
f 579//1 578//1 545//1
f 546//1 579//1 545//1
f 549//29 580//29 547//29
f 580//495 54//495 547//495
f 577//6 581//6 544//6
f 581//6 548//6 544//6
f 422//6 582//6 549//6
f 582//29 580//29 549//29
f 583//482 518//482 506//482
f 519//496 584//496 443//496
f 584//497 507//497 443//497
f 585//498 570//498 486//498
f 498//499 585//499 486//499
f 569//500 586//500 471//500
f 586//500 487//500 471//500
f 587//501 553//501 483//501
f 518//502 585//502 498//502
f 512//503 587//503 483//503
f 588//504 535//504 497//504
f 567//504 588//504 497//504
f 589//1 583//1 506//1
f 564//1 589//1 506//1
f 584//505 550//505 507//505
f 590//483 564//483 553//483
f 587//506 590//506 553//506
f 591//507 567//507 494//507
f 550//508 591//508 494//508
f 592//502 585//502 518//502
f 586//509 593//509 487//509
f 593//510 519//510 487//510
f 542//43 571//43 538//43
f 476//43 542//43 538//43
f 548//43 579//43 546//43
f 481//43 548//43 546//43
f 588//511 552//511 535//511
f 594//1 595//1 572//1
f 571//1 594//1 572//1
f 596//244 573//244 572//244
f 595//244 596//244 572//244
f 597//1 411//1 574//1
f 576//28 597//28 574//28
f 596//6 598//6 573//6
f 598//6 575//6 573//6
f 599//28 597//28 576//28
f 39//6 599//6 576//6
f 600//244 577//244 578//244
f 601//244 600//244 578//244
f 602//1 601//1 578//1
f 579//1 602//1 578//1
f 582//28 603//28 580//28
f 603//512 54//512 580//512
f 600//6 604//6 577//6
f 604//6 581//6 577//6
f 422//6 605//6 582//6
f 605//28 603//28 582//28
f 606//513 590//513 587//513
f 554//1 607//1 555//1
f 607//1 608//1 555//1
f 608//305 556//305 555//305
f 608//305 609//305 556//305
f 609//6 610//6 556//6
f 610//6 557//6 556//6
f 611//305 560//305 558//305
f 559//1 612//1 558//1
f 612//1 611//1 558//1
f 613//6 614//6 560//6
f 614//6 561//6 560//6
f 611//305 613//305 560//305
f 615//514 587//514 512//514
f 551//515 615//515 512//515
f 588//516 616//516 552//516
f 265//45 264//45 251//45
f 250//45 265//45 251//45
f 461//46 607//46 554//46
f 557//517 607//517 461//517
f 239//45 236//45 273//45
f 277//45 239//45 273//45
f 465//46 612//46 559//46
f 561//517 612//517 465//517
f 526//1 617//1 562//1
f 618//518 551//518 562//518
f 617//519 618//519 562//519
f 618//520 615//520 551//520
f 616//521 563//521 552//521
f 619//6 531//6 563//6
f 616//522 619//522 563//522
f 591//523 588//523 567//523
f 583//524 592//524 518//524
f 593//525 620//525 519//525
f 621//1 622//1 513//1
f 622//1 17//1 513//1
f 568//526 621//526 513//526
f 565//484 568//484 513//484
f 80//6 623//6 514//6
f 566//527 515//527 514//527
f 623//528 566//528 514//528
f 590//529 589//529 564//529
f 584//530 624//530 550//530
f 615//531 606//531 587//531
f 591//532 625//532 588//532
f 626//1 627//1 595//1
f 594//1 626//1 595//1
f 628//213 596//213 595//213
f 627//213 628//213 595//213
f 629//1 411//1 597//1
f 630//1 629//1 597//1
f 599//26 630//26 597//26
f 628//6 631//6 596//6
f 631//6 598//6 596//6
f 632//26 630//26 599//26
f 39//6 632//6 599//6
f 633//213 600//213 601//213
f 634//213 633//213 601//213
f 635//1 634//1 601//1
f 602//1 635//1 601//1
f 605//26 636//26 603//26
f 637//533 54//533 603//533
f 636//1 637//1 603//1
f 633//6 638//6 600//6
f 638//6 604//6 600//6
f 422//6 639//6 605//6
f 639//26 636//26 605//26
f 640//524 592//524 583//524
f 589//1 640//1 583//1
f 620//534 584//534 519//534
f 641//535 606//535 615//535
f 625//536 616//536 588//536
f 642//529 589//529 590//529
f 606//537 642//537 590//537
f 624//538 591//538 550//538
f 643//539 641//539 615//539
f 618//540 643//540 615//540
f 644//541 645//541 616//541
f 625//542 644//542 616//542
f 645//543 619//543 616//543
f 646//544 621//544 568//544
f 623//545 647//545 566//545
f 570//546 648//546 568//546
f 648//547 646//547 568//547
f 647//548 649//548 566//548
f 649//549 569//549 566//549
f 650//1 651//1 627//1
f 626//1 650//1 627//1
f 652//188 628//188 627//188
f 651//188 652//188 627//188
f 653//1 629//1 630//1
f 632//24 653//24 630//24
f 652//6 654//6 628//6
f 654//6 631//6 628//6
f 655//24 653//24 632//24
f 656//6 655//6 632//6
f 39//6 656//6 632//6
f 657//188 633//188 634//188
f 658//188 657//188 634//188
f 659//1 658//1 634//1
f 635//1 659//1 634//1
f 639//24 660//24 636//24
f 660//1 637//1 636//1
f 657//6 661//6 633//6
f 661//6 638//6 633//6
f 662//6 663//6 639//6
f 422//6 662//6 639//6
f 663//24 660//24 639//24
f 245//72 265//72 250//72
f 17//72 245//72 250//72
f 664//1 608//1 607//1
f 557//73 664//73 607//73
f 610//73 664//73 557//73
f 80//72 239//72 277//72
f 249//72 80//72 277//72
f 561//73 665//73 612//73
f 665//1 611//1 612//1
f 614//73 665//73 561//73
f 585//550 648//550 570//550
f 649//551 666//551 569//551
f 575//40 594//40 571//40
f 542//40 575//40 571//40
f 581//40 602//40 579//40
f 548//40 581//40 579//40
f 667//1 640//1 589//1
f 620//552 668//552 584//552
f 669//537 642//537 606//537
f 526//1 670//1 617//1
f 670//553 643//553 617//553
f 643//554 618//554 617//554
f 671//6 531//6 619//6
f 645//555 671//555 619//555
f 644//556 671//556 645//556
f 672//557 648//557 585//557
f 666//558 586//558 569//558
f 673//1 674//1 651//1
f 650//1 673//1 651//1
f 675//178 652//178 651//178
f 674//178 675//178 651//178
f 674//1 629//1 653//1
f 655//2 674//2 653//2
f 675//6 656//6 652//6
f 656//6 654//6 652//6
f 675//2 674//2 655//2
f 656//6 675//6 655//6
f 676//178 657//178 658//178
f 677//178 676//178 658//178
f 678//1 677//1 658//1
f 659//1 678//1 658//1
f 663//2 677//2 660//2
f 677//1 637//1 660//1
f 676//6 662//6 657//6
f 662//6 661//6 657//6
f 662//6 676//6 663//6
f 676//2 677//2 663//2
f 592//559 672//559 585//559
f 666//560 679//560 586//560
f 624//561 680//561 591//561
f 673//1 629//1 674//1
f 678//1 637//1 677//1
f 664//1 681//1 608//1
f 681//239 609//239 608//239
f 681//239 682//239 609//239
f 682//6 683//6 609//6
f 683//6 610//6 609//6
f 684//239 613//239 611//239
f 665//1 684//1 611//1
f 685//6 686//6 613//6
f 686//6 614//6 613//6
f 684//239 685//239 613//239
f 687//562 669//562 606//562
f 641//562 687//562 606//562
f 680//563 625//563 591//563
f 679//564 593//564 586//564
f 643//565 687//565 641//565
f 688//566 667//566 589//566
f 642//566 688//566 589//566
f 668//567 689//567 584//567
f 689//568 624//568 584//568
f 690//565 687//565 643//565
f 691//6 690//6 643//6
f 692//569 644//569 625//569
f 680//569 693//569 625//569
f 693//569 692//569 625//569
f 694//570 672//570 592//570
f 679//571 695//571 593//571
f 670//572 691//572 643//572
f 692//573 671//573 644//573
f 696//574 245//574 17//574
f 622//182 696//182 17//182
f 697//1 681//1 664//1
f 610//183 697//183 664//183
f 696//575 243//575 245//575
f 683//183 697//183 610//183
f 698//182 80//182 249//182
f 248//574 698//574 249//574
f 614//576 699//576 665//576
f 699//1 684//1 665//1
f 698//6 623//6 80//6
f 686//183 699//183 614//183
f 669//577 688//577 642//577
f 598//38 626//38 594//38
f 575//409 598//409 594//409
f 604//409 635//409 602//409
f 581//409 604//409 602//409
f 640//578 700//578 592//578
f 700//579 694//579 592//579
f 695//580 620//580 593//580
f 701//577 688//577 669//577
f 526//1 702//1 670//1
f 703//581 690//581 670//581
f 702//582 703//582 670//582
f 690//572 691//572 670//572
f 704//6 531//6 671//6
f 705//6 704//6 671//6
f 692//573 693//573 671//573
f 693//583 705//583 671//583
f 667//584 700//584 640//584
f 687//585 701//585 669//585
f 689//586 706//586 624//586
f 706//586 680//586 624//586
f 707//587 668//587 620//587
f 695//588 707//588 620//588
f 708//585 701//585 687//585
f 631//36 650//36 626//36
f 598//36 631//36 626//36
f 638//36 659//36 635//36
f 604//36 638//36 635//36
f 690//589 708//589 687//589
f 709//239 696//239 622//239
f 710//590 709//590 622//590
f 711//590 698//590 248//590
f 712//239 711//239 248//239
f 621//1 710//1 622//1
f 709//591 243//591 696//591
f 682//6 713//6 683//6
f 714//6 713//6 682//6
f 247//1 712//1 248//1
f 699//1 715//1 684//1
f 716//6 623//6 698//6
f 711//6 716//6 698//6
f 713//117 717//117 683//117
f 717//117 697//117 683//117
f 685//6 718//6 686//6
f 718//592 719//592 686//592
f 719//117 699//117 686//117
f 697//1 720//1 681//1
f 720//182 682//182 681//182
f 720//182 714//182 682//182
f 715//182 685//182 684//182
f 721//6 718//6 685//6
f 715//182 721//182 685//182
f 717//1 720//1 697//1
f 719//1 715//1 699//1
f 722//1 710//1 621//1
f 723//593 722//593 621//593
f 646//594 723//594 621//594
f 716//595 724//595 647//595
f 623//596 716//596 647//596
f 724//597 725//597 647//597
f 725//598 649//598 647//598
f 726//589 708//589 690//589
f 706//599 727//599 680//599
f 727//599 693//599 680//599
f 688//600 728//600 667//600
f 728//601 700//601 667//601
f 729//602 723//602 646//602
f 648//603 729//603 646//603
f 703//1 726//1 690//1
f 727//604 705//604 693//604
f 730//605 729//605 648//605
f 725//606 666//606 649//606
f 725//607 731//607 666//607
f 672//608 730//608 648//608
f 732//609 728//609 688//609
f 733//610 689//610 668//610
f 707//611 733//611 668//611
f 734//612 730//612 672//612
f 731//613 679//613 666//613
f 654//33 673//33 650//33
f 631//33 654//33 650//33
f 661//33 678//33 659//33
f 638//33 661//33 659//33
f 731//614 735//614 679//614
f 736//615 734//615 672//615
f 701//616 732//616 688//616
f 735//617 737//617 679//617
f 694//618 736//618 672//618
f 738//619 695//619 679//619
f 737//620 738//620 679//620
f 656//30 629//30 673//30
f 654//30 656//30 673//30
f 662//30 637//30 678//30
f 661//30 662//30 678//30
f 739//1 740//1 710//1
f 722//1 739//1 710//1
f 741//305 709//305 710//305
f 740//305 741//305 710//305
f 742//1 720//1 717//1
f 743//1 742//1 717//1
f 713//44 743//44 717//44
f 741//621 243//621 709//621
f 744//44 743//44 713//44
f 714//6 744//6 713//6
f 745//305 711//305 712//305
f 746//305 745//305 712//305
f 247//1 746//1 712//1
f 718//44 747//44 719//44
f 748//1 715//1 719//1
f 747//1 748//1 719//1
f 745//6 716//6 711//6
f 721//6 749//6 718//6
f 749//44 747//44 718//44
f 39//49 411//49 629//49
f 656//49 39//49 629//49
f 47//49 422//49 411//49
f 39//49 44//49 411//49
f 44//49 45//49 411//49
f 45//49 46//49 411//49
f 46//49 47//49 411//49
f 422//622 529//622 411//622
f 48//49 422//49 47//49
f 51//49 422//49 48//49
f 52//49 422//49 51//49
f 54//49 422//49 52//49
f 662//49 54//49 637//49
f 662//49 422//49 54//49
f 520//622 529//622 422//622
f 750//623 736//623 694//623
f 700//624 750//624 694//624
f 751//1 752//1 702//1
f 526//1 751//1 702//1
f 726//625 703//625 702//625
f 752//626 726//626 702//626
f 753//6 704//6 705//6
f 754//627 753//627 705//627
f 727//604 754//604 705//604
f 520//84 526//84 529//84
f 531//84 526//84 520//84
f 708//628 755//628 701//628
f 755//629 732//629 701//629
f 756//630 706//630 689//630
f 733//631 756//631 689//631
f 706//599 754//599 727//599
f 738//632 757//632 695//632
f 758//633 759//633 526//633
f 531//634 760//634 526//634
f 759//635 761//635 526//635
f 761//634 751//634 526//634
f 760//634 762//634 526//634
f 762//634 758//634 526//634
f 704//634 763//634 531//634
f 763//634 760//634 531//634
f 764//636 750//636 700//636
f 742//72 714//72 720//72
f 742//72 765//72 714//72
f 765//6 744//6 714//6
f 748//72 721//72 715//72
f 766//6 749//6 721//6
f 748//72 766//72 721//72
f 726//637 767//637 708//637
f 767//638 755//638 708//638
f 756//639 768//639 706//639
f 768//640 754//640 706//640
f 752//641 767//641 726//641
f 768//642 753//642 754//642
f 769//643 764//643 700//643
f 770//644 771//644 695//644
f 757//645 770//645 695//645
f 771//646 707//646 695//646
f 739//1 772//1 740//1
f 773//381 741//381 740//381
f 772//381 773//381 740//381
f 774//1 742//1 743//1
f 775//1 774//1 743//1
f 744//647 775//647 743//647
f 773//648 243//648 741//648
f 776//41 775//41 744//41
f 765//6 776//6 744//6
f 777//381 745//381 746//381
f 778//381 777//381 746//381
f 247//1 778//1 746//1
f 749//647 779//647 747//647
f 780//1 748//1 747//1
f 779//1 780//1 747//1
f 781//6 716//6 745//6
f 777//6 781//6 745//6
f 766//6 782//6 749//6
f 782//41 779//41 749//41
f 783//649 769//649 700//649
f 728//650 783//650 700//650
f 784//651 783//651 728//651
f 785//652 786//652 707//652
f 771//653 785//653 707//653
f 732//654 784//654 728//654
f 786//655 733//655 707//655
f 787//656 784//656 732//656
f 786//657 788//657 733//657
f 789//658 787//658 732//658
f 739//1 790//1 772//1
f 791//368 773//368 772//368
f 790//368 791//368 772//368
f 792//1 774//1 775//1
f 793//1 792//1 775//1
f 776//659 793//659 775//659
f 791//660 243//660 773//660
f 794//34 793//34 776//34
f 795//6 794//6 776//6
f 765//6 795//6 776//6
f 796//368 777//368 778//368
f 797//368 796//368 778//368
f 247//1 797//1 778//1
f 782//659 798//659 779//659
f 799//1 780//1 779//1
f 798//1 799//1 779//1
f 796//6 781//6 777//6
f 800//6 801//6 782//6
f 766//6 800//6 782//6
f 801//661 798//661 782//661
f 774//45 765//45 742//45
f 774//45 795//45 765//45
f 780//45 766//45 748//45
f 780//45 800//45 766//45
f 755//662 789//662 732//662
f 788//663 802//663 733//663
f 802//664 756//664 733//664
f 803//6 804//6 753//6
f 804//6 704//6 753//6
f 805//6 806//6 753//6
f 806//6 803//6 753//6
f 802//665 768//665 756//665
f 807//666 789//666 755//666
f 739//1 808//1 790//1
f 809//300 791//300 790//300
f 808//300 809//300 790//300
f 810//1 792//1 793//1
f 811//1 810//1 793//1
f 794//29 811//29 793//29
f 809//667 243//667 791//667
f 812//29 811//29 794//29
f 813//6 812//6 794//6
f 795//6 813//6 794//6
f 814//300 796//300 797//300
f 815//300 814//300 797//300
f 247//1 815//1 797//1
f 801//29 816//29 798//29
f 817//1 799//1 798//1
f 816//1 817//1 798//1
f 814//6 781//6 796//6
f 818//6 819//6 801//6
f 800//6 818//6 801//6
f 819//29 816//29 801//29
f 751//1 820//1 752//1
f 820//668 767//668 752//668
f 820//668 821//668 767//668
f 822//669 753//669 768//669
f 822//670 805//670 753//670
f 821//671 755//671 767//671
f 802//672 822//672 768//672
f 821//673 807//673 755//673
f 792//42 795//42 774//42
f 792//42 813//42 795//42
f 799//492 800//492 780//492
f 799//42 818//42 800//42
f 788//674 823//674 802//674
f 824//675 789//675 807//675
f 825//676 822//676 802//676
f 739//1 826//1 808//1
f 827//243 809//243 808//243
f 826//244 827//244 808//244
f 828//1 810//1 811//1
f 829//1 828//1 811//1
f 812//28 829//28 811//28
f 827//677 243//677 809//677
f 830//27 829//27 812//27
f 831//6 830//6 812//6
f 813//6 831//6 812//6
f 832//243 814//243 815//243
f 833//244 832//244 815//244
f 247//1 833//1 815//1
f 819//27 834//27 816//27
f 835//1 817//1 816//1
f 834//1 835//1 816//1
f 832//6 781//6 814//6
f 836//6 837//6 819//6
f 818//6 836//6 819//6
f 837//27 834//27 819//27
f 751//1 838//1 820//1
f 838//678 821//678 820//678
f 838//679 839//679 821//679
f 840//680 805//680 822//680
f 840//681 806//681 805//681
f 824//682 841//682 789//682
f 841//683 787//683 789//683
f 823//684 825//684 802//684
f 839//685 807//685 821//685
f 842//686 824//686 807//686
f 825//687 840//687 822//687
f 843//688 784//688 787//688
f 788//689 844//689 823//689
f 844//690 825//690 823//690
f 751//1 845//1 838//1
f 845//691 839//691 838//691
f 846//692 806//692 840//692
f 846//693 803//693 806//693
f 842//694 841//694 824//694
f 825//695 846//695 840//695
f 847//696 844//696 788//696
f 786//697 847//697 788//697
f 841//698 843//698 787//698
f 839//699 842//699 807//699
f 785//700 771//700 786//700
f 784//701 769//701 783//701
f 751//1 848//1 845//1
f 739//1 849//1 826//1
f 850//213 827//213 826//213
f 849//213 850//213 826//213
f 851//1 828//1 829//1
f 852//1 851//1 829//1
f 830//26 852//26 829//26
f 850//702 243//702 827//702
f 853//26 852//26 830//26
f 854//6 853//6 830//6
f 831//6 854//6 830//6
f 855//213 832//213 833//213
f 856//213 855//213 833//213
f 247//1 856//1 833//1
f 837//26 857//26 834//26
f 858//1 835//1 834//1
f 857//1 858//1 834//1
f 859//6 781//6 832//6
f 855//6 859//6 832//6
f 860//6 861//6 837//6
f 836//6 860//6 837//6
f 861//26 857//26 837//26
f 771//703 847//703 786//703
f 843//704 769//704 784//704
f 825//705 862//705 846//705
f 863//706 769//706 843//706
f 864//707 841//707 842//707
f 848//708 839//708 845//708
f 848//709 865//709 839//709
f 866//710 803//710 846//710
f 866//710 804//710 803//710
f 862//711 866//711 846//711
f 867//1 868//1 849//1
f 739//1 867//1 849//1
f 869//188 850//188 849//188
f 868//188 869//188 849//188
f 870//1 851//1 852//1
f 871//1 870//1 852//1
f 853//24 871//24 852//24
f 869//712 243//712 850//712
f 872//24 871//24 853//24
f 873//6 872//6 853//6
f 854//6 873//6 853//6
f 874//188 855//188 856//188
f 875//188 874//188 856//188
f 247//1 875//1 856//1
f 861//24 876//24 857//24
f 876//1 858//1 857//1
f 874//6 859//6 855//6
f 877//6 878//6 861//6
f 860//6 877//6 861//6
f 878//24 876//24 861//24
f 879//713 842//713 839//713
f 810//39 813//39 792//39
f 810//39 831//39 813//39
f 817//39 818//39 799//39
f 817//39 836//39 818//39
f 770//714 757//714 771//714
f 844//715 880//715 825//715
f 880//716 881//716 825//716
f 882//717 864//717 842//717
f 750//701 764//701 769//701
f 879//718 839//718 865//718
f 847//719 880//719 844//719
f 864//720 843//720 841//720
f 759//721 879//721 865//721
f 867//1 883//1 868//1
f 884//178 869//178 868//178
f 883//178 884//178 868//178
f 867//1 870//1 871//1
f 883//1 867//1 871//1
f 872//2 883//2 871//2
f 873//722 243//722 869//722
f 884//6 873//6 869//6
f 884//2 883//2 872//2
f 873//6 884//6 872//6
f 885//178 874//178 875//178
f 886//178 885//178 875//178
f 858//1 886//1 875//1
f 247//1 858//1 875//1
f 878//2 886//2 876//2
f 886//1 858//1 876//1
f 885//6 859//6 874//6
f 887//6 885//6 878//6
f 877//6 887//6 878//6
f 885//2 886//2 878//2
f 881//723 862//723 825//723
f 879//724 882//724 842//724
f 759//725 758//725 879//725
f 758//726 888//726 879//726
f 751//727 865//727 848//727
f 751//727 761//727 865//727
f 763//727 804//727 866//727
f 763//727 704//727 804//727
f 760//728 763//728 866//728
f 889//729 843//729 864//729
f 887//6 859//6 885//6
f 862//730 760//730 866//730
f 762//731 760//731 862//731
f 759//732 865//732 761//732
f 888//733 882//733 879//733
f 759//734 888//734 758//734
f 863//735 750//735 769//735
f 862//736 890//736 762//736
f 847//737 891//737 880//737
f 881//738 890//738 862//738
f 892//739 882//739 888//739
f 771//740 893//740 847//740
f 894//741 864//741 882//741
f 881//742 895//742 890//742
f 895//743 762//743 890//743
f 758//744 892//744 888//744
f 895//634 758//634 762//634
f 895//745 892//745 758//745
f 896//746 750//746 863//746
f 880//747 897//747 881//747
f 897//748 895//748 881//748
f 892//749 894//749 882//749
f 893//750 891//750 847//750
f 897//751 892//751 895//751
f 889//752 898//752 843//752
f 898//753 863//753 843//753
f 897//754 894//754 892//754
f 891//755 897//755 880//755
f 894//756 889//756 864//756
f 899//757 889//757 894//757
f 757//758 893//758 771//758
f 891//759 900//759 897//759
f 900//760 894//760 897//760
f 900//761 899//761 894//761
f 901//762 898//762 889//762
f 893//763 902//763 891//763
f 902//764 900//764 891//764
f 899//765 901//765 889//765
f 757//766 903//766 893//766
f 828//408 831//408 810//408
f 828//408 854//408 831//408
f 835//408 836//408 817//408
f 835//37 860//37 836//37
f 898//767 896//767 863//767
f 902//634 901//634 900//634
f 901//768 899//768 900//768
f 896//769 736//769 750//769
f 738//770 737//770 757//770
f 903//771 902//771 893//771
f 901//772 896//772 898//772
f 737//773 735//773 738//773
f 904//774 903//774 757//774
f 737//775 904//775 757//775
f 905//776 896//776 901//776
f 903//777 905//777 902//777
f 905//778 901//778 902//778
f 906//779 736//779 896//779
f 735//780 904//780 737//780
f 905//781 906//781 896//781
f 904//782 905//782 903//782
f 907//783 906//783 905//783
f 904//784 907//784 905//784
f 908//785 212//785 198//785
f 851//786 873//786 828//786
f 873//787 854//787 828//787
f 858//787 860//787 835//787
f 858//788 877//788 860//788
f 909//789 734//789 736//789
f 906//790 909//790 736//790
f 735//791 910//791 904//791
f 911//792 907//792 904//792
f 212//793 908//793 904//793
f 908//794 911//794 904//794
f 910//795 912//795 904//795
f 912//796 212//796 904//796
f 221//797 907//797 198//797
f 909//798 730//798 734//798
f 907//799 909//799 906//799
f 913//800 241//800 228//800
f 914//801 221//801 225//801
f 731//802 910//802 735//802
f 915//803 730//803 909//803
f 873//804 916//804 243//804
f 851//805 916//805 873//805
f 907//806 911//806 198//806
f 731//807 917//807 910//807
f 911//808 908//808 198//808
f 914//809 907//809 221//809
f 918//810 914//810 225//810
f 919//1 739//1 722//1
f 781//6 920//6 716//6
f 915//811 729//811 730//811
f 725//812 917//812 731//812
f 917//813 912//813 910//813
f 918//814 915//814 909//814
f 907//815 918//815 909//815
f 870//816 921//816 851//816
f 921//817 916//817 851//817
f 858//818 922//818 877//818
f 922//819 923//819 877//819
f 923//820 887//820 877//820
f 247//821 922//821 858//821
f 912//822 222//822 212//822
f 915//823 924//823 729//823
f 918//824 907//824 914//824
f 913//825 228//825 222//825
f 912//826 913//826 222//826
f 247//827 925//827 922//827
f 229//828 918//828 225//828
f 926//829 917//829 725//829
f 917//830 927//830 912//830
f 913//831 927//831 917//831
f 926//832 913//832 917//832
f 927//833 913//833 912//833
f 924//834 723//834 729//834
f 928//835 924//835 915//835
f 724//836 926//836 725//836
f 929//837 241//837 913//837
f 930//838 926//838 724//838
f 918//839 931//839 915//839
f 931//840 928//840 915//840
f 229//841 931//841 918//841
f 916//842 921//842 243//842
f 923//843 922//843 925//843
f 932//844 919//844 722//844
f 723//845 932//845 722//845
f 716//846 933//846 724//846
f 920//847 933//847 716//847
f 929//848 247//848 241//848
f 243//849 931//849 229//849
f 931//850 924//850 928//850
f 924//851 932//851 723//851
f 929//852 913//852 926//852
f 933//853 930//853 724//853
f 921//854 934//854 243//854
f 930//855 929//855 926//855
f 867//31 935//31 870//31
f 935//856 921//856 870//856
f 923//857 936//857 887//857
f 936//858 859//858 887//858
f 931//859 932//859 924//859
f 925//860 936//860 923//860
f 933//861 929//861 930//861
f 931//862 919//862 932//862
f 920//863 929//863 933//863
f 929//864 925//864 247//864
f 931//865 739//865 919//865
f 937//866 929//866 920//866
f 781//867 937//867 920//867
f 935//868 934//868 921//868
f 243//869 739//869 931//869
f 937//870 925//870 929//870
f 934//871 739//871 243//871
f 781//872 925//872 937//872
f 934//49 867//49 739//49
f 934//49 935//49 867//49
f 781//873 936//873 925//873
f 781//874 859//874 936//874
